<mxfile modified="2023-12-29T21:09:22.735Z" host="Electron" agent="Mozilla/5.0 (Windows NT 10.0; Win64; x64) AppleWebKit/537.36 (KHTML, like Gecko) draw.io/22.1.2 Chrome/114.0.5735.289 Electron/25.9.4 Safari/537.36" etag="ZcBhulC__hTALe7Kl2ZB" version="22.1.2" type="device" pages="2">
  <diagram id="Ht1M8jgEwFfnCIfOTk4-" name="template">
    <mxGraphModel dx="1036" dy="2106" grid="1" gridSize="10" guides="1" tooltips="1" connect="1" arrows="1" fold="1" page="1" pageScale="1" pageWidth="1169" pageHeight="827" math="0" shadow="0">
      <root>
        <mxCell id="0" />
        <mxCell id="1" parent="0" />
        <mxCell id="CibuX7JwkrPW4KWWgDuO-16" value="" style="whiteSpace=wrap;html=1;shape=mxgraph.basic.cloud_rect;fillColor=#ffe6cc;strokeColor=#d79b00;labelBackgroundColor=#FFFFFF;fontColor=#000000;" parent="1" vertex="1">
          <mxGeometry x="360" y="-1070" width="630" height="577" as="geometry" />
        </mxCell>
        <mxCell id="UEzPUAAOIrF-is8g5C7q-125" style="edgeStyle=orthogonalEdgeStyle;rounded=0;orthogonalLoop=1;jettySize=auto;html=1;startArrow=open;startFill=0;endArrow=open;endFill=0;strokeWidth=2;strokeColor=#808080;" parent="1" edge="1">
          <mxGeometry relative="1" as="geometry">
            <Array as="points">
              <mxPoint x="530.5" y="101.5" />
              <mxPoint x="530.5" y="101.5" />
            </Array>
            <mxPoint x="490.5" y="101.5" as="sourcePoint" />
          </mxGeometry>
        </mxCell>
        <mxCell id="CibuX7JwkrPW4KWWgDuO-20" style="rounded=0;orthogonalLoop=1;jettySize=auto;html=1;strokeWidth=6;strokeColor=#7EA6E0;labelBackgroundColor=#FFFFFF;fontColor=#000000;" parent="1" source="UEzPUAAOIrF-is8g5C7q-109" target="CibuX7JwkrPW4KWWgDuO-28" edge="1">
          <mxGeometry relative="1" as="geometry" />
        </mxCell>
        <mxCell id="CibuX7JwkrPW4KWWgDuO-21" style="rounded=0;orthogonalLoop=1;jettySize=auto;html=1;strokeWidth=6;strokeColor=#7EA6E0;labelBackgroundColor=#FFFFFF;fontColor=#000000;" parent="1" source="UEzPUAAOIrF-is8g5C7q-109" target="CibuX7JwkrPW4KWWgDuO-33" edge="1">
          <mxGeometry relative="1" as="geometry">
            <mxPoint x="1039.9999999999998" y="-227.65409777505602" as="sourcePoint" />
            <mxPoint x="986.6528365094473" y="-287.3124201533042" as="targetPoint" />
          </mxGeometry>
        </mxCell>
        <mxCell id="UEzPUAAOIrF-is8g5C7q-109" value="Desenvolvimento Local" style="outlineConnect=0;gradientColor=none;fontColor=#000000;strokeColor=none;fillColor=#879196;dashed=0;verticalLabelPosition=bottom;verticalAlign=top;align=center;html=1;fontSize=27;fontStyle=0;aspect=fixed;shape=mxgraph.aws4.illustration_desktop;pointerEvents=1;labelBackgroundColor=#FFFFFF;" parent="1" vertex="1">
          <mxGeometry x="285.51" y="-419.6" width="417.15" height="379.6" as="geometry" />
        </mxCell>
        <mxCell id="UEzPUAAOIrF-is8g5C7q-113" value="Lambda" style="outlineConnect=0;fontColor=#000000;gradientColor=#F78E04;gradientDirection=north;fillColor=#D05C17;strokeColor=#ffffff;dashed=0;verticalLabelPosition=middle;verticalAlign=middle;align=left;html=1;fontSize=12;fontStyle=0;aspect=fixed;shape=mxgraph.aws4.resourceIcon;resIcon=mxgraph.aws4.lambda;labelBackgroundColor=#FFFFFF;spacingTop=3;labelPosition=right;" parent="1" vertex="1">
          <mxGeometry x="410" y="-748" width="78" height="78" as="geometry" />
        </mxCell>
        <mxCell id="CibuX7JwkrPW4KWWgDuO-49" style="rounded=0;orthogonalLoop=1;jettySize=auto;html=1;strokeColor=#7EA6E0;strokeWidth=6;labelBackgroundColor=#FFFFFF;fontColor=#000000;" parent="1" source="UEzPUAAOIrF-is8g5C7q-114" target="UEzPUAAOIrF-is8g5C7q-113" edge="1">
          <mxGeometry relative="1" as="geometry" />
        </mxCell>
        <mxCell id="CibuX7JwkrPW4KWWgDuO-60" style="rounded=0;orthogonalLoop=1;jettySize=auto;html=1;strokeWidth=6;fillColor=#f8cecc;strokeColor=#b85450;dashed=1;labelBackgroundColor=#FFFFFF;fontColor=#000000;" parent="1" source="UEzPUAAOIrF-is8g5C7q-114" target="UEzPUAAOIrF-is8g5C7q-123" edge="1">
          <mxGeometry relative="1" as="geometry" />
        </mxCell>
        <mxCell id="UEzPUAAOIrF-is8g5C7q-114" value="Amazon API&lt;br&gt;Gateway&lt;br&gt;" style="outlineConnect=0;fontColor=#000000;gradientColor=#945DF2;gradientDirection=north;fillColor=#5A30B5;strokeColor=#ffffff;dashed=0;verticalLabelPosition=middle;verticalAlign=middle;align=left;html=1;fontSize=12;fontStyle=0;aspect=fixed;shape=mxgraph.aws4.resourceIcon;resIcon=mxgraph.aws4.api_gateway;labelBackgroundColor=#FFFFFF;labelPosition=right;" parent="1" vertex="1">
          <mxGeometry x="410" y="-631" width="78" height="78" as="geometry" />
        </mxCell>
        <mxCell id="UEzPUAAOIrF-is8g5C7q-115" value="Lambda&lt;br&gt;function" style="outlineConnect=0;fontColor=#000000;gradientColor=none;fillColor=#D05C17;strokeColor=none;dashed=0;verticalLabelPosition=middle;verticalAlign=middle;align=left;html=1;fontSize=12;fontStyle=0;aspect=fixed;pointerEvents=1;shape=mxgraph.aws4.lambda_function;labelBackgroundColor=#FFFFFF;labelPosition=right;" parent="1" vertex="1">
          <mxGeometry x="410" y="-870" width="78" height="78" as="geometry" />
        </mxCell>
        <mxCell id="CibuX7JwkrPW4KWWgDuO-61" style="edgeStyle=orthogonalEdgeStyle;rounded=0;orthogonalLoop=1;jettySize=auto;html=1;strokeWidth=6;strokeColor=#7EA6E0;labelBackgroundColor=#FFFFFF;fontColor=#000000;" parent="1" source="UEzPUAAOIrF-is8g5C7q-121" target="UEzPUAAOIrF-is8g5C7q-123" edge="1">
          <mxGeometry relative="1" as="geometry" />
        </mxCell>
        <mxCell id="UEzPUAAOIrF-is8g5C7q-121" value="Amazon&lt;br&gt;CloudWatch&lt;br&gt;" style="outlineConnect=0;fontColor=#000000;gradientColor=#F34482;gradientDirection=north;fillColor=#BC1356;strokeColor=#ffffff;dashed=0;verticalLabelPosition=middle;verticalAlign=middle;align=left;html=1;fontSize=12;fontStyle=0;aspect=fixed;shape=mxgraph.aws4.resourceIcon;resIcon=mxgraph.aws4.cloudwatch;labelBackgroundColor=#FFFFFF;labelPosition=right;" parent="1" vertex="1">
          <mxGeometry x="570.0000000000002" y="-631" width="78" height="78" as="geometry" />
        </mxCell>
        <mxCell id="UEzPUAAOIrF-is8g5C7q-122" value="IAM Roles" style="outlineConnect=0;fontColor=#000000;gradientColor=none;fillColor=#C7131F;strokeColor=none;dashed=0;verticalLabelPosition=middle;verticalAlign=middle;align=left;html=1;fontSize=12;fontStyle=0;aspect=fixed;pointerEvents=1;shape=mxgraph.aws4.role;labelBackgroundColor=#FFFFFF;labelPosition=right;" parent="1" vertex="1">
          <mxGeometry x="755.0000000000002" y="-732" width="78" height="44" as="geometry" />
        </mxCell>
        <mxCell id="UEzPUAAOIrF-is8g5C7q-123" value="Amazon&lt;br&gt;CloudWatch Logs&lt;br&gt;" style="outlineConnect=0;fontColor=#000000;gradientColor=none;gradientDirection=north;fillColor=#F34482;strokeColor=none;dashed=0;verticalLabelPosition=middle;verticalAlign=middle;align=left;html=1;fontSize=12;fontStyle=0;aspect=fixed;shape=mxgraph.aws4.cloudwatch;labelBackgroundColor=#FFFFFF;labelPosition=right;" parent="1" vertex="1">
          <mxGeometry x="570.0000000000002" y="-749" width="78" height="78" as="geometry" />
        </mxCell>
        <mxCell id="cZuDhUX1Navy96NufW1f-6" value="RDS" style="outlineConnect=0;dashed=0;verticalLabelPosition=middle;verticalAlign=middle;align=left;html=1;shape=mxgraph.aws3.rds;fillColor=#2E73B8;gradientColor=none;labelBackgroundColor=#FFFFFF;fontColor=#000000;labelPosition=right;" parent="1" vertex="1">
          <mxGeometry x="410" y="-988" width="72" height="81" as="geometry" />
        </mxCell>
        <mxCell id="CibuX7JwkrPW4KWWgDuO-22" value="Amazon Web Services" style="outlineConnect=0;dashed=0;verticalLabelPosition=bottom;verticalAlign=top;align=center;html=1;shape=mxgraph.aws3.cloud_2;fillColor=#F58534;gradientColor=none;labelBackgroundColor=#FFFFFF;fontColor=#000000;" parent="1" vertex="1">
          <mxGeometry x="710" y="-1020" width="235" height="235" as="geometry" />
        </mxCell>
        <mxCell id="CibuX7JwkrPW4KWWgDuO-25" style="rounded=0;orthogonalLoop=1;jettySize=auto;html=1;strokeWidth=6;labelBackgroundColor=#FFFFFF;fontColor=#000000;" parent="1" source="CibuX7JwkrPW4KWWgDuO-23" target="CibuX7JwkrPW4KWWgDuO-33" edge="1">
          <mxGeometry relative="1" as="geometry">
            <mxPoint x="476.49999611084104" y="-687.9411764705883" as="targetPoint" />
          </mxGeometry>
        </mxCell>
        <mxCell id="CibuX7JwkrPW4KWWgDuO-23" value="Usuários finais&lt;br&gt;" style="outlineConnect=0;dashed=0;verticalLabelPosition=bottom;verticalAlign=top;align=center;html=1;shape=mxgraph.aws3.management_console;fillColor=#D2D3D3;gradientColor=none;labelBackgroundColor=#FFFFFF;fontColor=#000000;" parent="1" vertex="1">
          <mxGeometry x="128.5" y="-950" width="63" height="63" as="geometry" />
        </mxCell>
        <mxCell id="CibuX7JwkrPW4KWWgDuO-38" style="rounded=0;orthogonalLoop=1;jettySize=auto;html=1;startArrow=classic;startFill=1;strokeWidth=2;labelBackgroundColor=#FFFFFF;fontColor=#000000;" parent="1" source="CibuX7JwkrPW4KWWgDuO-34" target="CibuX7JwkrPW4KWWgDuO-35" edge="1">
          <mxGeometry relative="1" as="geometry" />
        </mxCell>
        <mxCell id="CibuX7JwkrPW4KWWgDuO-34" value="Aplicação executando" style="shape=image;verticalLabelPosition=middle;labelBackgroundColor=#FFFFFF;verticalAlign=middle;aspect=fixed;imageAspect=0;image=data:image/png,iVBORw0KGgoAAAANSUhEUgAAAgAAAAIACAYAAAD0eNT6AAAACXBIWXMAAAsTAAALEwEAmpwYAAAgAElEQVR4nO2dC5hkZXnnz4DAAAI9wCAmivdbokRohLGn61SdquqmMWMWjO31idmYNU8Ss4+JG5OsuWhUzHVjEDfe4ibLqlFDvIRcFNRkE90kYnQ1+Gg0ooKIEgEVr1xm9/2GqrGmp7urqrvO+b/f9/3qeX5PCzK/Puc97/t9/+6pOqfo9ztHG0cZxVZe4c8N/vzRIxz0tdvt+1RV9bSyLF/S6XT+1P75I8Zn7X/fYl/vtK//DwAAQMAdxi3GZ4wP2570Zvv6IuPJrVbr3uP2t1nvl437Zv3NFxbOPbqqOqUV8JXGJx1cYAAAgK3wceMV9gNsS75Z1+Gb1Tfv9bqnW6FeaFzr4KIBAADMkk+22+3/asxtd790sflv9TX6zTud9n2tIC+z4tzm4AIBAADURlmWXzUuNk6ddr9MZvPvdtvHWTGea5v/V9UXBAAAoGFuNZ6zurp6ZFObtZPNv5oPb+ZzcAEAAABk2F74j71e76F1b9Z1+Kb+5lXVeaad8DfURQcAAHBC+Cvwp9e5Wdfhm/g/rqr2sXaCf+yg0AAAAO6wH44v2b37lCNi2PyDZ6L/eHm5f087sbepiwsAAOCct9kPzCd63/zHBoDwH19wwfkn2Qn9vYOiAgAAuMd+YH7Xvn2Pu6fnzX/TADDY/HfaybxdXUwAAIDIePtFF1244ScE1Jv/hu8BGP7HnU77fzooIgAAQHS02+3f97r5r+v77ubf+Wl18QAAACLn6YfvtI43/7Isz7aD/qaDwgEAAMTMbbanPjyKzT/c4a/dbn/UQdEAAACix/bU99k2u8P15t8/cG//zi+oiwUAAJASVVU90/Xm3+v17mcH+jV1oQAAABLj3xcXF3e52fwHf+Dgf2wHeImDIgEAACRHu91+oZvNf/CHjr77p//u6R0e6QsAAFALFgC+0u/3T3Kx+Y8GADuwF6mLAwAAkDj/xcXmPwwACwvnhl//X+ugMAAAAMliP2x/zMXmPxCEz/1X6qIAAADkQLdbnSff/IcSSySvVhcEAAAgE35XvvkPXxYAPu2gIAAAAMlje+6HXGz+/X7/DHUxAAAAcsECwF1lWZ4q3fzDyw7m6epiAAAA5ERVVT+k3PwP/DlLIRerCwEAAJAT7Xb7l5Sbf/jz4e//L1cXAgAAIDP+SLn5B08IAB9xUAgAAIBsGDwhULb5HwgAdiDXqQsBAACQE2VZfky5+Q8DwK3qQgAAAGTGdcrN/8B7AOwg7nBQCAAAgJy4Vbn5H/A5KAIAAEBWtNvtr0s3//BSFwEAACA31gaAxjd/AgAAAEDzjAYAyeZPAAAAAGieYQCQbf4EAAAAgOYJAUC6+RMAAAAAmmcQAHSbPwEAAACgeQYBQLf5EwAAAACaZ00AaH7zJwAAAAA0z0gA0Gz+BAAAAIDmGXkPgGbzJwAAAAA0z/BTALLNnwAAAADQPOvdCrjRzZ8AAAAA0DxbCQCzvm9AoS4CAABAbkwbAOq4aVChLgIAAEBuTBMA6rpjYKEuAgAAQG5MGgDqvF1woS4CAABAbkwSAOp+VkChLgIAAEBujAsAdW/+BAAAAAABmwWAJjZ/3gMAAAAgYKMA0NTmz6cAAAAABKwXABrd/MNLXQQAAIDcWBsAGt/8CQAAAADNMxoAJJs/AQAAAKB5hgFAtvkTAAAAAJpn+DRA2eZPAAAAAGieQQDQbf4EAAAAgOYZBADd5k8AAAAAaJ41AaD5zZ8AAAAA0DwjAUCz+RMAAAAAmmfkPQCazZ8AAAAA0DzDTwHINn8CAAAAQPNM8jjgWjd/AgAAAEDzbCUAzPq+AYW6CAAAALkxbQCo46ZBhboIAAAAuTFNAKjrjoGFuggAAAC5MWkAqPN2wYW6CAAAALkxSQCo+1kBhboIAAAAuTEuANS9+RMAAAAABGwWAJrY/HkPAAAAgICNAkBTmz+fAgAAABCwXgBodPMPL3URAAAAcmNtAGh88ycAAAAANM9oAJBs/gQAAACA5hkGANnmTwAAAABonuHTAGWbPwEAAACgeQYBQLf5EwAAAACaZxAAdJs/AQAAAKB51gSA5jd/AgAAAEDzjAQAzeZPAAAAAGiekfcAaDZ/AgAAAEDzDD8FINv8CQAAAADNM8njgGvd/AkAAAAAzbOVADDr+wYU6iIAAADkxrQBoI6bBhXqIgAAAOTGNAGgrjsGFuoiAAAA5MakAaDO2wUX6iIAAADkxiQBoO5nBRTqIgAAAOTGuABQ9+ZPAAAAABCwWQBoYvPnPQAAAAACNgoATW3+fAoAAABAwHoBoNHNP7zURQAAAMiNtQGg8c2fAAAAANA8owFAsvkTAAAAAJpnGABkm7+HALC0tHT8zE5m1sXBhw8fPnzJ+tQBQF4/zwFAXhx8+PDhw5esz0EA0NbPawBIobnw4cOHD59fn4MAoK2fxwCQSnPhw4cPHz6/PkcBQFM/bwEgpebChw8fPnx+fU4CgK5+ngKAuhnw4cOHD18+PgcBQFs/LwHAQzPgw4cPH758fA4CQKPn66oAwwDgpRnw4cOHD18+PnUAaPp8XRUg0O/3j/fSDPjw4cOHLx9fbAFg1vVzEAB6c16aAR8+fPjw5eOLKQDUUT8PAWCXl2bAhw8fPnz5+GIJAHXVz1MAkDcDPnz48OHLxxdDAKizfl4CgItmwIcPHz58+fi8B4C66+chAMx5aQZ8+PDhw5ePz3MAaKJ+DgJAf9OnASqLgw8fPnz40vV5DQBN1U8eAMY9DlhZHHz48OHDl67PYwBotH6xBYCYmgsfPnz48Pn1eQsAjdcvpgAQW3Phw4cPHz6/Pk8BQFK/WAJAjM2FDx8+fPj8+rwEAFn9YggAsTYXPnz48OHz6/MQAKT18x4AYm4ufPjw4cPn16cOAPL6eQ4A8uLgw4cPH75kfQ4CgLZ+XgNACs2FDx8+fPj8+hwEAG39PAaAVJoLHz58+PD59TkKAJr6eQsAKTUXPnz48OHz63MSAHT18xQA1M2ADx8+fPjy8TkIANr6eQkAHpoBHz58+PDl43MQABo9X1cFGAYAL82ADx8+fPjy8akDQNPn66oAgfA0QC/NgA8fPnz48vHFFgBmXT8HAaA356UZ8OHDhw9fPr6YAkAd9fMQAHZ5aQZ8+PDhw5ePL5YAUFf9PAUAeTPgw4cPH758fDEEgDrr5yUAuGgGfPjw4cOXj897AKi7fh4CwJyXZsCHDx8+fPn4PAeAJurnIAD0xz4OWFUcfPjw4cOXrs9rAGiqfvIAMO5xwMri4MOHDx++dH0eA0Cj9YstAMTUXPjw4cOHz6/PWwBovH4xBYDYmgsfPnz48Pn1eQoAkvrFEgBibC58+PDhw+fX5yUAyOoXQwCItbnw4cOHD59fn4cAIK2f9wAQc3Phw4cPHz6/PnUAkNfPcwCQFwcfPnz48CXrcxAAtPXzGgBSaC58+PDhw+fX5yAAaOvnMQCk0lz48OHDh8+vz1EA0NTPWwBIqbnw4cOHD59fn5MAoKufpwCgbgZ8+PDhw5ePz0EA0NbPSwDw0Az48OHDhy8fn4MA0Oj5uirAMAB4aQZ8+PDhw5ePTx0Amj5fVwUIhKcBemkGfPjw4cOXjy+2ADDr+jkIAL05L82ADx8+fPjy8cUUAOqon4cAsMtLM+DDhw8fvnx8sQSAuurnKQDImwEfPnz48OXjiyEA1Fk/LwHARTPgw4cPH758fN4DQN318xAA5rw0Az58+PDhy8fnOQA0UT8HAaA/9nHAquLgw4cPH750fV4DQFP1kweAcY8DVhYHHz58+PCl6/MYABqtX2wBIKbmwocPHz58fn3eAkDj9YspAMTWXPjw4cOHz6/PUwCQ1C+WABBjc+HDhw8fPr8+LwFAVr8YAkCszYUPHz58+Pz6PAQAaf28B4CYmwsfPnz48Pn1qQOAvH6eA4C8OPjw4cOHL1mfgwCgrZ/XAJBCc+HDhw8fPr8+BwFAWz+PASCV5sKHDx8+fH59jgKApn7eAkBKzYUPHz58+Pz6nAQAXf08BQB1M+DDhw8fvnx8DgKAtn5eAoCHZsCHDx8+fPn4HASARs/XVQGGAcBLM+DDhw8fvnx86gDQ9Pm6KkAgPA3QSzPgw4cPH758fLEFgFnXz0EA6M15aQZ8+PDhw5ePL6YAUEf9PASAXV6aAR8+fPjw5eOLJQDUVT9PAUDeDPjw4cOHLx9fDAGgzvp5CQAumgEfPnz48OXj8x4A6q6fhwAw56UZ8OHDhw9fPj7PAaCJ+jkIAP2xjwNWFQcfPnz48KXr8xoAmqqfPACMexywsjj48OHDhy9dn8cA0Gj9YgsAMTUXPnz48OHz6/MWABqvX0wBILbmwocPHz58fn2eAoCkfrEEgBibCx8+fPjw+fV5CQCy+sUQAGJtLnz48OHD59fnIQBI6+c9AMTcXPjw4cOHz69PHQDk9fMcAOTFwYcPHz58yfocBABt/bwGgBSaCx8+fPjw+fU5CADa+nkMAKk0Fz58+PDh8+tzFAA09fMWAFJqLnz48OHD59fnJADo6ucpAKibAR8+fPjw5eNzEAC09fMSADw0Az58+PDhy8fnIAA0er6uCjAMAF6aAR8+fPjw5eNTB4Cmz9dVAQLhaYBemgEfPnz48OXjiy0AzLp+DgJAb85LM+DDhw8fvnx8MQWAOurnIQDs8tIM+PDhw4cvH18sAaCu+nkKAPJmwIcPHz58+fhiCAB11s9LAHDRDPjw4cOHLx+f9wBQd/08BIA5L82ADx8+fPjy8XkOAE3Uz0EA6I99HLCqOPjw4cOHL12f1wDQVP3kAWDc44CVxcGHDx8+fOn6PAaARusXWwCIqbnw4cOHD59fn7cA0Hj9YgoAsTUXPnz48OHz6/MUACT1iyUAxNhc+PDhw4fPr89LAJDVL4YAEGtz4cOHDx8+vz4PAUBaP+8BIObmwocPHz58fn3qACCvn+cAIC8OPnz48OFL1ucgAGjr5zUApNBc+PDhw4fPr89BANDWz2MASKW58OHDhw+fX5+jAKCpn7cAkFJz4cOHDx8+vz4nAUBXP08BQN0M+PDhw4cvH5+DAKCtn5cA4KEZ8OHDhw9fPj4HAaDR83VVgGEA8NIM+PDhw4cvH586ADR9vq4KEAhPA/TSDPjw4cOHLx9fbAFg1vVzEAB6c16aAR8+fPjw5eOLKQDUUT8PAWCXl2bAhw8fPnz5+GIJAHXVz1MAkDcDPnz48OHLxxdDAKizfl4CgItmwIcPHz58+fi8B4C66+chAMx5aQZ8+PDhw5ePz3MAaKJ+DgJAf+zjgFXFwYcPHz586fq8BoCm6icPAOMeB6wsDj58+PDhS9fnMQA0Wr/YAkBMzYUPHz58+Pz6vAWAxusXUwCIrbnw4cOHD59fn6cAIKlfLAEgxubChw8fPnx+fV4CgKx+MQSAWJsLHz58+PD59XkIANL6eQ8AMTcXPnz48OHz61MHAHn9PAcAeXHw4cOHD1+yPgcBQFs/rwEghebChw8fPnx+fQ4CgLZ+HgNAKs2FDx8+fPj8+hwFAE39vAWAlJoLHz58+PD59TkJALr6eQoA6mbAhw8fPnz5+BwEAG39vAQAD82ADx8+fPjy8TkIAI2er6sCDAOAl2bAhw8fPnz5+NQBoOnzdVWAQHgaoJdmwIcPH76mfCsrKyd2u9WZthFc2Om0f9zWw+fZ19+yr68z3mr//n8b1xifDti/u2XAbeuspbcN///hf298zPg7+3dvM15TluXF9vW5xo/av9/X7XbPDMcQa/3wbd/nIAD05rwWBx8+fPi249u7d+9u22z7xs8Yv2tcbnzQuFm99o78JPrlwTFdbv/8O8azjd7i4uJudf3w1evzEAB2eS0OPnz48E3im5+fP8p+wj6rqqpnDDbRK40b1evrDLjRgkE4l/9WVZ0fC+cYztX79cA3mc9TAHBXHHz48OFbz9dq7T158JP9C20du8r4pnotbZDbB78xuMRYtVBwqvp64Nuaz0sAcFkcfPjw4Qt/vtfrnm6b3Y/YmvW68Hfr9nW/eu10xH4LAaEmrzGevLy8fHJs1zdXn4cAMOe1OPjw4cvWd0RVdeZtjXq+8W7jdvVaGQsWkO4a/IbgN43OOeectdPh9cXnIwD0xz4OWFUcfPjw5eOzzWqn/SR7ka1L/8u4Sb02poLV9Uv29fX29YdDjVXXF9/hPnkAGPc4YGVx8OHDl7ZvZWXlmFar9Xhbiy6zzf+r6vUwdSwAfMO+XhHeOxBqH1u/JOdTN8S0ASDqYuPDh0/uW11dPdI2oBXb8P/Yvn5FvQZmzK3GHxnn22U5wmu/JO1TN8E0ASD6YuPDh0/m6/f732Nrzi8an1Gve3AoFsQ+P3jPwP299EsWPvWFnzQAJFFsfPjwNe07Inxcz9aatxh3qNc72JzwBkL7elX4K4LFxccel0D/+fapL/gkASCZYuPDh68RX7gDn60vv2Z8Qb3GwdawEHDD3fdZaN87tv6Lxqe+yOMCQFLFxocPX62+qqoeNLhBzTfUaxvMBruW37avl7VarUd477/ofOqLu1kAkBcHHz58Ufhs4w+f2b/MNos71Wsa1MPgrwfCJwj63vovWp/6om4UAFwUBx8+fK59ZVku2TryD+p1DJrFQsD77WtP3X/R+9QXcr0A4KY4+PDhc+mztcP2gPZ71OsXaLEeeF9VVd3Y+1nmU1/AtQHAVXHw4cPnymcL/qKtG3+hXrfAF4MgUMbWz3Kf+sKNBgB3xcGHD58LX1mWZ9oi/5fq9Qrcc0VVdR7pvZ/d+NQXbBgAXBYHHz58Ul9Ztk6zjf+3je+o1yqIhvC44tcOPj7oqp/d+dQXKwQAt8XBhw+fxFdV7WPtJ7mfGjxIRr2hQIRY79xsX59jX++h7me3PvVFCk8DdFscfPjwNe4L9+k3PqZemyANrJc+UpZlpepnz75CfXH6/d6c1+Lgw4evOd/i4uKuu391q980IEneYkHg1Fjnow5fob4oFgB2eS0OPnz4mvGFe7/benCTej2CtAl/pVRV1TNim4+6fIX6gowEAHfFwYcPX72+wRP63qpehyAvwidKrPfO8D4fdfsK9YUYBACXxcGHD19tvh02/z9tfE29BkGelGX5VQsCP7mwcO7RDuejEV+hvgiD9wC4LA4+fPhm71taWjrNZv8K9doDELAQcGVZts7wMh9N+gp18cOnALwWBx8+fLP1VVW13OERveCM8N4A40L1fDTtK9SFH/c4YGVx8OHDNxufLa47w2N6beb3q9ccgA3Ybz366n379h3X9HzIfOqiTxsAoi42PnwZ+sqyfJTB5/ohFv6lqqrvj3XepvKpiz1NAIi+2PjwZeazn6ieanxdvc4ATMltxpNjm7epfepCTxoAkig2PnyZ+MLtV43fVK8vANsh/JXA/Pz8Ud7nbcs+dYEnCQDJFBsfvgx8e/fu3W0L53vUawvAjPg76+fTvc7btnzq4o4LAEkVGx++xH1VVS3YYnmDel0BmDHXG+d5m7dt+9SF3SwAyIuDDx++aX7t/0Sb6W+q1xSAOrD+/nZVdX7Ey7zNxKcu6kYBwEVx8OHDN9Gf79z92NW71OsJQM2Ejwq+WD1vM/OpC7peAHBTHHz48G36Cm/2szl+pXodAWgS6/s/esxjzjnszYF1z9vMfepCrg0AroqDDx++DV+2CN4zPFRFvYYAiLiy3++fFOv8HnipizgaANwVBx8+fOu+Wq3WvW1+P6pePwDEfLjb7d4rtvk9+FIXcBgAXBYHHz586/zZ/hk2u59Urx0AHmi325+wQHzfWOb3kJe6eCEAuC0OPnz4DnnZQvcAW/A+rV43ADxhM/FZ48He5/ewl7pw4WmAbouDDx++g6+yLB9ui9zn1WsGgFNuDM+98Dq/677URev3e3Nei4MPH767X7awnWXzepN6vQDwjAXkm21WHuNtfjfyFeqCWQDY5bU4+PDhO7j536peKwAi4RYLAo/2Mr+b+Qp1sUYCgLvi4MOXu6+qqofZYvZF9ToBEBk3dbvVD6jnd5yvUBdqEABcFgcfvpx9tvk/iPv6A2yN8H6ZXq/7MM/rQaEu0uA9AC6Lgw9frj5bvO5j83mten0AiBmbo89VVed+Tc/vpL5CXaDwKQCvxcGHL0ff0tLSaTabH1evDQCJ8MnRxwl7Wg8KdXHGPQ5YWRx8+HLzraysnGiL1UfU6wJAYnx4YWHhBHfrgbow0wYAT4slPnwp+ebn548qy/Jd6jUBIFH+Ojw8y9V6oC7KNAHA02KJD19qPpvHP1CvBwCJ81pX64G6IJMGAG+LJT58KflsFp+vXgsAcqDdbj/PzXqgLsYkAcDbYokPX0q+qqqeZIvSXeq1ACAT9tvMPc3FeqAuxrgA4G2xxIcvJV9Zlo+1zf/b6nUAIDO+1e12z5WvB+pCbBYA5MXBhy9hX3iOOQ/3AZBxXb/f+17peqAuwkYBwNtiiQ9fSr7wbmTjb9XzD5A5f9Ptto+TrQfqAqwXALwtlvjwpeaz2XuZevYB4AC/K1sP1Ce/NgB4XCzx4UvJZz/5P0U99wBwkP1V1XmSZD1Qn/xoAPC4WOLDl5LPNv9HGl9Xzz0AHMLXWq3WI5peDwr1iQ8DgMfFEh++lHy28e+0mfuoeuYB4HBsPq/Zs2fPsY2uL+qTDgHA42KJD19qPpu3S9XzDgCb8nuNri/qEw5PA/S4WOLDl5LPZu18Y7963gFgU8JNgh7X1PpSqE+43+/NeVss8eFLybd3797dNms3qmcdAMbTbre/FO7R0cT6UqhP1gLALk+LJT58ifl22Jz9uXrOAWAq/irMbt3rS6E+0ZEA4GGxxIcvKZ/9NPGT6hkHgOmx2X1W3etLoT7JQQBwsVjiw5eSr9Vq3dcWka+qZzxWrHafM15h//sZ9rVfluVCp9P+wRCqjFfbv/+U+hghXazHvtLr9b6nzvWlUJ/k4D0AMzkZT4svPnxqX4df/W914f288dRwu+Rx18NCwVn2Z17OvRWgJt5e5/pSqE8wfApgVifjafHFh0/p425/W8Pq9k5jbtrrsby8fLKFgZeY41vqc4DkeHJd60uhPrlxjwOe5mS8LL748Cl9vV73FNvEvqie7Qj565WVlWO2cz2s7vc3z1sdnAukwxfKsnVaLeuL+uSmDQDeF198+NQ+24QuU891hFy7uLi4a1bXoyzLi8LC7eC8IA1eu9X1YNN+Vp/YNAEghsUXHz6lzzaepQ43/JmaVqv1+Flfj/BXCeZ+HdcDZsB+m+3WtOvB2H5Wn9ikASCGxRcfPqXvggvO32mbDvf6nxKr2fvrvL7hEwQdPjEA28T66J+ttY6Ytv827Wf1SU0SAGJYfPHhU/tsgfgZ9TxHytPrvr5V1T7Brs8Lje84OF+Ilx/fSv9t2M/qExoXAGJZfPHhU/o6nXa43e9N6nmOjfDxvcXFvSc2dX3DxwbDT3Lq84Y4CW/uXVlZOXGr/XfYS31CmwWAWBZffPjUPpulS9SzHClXNX19w/0F7Ps+h3sHwFawvvmt7fTfIS/1yWwUAGJafPHhU/qqqvNIm6Xb1bMcKb+uur62kD/Yvv97HdQAIsL65ttVVT1ou/134KU+mfUCQEyLLz58ap8tCNzxb4tYeHqa+PrusOv3n+xYblXXAuLBeubymfSf+kTWBoDYFl98+JS+brfa2+FjZlvGAsAeD9e31WrdOyzq6npANOzvdrtnb7v/1CcyGgBiW3zx4VP7bNO4Uj3DMdPv9x7k6fqWZXmhHdf16rpAFFyx7f5Tn8QwAMS4+OLDp/TZ/LTV8xs7FqBO9Xd9u7vtuC417lLXB3xjPbK4rf5Tn0AIADEuvvjwqX0d3kA2iwX0nl6vrx2bHWLnk+oagV/CbwC31X/qEwhPA4xx8cWHT+mrqk5XPbspsG/fvuM8Xt+hzxb4ndxACMbQ22r/FeqD7/d7c7EtvvjwqX02O3+vnt0UiOVZJNxACDbhvVvtv0J98BYAdsW2+OLDp/RVVbWgnttUmPQ3AB76hRsIwSact5X+K9QHPhIAolh88eFT+2wD+DP13KbCJAHAW7/0er0H2rFfpa4d+MHWhDdtpf8K9YEPAkA0iy8+fEpfq9V6gA37neq5TYVxAcBxv+yoquoZ1gtfVtcQ9IQ1Ye3dASfpv0J94IP3AGxlljwPJz58tfhs0F+hntmU2CwAxNAv3W51HzuP16vrCHpsbfj9afuvUB90+BSAl2HCh8+zb3l5+WT+/ne2bBQAYusX6wtuIJQ5YW3o9XqnTNN/hfqgp3kXblPDhA+fR5/Nyy+r5zU11gsAsfaLbQBzdk6v6XBr6GyxHvilqfpPfcDTBoBYhxMfvu34VldXj7Th/px6XlNjbQBIoV/C3eHs3D6uri1IuC6sFRP3i/qAY/kcLj58Sp8t6vvUs5oiowEgsX7hBkKZYtd8ZeJ+UR/spAEgpeHEh29anw31O9SzmiLDAKC+vnX5ut3umXaeH1DXGZojfEx44n5RH+wkAcDLMOHDp/CFR8XarNyuntUU2bNnz7Hq61u3b3gDIeM2db2hEe4oy9YZE/WL+mDHBQBvw4QPX9M+W8B/RT2nqfLYxx4IAEn1y0YvbiCUFc+fqF/UB7pZAPA8TPjwNeTbYQHg39RzmiqLi3tPTKxfxvqsn57KDYTSxq7vpxcWzjtmbL+oD3SjABDLMOHDV6fPBrmvntGUWVk5fy6lfpnUF35FzC2lk2f8UwLVB7leAIhtmPDhq8tXluXr1DOaMq3W3pNS6pdpfYNPl1ynvg5QC68c2xzqg1wbAGIeJnz4Zumbn58Pv669WT2jKTMIAEn0y1Z9/X7/JOuzS4y71NcDZsq/hzeAbtog6oMcDQApDBM+fLPyVVX1OPV8ps7gPQCS6+vNxw2E0qMsy6VNm0R9gMMAoG5+fPi8+Wx4/1g9n6kTPgWgur4efdxAKDleu+kFVx9gCABemh8fPi++1dXVo20+blHPZ+qE++qzEm4AAB0dSURBVAAorq93HzcQSoZbwlqy4YVWH2B4GqC35seHT+2rquqH1LOZA9MGAK/9UoePGwilQVmWF2x4kdUH1+/35jw2Pz58Sp/Nxv9Qz2YOTBMAPPdLnb6q6jzcwsB71dcKtsxrNrq+hfrgLADs8tz8+PAJfOHmPzeoZzMHwt95C65vlD6r1VO4gVCUXG+XdMd617dQH9xIAHDd/PjwNeUry/Is9VzmwiQBwHu/NOnrdrv3srpdpr5uMHWfP3K961uoD2wQAKJofnz4mvDZXHDv/+YWxk0DQAz9ovBxA6G4sOv1vPWub6E+sMF7AKJqfnz46vTZXLxPPZe5sFkAiKVfVD5uIBQPdo3es971LdQHFj4FEGPz48NXj6+7u8Ojf5tcGNcNAPH0i97HDYT8E+7r0GrtPXnt9S3UBzbuccCzblZ8+Dz7wpPa1DOZE+sFgJj6xYuPGwjFQPuHD7u+6oOaNgB4bH58+Gbls5l4tXomc2JtAIitX7z5ut0q3EDoavV1hXV7/dLDrq/6oKYJAN6bHx++7fpsJv5FPZM5MRoAYuwXj75ut32c1fa5HW4g5Arr9X8+7PqqD2rSABBL8+PDt1Xf8vLSKTakd6pnMieGASDGfvHuK8vWQzqd9pXqawwHe/3OhYWFEw65cOqDmiQAxNj8+PBN67MBXVHPY26EABBrv8TisxqvcgMhN/QOuXjqAxoXAGJvfnz4JvXZPLxIPY+5MQgAUfZLTD5uIOSGXzvkwqgPaLMAkErz48M3iS98Vlc9j7lRVe0TYu2XGH3cQEhLWZbvOuSCqA9oowDgoVnx4Wtw8w9PXuNNUw2zvNw/IcZ+idnHDYSkfG11dfXIgxdDfUDrBQBPzYoPXxO+cK9u9SzmyEgAiKpfUvBxAyENrVbrEQcvgvpg1gYAr82KD1+dvqqqnqaexRwZBIDo+iUV3+AGQi/iBkKN8uSDF0B9MKMBwHuz4sNXl89m4TfUs5gjFgDuGWO/pObrdqt5CwEfUPdDDpRl+ZKDF0F9MMMAEFOz4sM3a58tfn+pnsUcOf/884+JsV9S9FVV+1i7Js/p8F6YuvnzgxdCfTAhAMTYrPjwzdJns3C9ehZzZGVlZeoA4KFfUva1Wq0H2LXhBkL18ZmDF0N9MOFpgDE3Kz582/UtLi7uUs9hrkwbADz0Sy4+biBUG/utrnMHiqw+mH6/N5dCs+LDt1WfzUFbPYe5Mk0A8NIvOfm4gVBt7D1Qd/WBWADYlUqz4sO3FV9VVT+hnsNcmTQAeOqXHH12rf6D/dR6g7pfEuLHQ/0L9YGMBIBkmhUfvikXNz4BIGKSAOCtX3L1cQOhmXJxuA6F+kAGAUDeXPjwqXw2B3+insNcGRcAPPZL7j4LAHbpOp9Q907kvMFLAJjz1Fz48DXtszn4B/Uc5spmAcBrv+A78JHBEy0IvJgbCG0Nq9v7nQSA/tjHATfdXPjwNemzYfyieg5zZXV19ejY+gXfd33dbnWmzc8/qfsoNsL7Kfoe3gMw7nHAyubCh69u3549e8LNT/ar5zBX1gsAnvsF37q+IwZvpOUGQpMTPgq4s1AfyLQBIIFmxYfv4Kssy0eoZzBn1gYA7/2Cb2MfNxCajl6v99BCfRDTBICUmhUfvvDnqqrzOPUM5szoewBi6Bd8Y3077CfbH7Nre4u6t7xjdeoX6oOYNAA4aS58+GbqswDwDPUM5swwAMTSL/gm89nmdrpd3yvU/eUZq9FTCvVBTBIAvDUXPnyz8tkQ/qx6BnMmBICY+gXfVK/w24Cfsuv8LXWfOeXZhfogxgUAx82FD9+2fTYDF6tnMGee8IQnHB1Tv+Cb3mchYNGu9U3qXnPICwr1QWwWAGJoLnz4tuOzxekP1DOYM/v2Pe74mPoF39Z8NmeP4uO2h/HyQn0QGwWAmJoLH76t+mxRerN6BnPGAsA9Y+oXfFv3lWV5Voc3B47yxkJ9EOsFgBibCx++rfgsALxbPYM5MxIAougXfNvzWQi4UN1zXrBavKtQH8TaABBzc+HDN63PZuBD6hnMmUEAiKZf8G3fZ6H71eq+84DV4YOF+iBGA0AKzYUP3zQ+m4GPq2cwZwbvAYimX/Bt37e4uLjLNr+b1b2nxmpwTaE+iGEASKW58OGbxmdD+G/qGcyZ8CmAmPoF32x8Nne/qu49B3yqUB9ECADqZsCHT+WzGbhePYM5Mz8/f1RM/YJvNr5+v/89FgLuVPefEjv/zxXqgwhPA1Q3Az58Kp8N4ZfUM5gzGz0N0Gu/4Judz67/36j7T0n4WGShPoh+vzfnoRnw4VP4bAi/op7BnJnmNwAe+gXf7Hx2/V+s7j8xtxTqg7AAsMtDM+DDp/DZDHxTPYM5M+lvALz0C77Z+cK98NX9p8TO/xuF+iBGAkBSzYUP3yS+3P8eUs0kvwHw1C/4ZucLT8NT95+SsPYU6oMYBAB5M+DDp/ARALSMCwDe+gXf7Hy5BwDjjkJ9EIP3AMibAR8+hS/8Gk49gzmzWQDw2C/4Zuerqs6T1P2nxMlfAfTHPg64iWbAh0/h402AWjYKAF77Bd/sfDZ7vAlQfRDjHgfcVDPgw6fw8TFALesFAM/9gm92Ppu996j7T4mLjwFOGwBiaS58+CZ5dbgRkJS1AcB7v+Cbja/bre5j1/92df8pcXEjoGkCQCzNhQ/fpD5uBaxlNADE0C/4ZuOza/98de85wMetgNXNgA+fytfhYUBSLIDdI6Z+wbd9X6fT3m3X/cvq3lPj6mFAqmbAh0/psyHkccBCwm8AYuoXfNv32cxdqu47J1xdqA9iXACIrbnw4ZvGZzPwbvUM5kz4DUBM/YJvez673vvsuu9X950HrBbvLNQHsVkAiK258OGb1mcz8Cb1DObM4uJjj4upX/Bt3VdVnUfbpnezuue8YLV4Q6E+iI0CQGzNhQ/fVnw2hK9Qz2DOLC4uHB9Tv+Dbmq8sWw/t8Imbtby8UB/EegEgtubCh2+rPgsAL1TPYM50u+3jYuoXfNP7ut1q3ubs8+pe84bV5FcL9UGsDQCxNRc+fNvx2RD+Z/UM5swgAETTL/im89l8/Ufj6+o+c8qzC/VBjAaA2JoLH77t+mxxeqp6BnOmqtrHxtQv+CbzhY/6dXh/zTieXKgPYhgAYmoufPhm5SvLckk9gzkzvA9ALP2Cb7xv8JCfL6h7KwJ6hfogQgCIqbnw4ZulzwLAw9UzmDNbCQAp9V9KPvup/752TS9X91Qs2NrzkEJ9EOFpgDE0Fz58dfhsA9rZ4XPJMqYNAOp+wXe4b2Hh3PBT/zO5u99UfX/XysrKMYX6QPr93pzn5sKHr26fzcGN6jnMldXV1SNj6xd83/X1et3w8T5upjU91x+ou/pALADs8tpc+PA14bM5+D/qOcyVSQOAp37Bd+A3Z/ew6/dc3uG/Zf4+1L9QH8hIAHDTXPjwNemzOXijeg5zZZIA4K1fcvd1u9WZdu2uVvdO5Lw+XIdCfSCDAOCmufDha9pXluXF6jnMlXEBwGO/5Orbs2fPseHGWcZ31H2TABd7CQBzHpoLHz6Vzxa0Z6nnMFc2exOg137J0Wchuep02p9S90sqVFXnWU4CQH/s44Drbi58+JQ+W9xa6jnMlY1+A+C5X3Ly2f5wkoW0S8K71tW9khJhzel7eA/AuMcB19lc+PD58PVO6vBRQAnrBQD//ZKHr9VqPb7DA3zqYP/y8tIpB66H+mCmDQBemxUfvu347Cecz6pnMUfWBoBY+iVln83C6XZt3qLujVSx+n764PVQH8w0AcBjs+LDNwufzcIV6lnMkdEAEFO/JOrbUVXVM7ihT+287WDF1QczaQBw2Kz48M3MZ4veb6hnMUeGASC2fknN1+v1HmjX4yp1P+SArTW/frDw6oOZJAB4a1Z8+Gbts1l4mnoWcyQEgBj7JRXf4IY+z+GGPs1htX7iwQugPphxAcBTs+LDV5ev262+Tz2LOXLRRRceGWO/pODrdrvhhj4fUPdAbvR6vYcevAjqg9ksAHhqVnz46vSFn0QtmX9FPY+5cfbZP3BMjP0Ss48b+ugIa8whb3xVH9BGAcBLs+LD15TP5uFK9TzmxjnnnLUz1n6J0Te458XH1dc9Y/7qkAuiPqD1AoCXZsWHr0mfzcML1POYGyMBILp+icnHDX3c8MuHXBj1Aa0NAB6aFR8+hc8Wx756HnNjEACi7JdYfNzQxw+2xhx6odQHNBoAPDQrPnwqnw3nPW0m7lDPZE4M3gMQZb949w1u6HOZ+hrDQW7ft2/fcYdcJPVBDQOAulnx4fPgs5n4kHomc2L37lOOaPL6ZuLjhj4OsevxT4ddKfVBhQCQWPPjw7dln83EpeqZzAkr+dQBwFO/ePPZJvNgq+t71dcV1uX3Drtg6oMKTwNMpfnx4duuryzLi9QzmRPFlAHAW7948XFDH//Ytdl32AVWH1S/35uLvfnx4ZuVb2Fh4QSbi9vVc5kLxRQBwGO/ePBxQx//2Ob/7fAeo7XXt1AfmAWAXTE3Pz58s/bZoP6tei5zoZgwAHjuF5XP+nQnN/SJhivXu76F+sBGAkBUzY8PX10+m4tfVM9lLhQTBADv/SLa/Bc73NAnGux6/dx617dQH9ggAETV/Pjw1enrdquz1XOZC8WYABBDvzTp44Y+cdJqtR6x3vUt1Ac2eA9AFM2PD19TPpuN69SzmQNW9h0p9EsTPm7oEy3XbXR9C/XBhU8BxND8+PA16bPZeJ16NnOg2OA3ALH1S50+2/jvbT/x/5n6WsGWeeVG17dQH9y4xwGrmx8fPoWvLMvHq2czB4p1fgMQY7/U4bv//c/ghj4JEG4xvmG/qA9u2gAQ6zDhwzeN7zGPOecoFt76KdYEgFj7Zda+Xq/7QKvPVerrA9vmpqpqH7thv6gPcJoAEOsw4cO3FV9Zln+ons/UKUYCQOz9Mgtf2Cw63NAnJV61ab+oD3DSABDjMOHDtx1fVVXL6vlMnWIQAFLol+36Bp8+4YY+CTH49f/G/aI+wEkCQIzDhA/fdn3h9qrGl9QzmjJW5h2p9MtWffZT/4nWZy/ihj7JceMFFywfu2m/qA9yXACIbZjw4ZulzxblV6lnNGXCG91S6pdpfeH58B1u6JMqrxjbL+qD3CwAxDZM+PDN2jdYoNULSbIsLJx7dEr9Mqmv02nvtvMP7zHZr74GUBvtsf2iPsiNAkBMw4QPX42+HTYnn1TPaaosLJx3TGL9MtZnofLCDjf0SRq7xp8YhNvNG0N9oOsFgJiGCR++un02zL+kntNUGQkAyfTLRr5ut7qPnfPr1TWHRviFifpFfaBrA0Asw4QPX1O+brd7rw6PCK4FD9e3bl/4SbCqOs/kvhJ5EN7M2e/3T5uoQdQHOxoAYhgmfPgUPm7FWg9erm9dvl6v+1A7z3er6wzNYWvFmyduEvXBDgNADMOED5/KZ0O9op7VFPFyfWvol3vY+T2XG/rkR1mWSxM3ivpgQwDwPkz48Kl9Z5/9A8fYYv5Z9bymhpfrO0tft1udaed2tbq2IOHaYswjrg95qQ84PA3Q8zDhw+fFZ/PyfPW8poan67tdnwXEncYLuaFPvti1//mpmkZ9wP1+b87jMOHD5823vLx0qg34V9QzmxKeru82N//FDjf0yZ2v2Q/UJ03Tf4X6oC0A7PI2TPjwefV1Ou2XqWc2Jbxd32l9YcG3zf8S4y51LUHO70zbf4X6oEcCgHyY8OHz7quq6n42N3eo5zYVvF3faV626e+zc7hOXUNwwe0WBs+Ytv8K9YEPAoB8mPDhi8VnC/+b1HObCh6v77jX4L4Ql6lrB664bCv9V6gPfPAeANkw4cMXm88CwDnquU0Fj9d3s5dd+1Vu6ANrKcvyrK30X6E+8PApANUw4cMXq89m573q2U0Br9d37auqqgfZxv8edb3AH7b5v2ur/VeoD37c44DrGCZ8+GL32ezsVc9uCni9vsPX4IY+zzFuU9cKfGI9smfL/ac++GkDgKfhxIdP6QvJXz2/seP5+trC/mjjg+oagV+sP/5iW/2nPoFpAoCn4cSHT+0bvBeA57lvbwHd6e36ckMfmJD99kPAY7bVf+qTmDQAeBlOfPg8+WyGrlDPcMwsLy+f7On6ckMfmJTwgLBt95/6JCYJAF6GEx8+b77w7t8OvwXYMla/h3i4voMb+ryaawmTEG78ZL37qG33n/pExgUAD8OJD59nn83R5eo5jpXwlEX19bWF/EI7jhvUtYCoeONM+k99IpsFgBgWX3z41L5er/sw20C+rZ7lSPk51fW1a3a6ff8/dVADiItvhjuCbrf/DrzUJ7NRAIhl8cWHz4PPZum31bMcI7YJ/6lo8+eGPrAlrG9+fbv9d/ClPpn1AkBsiy8+fGpfq7X3ZJunG9XzHBu2mH7pnHPO2tnU9eWGPrAdrHc+v3bP3Nb6oj6hmZ7MNocTH76YfbY4/Jh6niPlB+u+vtzQB2bE02e6vqhPaDQAxLz44sPnwHeEzdTV6pmOkLfWeX25oQ/MiH+wdtoxbf9t+lKf1DAAJLD44sMn93XuvkUwHyWbjv3dbvfcWV+PPXv2HGvu3+jw+GbYJuFjf6M9OrP1RX1iIQCksvjiw+fBZ4vFq9RzHRvhJ/SVlZVjZnU9zGnK9r+qzwuS4dJa1hf1iYWnAaa0+OLDp/YNbirD58qnpCzLPyxGfsW6leuxd+/e3eZ6bYffwsDsuG5hYeGEOtaXQn1y/X5vLqXFFx8+D75wcxn1bMdICAHz8/NHTXs9Br/uf65xq/ocIC0szO+ra30p1CdnAWCXerHEhy9FX4ebzGx1wf2/9nXvZNejd4b9ty8wblIfN6SH9eKb6lxfCvUJjgSApBZffPjUvlardW+bsVvUMx4xH7AF+FeqqtPtdqszB3dcfIzxROOlxj92+FU/1IT1183WePeqc30p1CcJkCs24F+va/Mfvrg3AECcVFX1jLp/uCjUJwmQK2sDQF3DHm53qz5XAJgcm9nLm/jNYqE+UYBcGQ0AdQ57WbZOs+/1OfX5AsBEXL+0tHRyE3+tWDg4WYAsGQaAJpK+fb9euJmI+pwBYGPCjIb3nDT2niL1CQPkSggATb6B0L7n76jPGQA25aWNvqHYwQkDZMkgADQ27OFOd/Z9P6Q+bwA4nHA3yn37Hnd8Y5s/AQBAxyAANPrRwaqqHlaW5VfV5w4Ah3CrrQcPb3o9KBycOECWrAkAjd03wELAD3X4/DqAF/ZbKH9i45t/eDk4eYAsGQkAjd80yL7/S9XnDwAH1oEXSTb/wUIgLwBAjoy8B6CZYT/0dYQdw1+rawCQOVddcMHysZLNP7wcFAAgS4afAmhs2Ne8lpeXT7bjuFZdB4Acsfn/bK/XPV22+YeXuggAubLerYBrHfZ1XlVVzdtxfENdC4CcCLMfnish3fzDS10IgFzZSgCY5eY/9NlxXGjcqa4HQA6Em/2EB0rJN//wUhcDIFemDQB1bP5Dnx3Lz6vrAZADNms/62LzDy91MQByZZoAUOfmP8SO6RXqmgAkzu+72fzDy0FBALJk0gDQxOYf/nn37lPCJwPepq4LQKL8xcg7/vWbf3g5KApAlkwSAJra/Ie+paWl4+3YrlbXBiAlbNY/sLJy/pyrzT+81IUByJVxAaDpzX/4KsvyVDu2a9T1AUiEa0Y+7udm8+/zNEAAHZsFANXmP3x1u9172fF9Ql0jgMj5VFm2zvC4+Yc/XzgoEECWbBQA1Jv/8NVqte5rx/kZdZ0AIuU6m/GHeN38g6dwUCSALFkvAHjZ/IcvO8YH27F+QV0rgJiwufmS8Sj1/I7zFepCAeTK2gDgbfMfvsqyfJQd65fV9QKIhH+3eTnLy/xu5iscFAsgS0YDgNfNf/iyEPAIO94b1DUD8IzNyBe73Wre2/xu5CvUBQPIlWEA8L75D31l2Xpoh4cHAayLzfPnLCh/n9f5XdenLhpArgyfBhjD5v9dV+9BduyfVNcOwBnX9nrdh/mf3zU+B4UDyJJBAIho87/bZ8d9uh3/R9X1A3DCx3u93v1imd9DfA6KB5AlgwAQ1eY/9O3du3e3Hf8H1TUEUBLu8Of1Jj8T+dQFBMiVNQEgusUj3DbYzuEd6joCiHiHx9v7TuVzUESALBkJAHEuHvZaXV090s7l5epaAjSJze6l55xz1s7Y57dQFxIgV0beAxDn4jHysvN5jp3PXeqaAtSJ9fidnU7759TzNjOfuqAAuTL8FEBjw16zryzLC+2cvqGuK0AdhHmtqs4TvMzbTHx2YrcAQPPYgvL5Roe9AV9VVfN2Xp/tOFiwAWbItRZwz/U2b9v2JXUy+PDhk/vCu6ItBLzLwaINMAveubTUv5fXeduWL6mTwYcPnwvfwsJ5x9jC+XzeFwARs9/697cvuGD5WO/ztmVfUieDDx8+Vz5bQPfZQnqrg8UcYGKsb79aVZ3V2OZtqz7pN8eHD1+6vqqqHmaL6ofVizrAJIQbXIWHX8U6b7W+vJ8MPnz4/Pnm5+fDbwNeyF8JgGPCr/wv2bfvccfHPm+1vLyfDD58+Hz7qqrq2kJ7vYPFHmCUG43z1fPRtE/6zfHhw5efz37KmrPF9o0OFn2A8Cv/P+v1uqd4mY8mfdJvjg8fvnx9VVU9s8MbBEFHuB/Hj3qdjyZ80m+ODx++vH3dbnUvW4Rf72AzgLy4otvtfq/3+ajbJ/3m+PDhwxc87Xb7QluUr3OwMUDafMH44djmoy5fUieDDx++mH3dU8O7sPmkANRAeIf/q1dWVk6Mdz5m70vqZPDhwxe/r6qqBVuwr3awaUAC2Mb/j/b1vFTmo1ZfUieDDx++WH07bOFeNT6n3kAgTqx3brAw+RPWS0c46Gf/vqROBh8+fNH7lpaWjg83ELIF/VvqDQXiwPrlO+GvkhYWFk7w1s9ufUmdDD58+JLytVqtB9ii/mZb4PerNxjwyeC9I39iX+/vvZ9d+ZI6GXz48CXrq6rq+22Rf0uHIACHclW32z07tn6W+5I6GXz48GXh63areVv0L3ew8YB447ef+M+JvZ9lvqROBh8+fFn5qqpT2gbwbgcbETTLlWVZPlbdf9H7kjoZfPjwZemzEPBo2xQuM253sDlBDQz+jv+KzshH+rz0X7S+pE4GHz58Wftarda9B58a4BkD6fC18K7+fr9/hvf+i86X1Mngw4cPX3HwiYO/YHzGwQYGW+Mzdh2fZxv/SbH1XzS+pE4GHz58+A59HWGbSN82k7eEz4c72NRgEwbX6IpwEyh7HSnol7x8SZ0MPnz48G3gK8vWaVXV+SnbYK5Rb3Rw2Mb/r/b1+fbT/mle+iUnn/Sb48OHD19TvoWF844py7KyTee/G19Sb365YrX/ovEHRsdzv6Tuk35zfPjw4RP6wl8RLA6eQvhF9aaYOlbjm+3r6y2AXdTtto+LsF+S8km/OT58+PB58dnmdA/bnM4Pj43lIUQz3fQ/a7yqqjrLVdU+NpV+ScEn/eb48OHD59XX6/UeGJ4m17n7TWnfVm+kEXGH1et99vUXrX7zVsodHq8vvs5R0m+ODx8+fDH4Op32LvsJ9gm2sb3cNrYPhk3OwUbrhVCLDxgva7Vajw9PcIzt+ubqk35zfPjw4YvT1w+PKV4MP+V27v4Nwc0ONuKmuC38hG/8ZtjwN/ucfrzXNw+f9Jvjw4cPXwq+8Jn1siwfXlXVk+zrS2xzfIdtlNc62Ky3Q3ji4rV2Lm+3ry8On80P5zjp5/NTur6p+pI6GXz48OHz5FtZWTnRQsFCVXWeaZvoxcYbbCN9v3FDx8cjjffbsXx+8Hf2bwjHaMf6rPCQpeXlpVPU9cNXry+pk8GHDx++WHznn3/+MRYOHmabbs824KfY12cbLzBebv8cgsI77X9fbV+vMT494Mv2724Jv4Yf/ZV8+Hfh/xv5764Z/Nl3BldwGr8Wvkf4XvZ9u71e76EWUI6JtX74tu/7/zVTkwijIiCfAAAAAElFTkSuQmCC;fontColor=#000000;labelPosition=right;align=left;" parent="1" vertex="1">
          <mxGeometry x="445" y="-400" width="90" height="90" as="geometry" />
        </mxCell>
        <mxCell id="CibuX7JwkrPW4KWWgDuO-45" value="" style="edgeStyle=orthogonalEdgeStyle;rounded=0;orthogonalLoop=1;jettySize=auto;html=1;strokeWidth=0;labelBackgroundColor=#FFFFFF;fontColor=#000000;" parent="1" source="CibuX7JwkrPW4KWWgDuO-35" target="CibuX7JwkrPW4KWWgDuO-34" edge="1">
          <mxGeometry relative="1" as="geometry" />
        </mxCell>
        <mxCell id="CibuX7JwkrPW4KWWgDuO-35" value="" style="rounded=0;whiteSpace=wrap;html=1;fillColor=default;strokeColor=default;fontColor=#000000;labelBackgroundColor=#FFFFFF;" parent="1" vertex="1">
          <mxGeometry x="320" y="-280.8" width="340" height="100" as="geometry" />
        </mxCell>
        <mxCell id="CibuX7JwkrPW4KWWgDuO-12" value="" style="dashed=0;outlineConnect=0;html=1;align=center;labelPosition=center;verticalLabelPosition=bottom;verticalAlign=top;shape=mxgraph.weblogos.json;labelBackgroundColor=#FFFFFF;fontColor=#000000;" parent="1" vertex="1">
          <mxGeometry x="340" y="-268.7" width="70" height="75.8" as="geometry" />
        </mxCell>
        <mxCell id="CibuX7JwkrPW4KWWgDuO-31" value="" style="outlineConnect=0;dashed=0;verticalLabelPosition=bottom;verticalAlign=top;align=center;html=1;shape=mxgraph.aws3.mysql_db_instance;fillColor=#2E73B8;gradientColor=none;labelBackgroundColor=#FFFFFF;fontColor=#000000;" parent="1" vertex="1">
          <mxGeometry x="440" y="-263.05" width="60" height="64.5" as="geometry" />
        </mxCell>
        <mxCell id="CibuX7JwkrPW4KWWgDuO-36" value="Dados Locais" style="text;html=1;align=center;verticalAlign=middle;whiteSpace=wrap;rounded=0;fillColor=#ffff88;strokeColor=#36393d;fontColor=#000000;labelBackgroundColor=none;" parent="1" vertex="1">
          <mxGeometry x="530" y="-245.8" width="100" height="30" as="geometry" />
        </mxCell>
        <mxCell id="CibuX7JwkrPW4KWWgDuO-41" value="" style="group;labelBackgroundColor=#FFFFFF;fontColor=#000000;" parent="1" vertex="1" connectable="0">
          <mxGeometry x="760" y="-400" width="250" height="300" as="geometry" />
        </mxCell>
        <mxCell id="CibuX7JwkrPW4KWWgDuO-28" value="" style="whiteSpace=wrap;html=1;shape=mxgraph.basic.cloud_rect;fillColor=#fad9d5;strokeColor=#ae4132;labelBackgroundColor=#FFFFFF;fontColor=#000000;" parent="CibuX7JwkrPW4KWWgDuO-41" vertex="1">
          <mxGeometry width="250" height="300" as="geometry" />
        </mxCell>
        <mxCell id="CibuX7JwkrPW4KWWgDuO-5" value="GitHub" style="dashed=0;outlineConnect=0;html=1;align=left;labelPosition=right;verticalLabelPosition=middle;verticalAlign=middle;shape=mxgraph.weblogos.github;labelBackgroundColor=#FFFFFF;fontSize=15;fontColor=#000000;" parent="CibuX7JwkrPW4KWWgDuO-41" vertex="1">
          <mxGeometry x="87.5" y="180" width="75" height="75" as="geometry" />
        </mxCell>
        <mxCell id="CibuX7JwkrPW4KWWgDuO-18" value="Git" style="verticalLabelPosition=middle;html=1;verticalAlign=middle;align=left;strokeColor=none;fillColor=#00BEF2;shape=mxgraph.azure.git_repository;labelPosition=right;labelBackgroundColor=#FFFFFF;fontSize=15;fontColor=#000000;" parent="CibuX7JwkrPW4KWWgDuO-41" vertex="1">
          <mxGeometry x="87.5" y="70" width="75" height="75" as="geometry" />
        </mxCell>
        <mxCell id="CibuX7JwkrPW4KWWgDuO-19" value="" style="rounded=0;orthogonalLoop=1;jettySize=auto;html=1;strokeColor=#666666;fillColor=#f5f5f5;gradientColor=#b3b3b3;startArrow=classicThin;startFill=1;labelBackgroundColor=#FFFFFF;fontColor=#000000;" parent="CibuX7JwkrPW4KWWgDuO-41" source="CibuX7JwkrPW4KWWgDuO-5" target="CibuX7JwkrPW4KWWgDuO-18" edge="1">
          <mxGeometry relative="1" as="geometry" />
        </mxCell>
        <mxCell id="CibuX7JwkrPW4KWWgDuO-29" value="Sistema de versionamento" style="text;html=1;align=center;verticalAlign=middle;whiteSpace=wrap;rounded=0;fillColor=#ffff88;strokeColor=#36393d;fontColor=#000000;labelBackgroundColor=none;" parent="CibuX7JwkrPW4KWWgDuO-41" vertex="1">
          <mxGeometry x="30" y="30" width="190" height="30" as="geometry" />
        </mxCell>
        <mxCell id="CibuX7JwkrPW4KWWgDuO-42" value="" style="group;labelBackgroundColor=#FFFFFF;fontColor=#000000;" parent="1" vertex="1" connectable="0">
          <mxGeometry x="49.995000000000054" y="-810" width="220" height="350" as="geometry" />
        </mxCell>
        <mxCell id="CibuX7JwkrPW4KWWgDuO-33" value="" style="whiteSpace=wrap;html=1;shape=mxgraph.basic.cloud_rect;fillColor=#AAFAED;strokeColor=#ae4132;labelBackgroundColor=#FFFFFF;fontColor=#000000;" parent="CibuX7JwkrPW4KWWgDuO-42" vertex="1">
          <mxGeometry width="220" height="350" as="geometry" />
        </mxCell>
        <mxCell id="cZuDhUX1Navy96NufW1f-11" value="" style="shape=image;aspect=fixed;image=data:image/png,iVBORw0KGgoAAAANSUhEUgAAAr4AAAHcCAYAAAAwU6m5AAAAAXNSR0IArs4c6QAAAARnQU1BAACxjwv8YQUAAAAJcEhZcwAAEnQAABJ0Ad5mH3gAAP+lSURBVHhe7J0JnE7V/8f/v5oYmhmDWTDGYMa+DZI18stWSMkWbZZURJYKFdNiqSgJKRRFicqaJUSyCyH7vs+YMfv2zLPc+/98nub4XdczzDDM4vt+vT6ve5+7nnvuOff7uec5997/EwRBEARBEARBEARBEARBEARBEARBEARBEARBEARBEARBEARByK3ouu62fv1672XLlgX8/PPPlefMmVPvk08+afbBBx+0GTRoUNs+ffp0eOaZZ57o2LHjE82aNXuibt26T9SqVeuJKlWquFRwcPA107g812vYsKFzG126dHmC28X2O7z11lvtp06d2vaHH35ouXjx4qbr1q2ru2/fvsrHjh0LRNq8mT7onvTkCoIgCIIgCMLNMWDAAK/nn3++QadOnXq2bNnywyZNmsxv1KjR+tDQ0L3lypU77Ovre9Lb2/tUoUKFTrm5uZ269957T/3nP/+5ImzihsK6J40qVqzYyYCAgJNVq1Y9+eCDDx7D/g42b958Z7t27VY/9dRTc1988cUPX3311Rdff/31hjDhxcLCwtyxHUEQBEEQBEG4lv3793ssWbLE//PPPy/30ksvVe3Vq1dtGNv6jRs3blC5cuUGISEhDUqVKtXI09OzbYECBd7GKj9AO6Hwe+65JxkG1wFpkH7ffffpHMLoXhGWyxZxW9ifBtkwnoBp57C/nQULFvwJBnlk6dKln0R6WzZs2LDRY4891gjGuNGbb77Z4MMPP2zA1uk1a9bU3r17d9U9e/aUO3HihD+Pm63E2I4gCIIgCIKQz7mnc+fOBerUqdOgfPnyL/v7+38K8/gLhn8UL158V5EiRf4pVKjQfjc3t/1Y9gB0BOM0m5dhPpMgKwyoA9NdGtVbFY0uTbQy0pzm5eWlI000v3b8TsP0JCga5vfc/ffffwTm/BCGBzB0ytvb+x9fX999gYGB23GM6x988MH5rVu3ntipU6dXRo4c2XDlypUl169fL63EgiAIgiAIeRX2dV2wYEEByCMsLMznrbfeKvnKK68Etm/fvtxDDz1UrmbNmuUqV65cESa3Oszsa1jlFxjIAzCZMTCVNJQazSZbcDnkJjnOYU6IaUC6rpnONHE6h+7u7ldNh0E2LkuDngZTfJmG2MfHZ2GjRo2GtGvX7tGnnnqq5quvvlqOLd4zZ84Mohm+cOGCz86dOwtLn2FBEARBEIRczqRJk7z69OkT2qZNm84VK1b8wMPD44cCBQqshoHcbtAO6C/oOBQFA8lWXBvkoJk0CvOvGGBXUvNvt8zpUi3CGYkGmMI4u2KwS4YV6yVjW1HQcZjlfcibnTDC2/z8/LbVr1//DxjhH0eNGjUOJvipX375pTS7ROAYBUEQBEEQhJwmLCzMjV0WmjVr5q4UGBgY7OXl1cPT03Py/fffvxtmLw5Gz1a4cGHdKKOJvBkpQ3qnZN6/MrgZyWB8r5JKO7LPOeQ03BiwK4Xm7e0dX6JEif2lSpWaWLt27YZsIWee8sE5dotgS7qu65S0BguCIAiCINwh7unWrVvtBg0avBwcHPyZu7v7Ihi3tTBwazFvEwzdP+z7CuOXgHEbpmk3Y3yVWVQmkgZRifNpHHNKGaXVnGbzdLWsmsdtIX/UNm04tkTk3RmY4O3QxtKlS/9et27d3zt16vT7a6+9Nm8C+P7775+DEQ6RLhGCIAiCIAi3FxotNxi3HjBqSzF+DkP+je98uwJ+X2VO+VuJ89V0Zfw47spIUpxPKRPJdWEKnVIGNKd0o7SqdCqp+WpZTuPxGPNHrcfpahnui/M8PDx0X1/flJCQkNOtW7f+fujQof+dMWOGP1uBMV8QBEEQBEG4WdiSGBYW5tG0adPHYLY+KFGixFfFixf/xdPTczHl5ua2C0YtAkqFnKZXiQaOoskzmkQ1jy2+ytwpY+fKTJrF5dWQ69xJMX2uZE4fj89o0I1G1ijjeteTWj49Tx3YVgqG5/z9/TeVLVt2eYMGDRZ36NBh7vvvv//FqlWrhl2+fLmVpmmlcf4KI92CIAiCIAjCjWDf3erVq/u7u7t/CuN1DJPiIb7Ki28pcMB8aelymjJl0JRo2mgMOc9oANV083LK6JmlDKYS9p0jMqdDyZhWHs/18uNmpNZX22UeQnytmgN5yvPg8PHxSYMBjunWrdvfI0eOHD1nzpwGW7du9Ue6BUEQBEEQBCOzZs3yHj58eH2Y3WcCAgLexaQZ0GxofqFChY4UKVIkBQbYTuOVkSFTvym1jJqnxGnY5hUZt2Nczyiz0TSunxuk0sW08hhUXpjTbjymrEjljcpDGl8O+co0TmcaaIRhgu1eXl7xOH/7n3jiiV/feeedH7766quJ69evf/n48eONo6OjA7GsIAiCIAjC3U2VKlUqlCpVaoiHh8cSNze3MzBRqZicBjk/FOHKiF3vtxoqE0jjh21dZRTVuFpfLZeR1Pq5TcY0mvMks8eWkcx5aty20WCrtGAa34HM7hA2tgKHhITEtmjRYsPIkSPfWrFiRTNd1/+D5QRBEARBEO4ehgwZUvGRRx55vmLFiiNhlj7EpG+hrdAFyAJdZe4osylTUobMlYzLudomZVzmenK1bm6SqzTfLpnzVk0zisbY3d2d3SCiKleuvKPjEx0Xvv766xN++eWXftu3b28dHx9fCUb4PqRdEARBEAQh/wIz1A3GaP29994bDtPE9+ymQlbMYv9dDbqhsctoutGUGeer5UW3LpWnRpmNL5XeMuyAAea5tRQvXjyxWbNme4cPH/7l3Llzux86dMgT0wVBEARBEPIPr776auUHH3ywU/ny5V8uXLjwmwULFlyGyZchO00TDRKH+J2hjCbLuKx5Og2XGjeuL8peGfOcMpteo3h++SYNX19f3dvbO6lUqVIH69evv6x79+5jpkyZ8uKmTZseS0xMrB4VFSVGWBAEQRCEvE2VKlV6e3h4/Obu7n4UJikKk1LS3wjg0lS5ktlouZqufhuHotsjY75TZqPLc0upaUWKFHH+xrp8I4QV5z8lICAgrm7dugd79uy54PPPPx+4fv36spgvCIIgCIKQN+D7d6dNm1a1S5cu7WvUqNG9UKFCL2HyUpihKBgfGh5lgLIks9EyytXyotsr8zlQBpei8U1/7dmV1nyjGTbJwgcaa9Wqtfrll19+b8GCBT0OHjzYMjw8vPqpU6e8sS9BEARBEITcSbNmzdyDg4OH+vr6/gHTewimh/14k2B47XztFc0QzREWzZKUwXIlV8uLbq/M58BofNU0ml13d3fnq8/UDY8L8V3M1sKFCyf5+PhcrlOnzsGBAwcunTdv3tsXLlyoI2+CEARBEAQh18BP1k6YMCHw+eefr9uwYcNHPD09n8Hk1TC48ZDNaHJohJQxwjJZkjJTruRqedHtlfkc3ILxdYrL86YIy9lKly4d8dhjj/0ZFhb2/vLlyx89ceJEzfDwcD/5GpwgCIIgCDnKwIED/WvWrMk+vN/AtGyGgTmDyQkQv7J25Q0NZmOkpmdWyky5kqvlRbdX5nNgPL80vOkm9oqp5TSjzMaX5hg3TTrKET+GYcM+kmiA27dvv+vzzz//bPPmze2OHTsWgunSAiwIgiAIwp1B13W3BQsWeLz44osl69evXzMoKOhpNze3H6GTMD2pND40MjQ3ygiZjZGaxs0pKQN1szJuS3T7Zc5/dV6VqVXGl0NKzXMlVV6M4sNwMMGUtUqVKv907dp10rhx43rt2bOntqZp8jlkQRAEQRBuP1999ZXPY4891igkJGTQ/fffvxSTjkF8NZkF5sZBs0PRvCgz5Epms2o2UlmVcVui2y9z/qvzajawytQaza2r5YxS20pfjv8aJPv7+1944IEHDuCGa9X333/fNyws7B5MFwRBEARByH7Wr1/vDrPh07Bhw0ZFihQZClOyHGYmHrOcRkgZFbbuKZOjplFmo5TdUukQ3Rm5OgeUOt/KxJqNryoLajlX4nzz/tLX55fgktq1a7fgiy++qLRly5aAs2fPFpO+v4IgCIIgZCtt2rSpV6ZMmVEwvUvd3NwOwJxEe3p6sh+v8wEmVwbGKGWMbpeYDtGdk6tzQJnPuzK7HGbW+LqS2i+2YUcZjGzcuPH2YcOGzVu5cuVbFy5caKVpWiHMFwRBEARBuDn4Tt7OnTsXqFu3bmHQp2DBgttgQhJgXBxG86LGOeRqHN5IXE6Uf2Q+v8ayoX4b599IN9o+u9NUrlw5plu3bpsmTJgwcu3atQEorwWwrCAIgiAIQtaYM2dOyeeff75BUFDQUPz8pVChQgdgNuLuvfdeG4yHRvNhNjcUlnVpVMxSy4nyh1ydY6OyutyNxH8ZsLy1aNGisU2aNDn8/vvv//bnn3++FRcXV14MsCAIgiAIWaJy5cp1/fz8XsboH5ClcOHCTrOh/q42ypVpUdNczRPlf93u8883PqgyiRsyLSAgwN6lS5dts2fPbn7o0CFP/luB5QRBEARBEDKmR48e9WrVqvUSDO439913319QNMyFgwaDD66J8RXlBrHcqVem8cE3jGslS5aMad++/eYJEyZM3bFjx7OxsbH88ltRLC8IgiAIgnAtfn5+fd3c3JbDrF6AubApc0tzkf5k/RXDy3FKjK3oTovlz2h81fTChQtrderUiRgxYsSPa9as6XXmzJnymC4fvRAEQRAE4V/CwsLcmjRp0g6m92P8/BNGNhzGgu/lvcbkivEV5Qax/LkyvpxWpEiRNH9//7OtW7deN378+E/27NnTLb3vrxhgQRAEQbjbadasmbunp+c0GIhLMBSp7NpAA6EMrtHkupIYX9GdljK+xn7n6jeNcKFChRxeXl7J9erVO/nee+8t2Lp162NifAVBEAThLqZz584evkV8O8M4TIYOFyxY0AbjoLEVjSaCBoJSBjcjifEV3WkZjS6HLIcch+F1zk8fd2A8pWbNmqfffPPNhTt37nwtKSmpthhgQRAEQbgLCQ4ODvT09F5YuLBHkrt7YZjef5+SN8togs2i4aAJEfMrupNieWP5U2VUjdP4enp6Ot/6wN+4ieONnK1SpUpJffv23b9s2bJX5XPHgiAIgnAXwM8ODx06tFyNGjWaenoW6+Xu7vH5fW4FzxYsWAgmgab3X+NL80ClGwcxvqJcJ6PxZVllGWVZdVV2KUzTQkJCkp577rn18+bNG/LPP/+01jSttK7rHtieIAiCIAj5jW7duvkHBAR08vX1nwjTu6dAgfsT3dwK2gvc567DAP8rmAllFiijyXUlMb6inJAyvjS5bN3lb2N3B1c3bJjG9/1aOnTocO6jjz76ds+ePW0uXboUIl0fBEEQBCEfMWvWLO+2bdvWDQoK6lWwYKHZbvcW3HvPPQWT77mHD7C5wTSwn+6/oomlaCIyKzG+ojstljeWOxpcGl9O42+aXVemV03nMsWLF3fUqVPn+HvvvTdz+/btL8bHx1fUNK0YtiEIgiAIQl7nkUceqe3nV2IsjO3G//u//1z8v//jq8oKaDS+NLv4na7/mVcaC2UuMiO1vHl983SRKLvEcsUbL1W+1G9XMhrgdFlDQkKi+vfvv3L16tUvnzp1qoG0/AqCIAhCHmb8+PF+TZo0qe/jU/ItGNytmBQLg2tnK++/rb3/a/HNyPjeSGJ8RblR5vLHMmo0wFwGQ61ChQoXX3rppSW//fbbG1FRUZVgfn0gefhNEARBEPIaFSvWbOPj4/s9jO0RGNsEmt577y2gsS+vs7X3/+6DKfi3i8PNGt/MSm1XJMoJqXKoDDC7PXh5eeklSpSw1q9fP7ZHjx6b582bN/LSpUt86K0Q1hEEQRAEIS8QFhbmU7Nmzdr33Xvf+EKFCp/lq8pgbDUaXBhf50NsYnxFd5NUOVT/UHAauzwUKVJE9/f316tVqxbdq1evPxctWvTe2bNnq7PPr7T8CoIgCEIeoGLFil0Q3Jcg0J+FLJDT9Gakf02va8NwIylD4WqeSJTTUuVTKaM+v4UKFbKVL18+oXfv3n+tXLnyw4iIiMdhfItgG4IgCIIg5Eaef/5578DAwOBixYpNg/GNg2B4VdA3mlz2yRXjK8r/UuVTtfQqw2s2vjTDhQsX1suVKxffrVu3HfPnz//o/PnzoTS/0vIrCIIgCLmQ8uXLv4DgvhIB/SICuY3BXAV8s/G9Vq6Ng0iUl2U0vsaWXrPxNcju6+ub0Llz572LFi2aFhUV1R3GtwS2JQiCIAhCbgBBukBISIiXm5vbd4ULF7aw5YpBXoyv6G7X9Yyv8TcfdlP1husFBASk9OrV6+iyZcu+gvmtq2laQUwXBEEQBCGn4F+wNL1+fn5977///mXu7u7hkIMtV8r4Uv8zv9ItQXT3yGx6KaPpNUq1+PLLb1SRIkUcML/J3bp1O7Bo0aIp0dHRXfiJY2xXEARBEIScgKa3atWqHhhdxIdzGLBdBXUxvqK7UTcyvqpeKKn5NMD8Gpynp6devnz5lE6dOh389ddfp8XHx9fHzaZ85EIQBEEQ7iRhYWFubdq08SpVqlQ/BOylmBQB06sZTa9xXAV2Mb6iu0lm46tMr6obql6YxXns+kDjy39Qihcvnvjqq6/uW7t27SeRkZFtL1++zJZfMcCCIAiCcCfo3LmzR9GiRQMRpH9DgLYzWDOYG4O3WWJ6RXebjMb3ZqRuHFm3atasmdyrV69dv/zyy4SIiIiG0vIrCIIgCHeAAQMGeJUvX/4lBOaFCOqXlJk1B3n12ywuKxLdbTLXA3MdUfXG2BJMw2vo+2svU6ZMLMzvzm3btr0fExPzkKZppbBtQRAEQRBuF8HBwWzpXYlgbYM0THIZ2M3T1W+RSOTaCCvjq1p5TcaX62kVKlRIHD169J+bNm16+/Llyw9Ky68gCIIg3Ab4GWIE3adLlSr1VcGCBS+4MrPGQG6eJxKJ/idjXaFuZHy5DucXLVrUXr9+/cj3339/4++//z6S5jcpKUne8ysIgiAI2Un58uWru7m5LSlUqFACArUdk64J5pQK5K7miUSif6XqidKNjC8fduN6XKZEiRKO//73v/FvvfXW+h07drwO89tAWn4FQRAEIRv46quvfMqWLdsKwfhjBOjTCLwag685cN9I2JRIJEqXuX4o46tkNL242XS+4SH9LQ/O+aVLl3Y0b948YurUqWv37ds3BMa3/KlTp7yxbUEQBEEQbpaaNWvW9vDwmI3gTNObqgKzOXDfSNiUSCRKl7l+qHqlpFp9aXxpdvlVN4q/1Xx2e2jfvn3srFmzFp8/f75LQkJCFWn5FQRBEISbYNKkSV5t2rSpidGhCLz/INhaIWdrL2UO3DcStiMSidJlrh+qXhmljC+7OdD8ctxcl0qVKuV49tlnT69atWpOZGRkt/379xeA+b0H8wRBEARByCxt27atXrJkybcQcNfhZywC8RXTS5kD942EbYhEonSZ64exbhmlujrQ+NIIG7eh+v2WLl3aOnDgwMgjR45M0TTNC8a3AKYLgiAIgnAjFixYUGDw4MHFKlWq1NnDw+PXe++9NwIB12YMxipYY3GRSHQLMppfivVLdXPgOIfs4kDzq7o5cD21jFLlypUdn3322V8HDhzonZyc/IB0eRAEQRCETDBjxgz/hx56qClM73gE15MIqjYEXJetvVhcJBLdgoyml2L9osE19udlyy5/s9WXhpfTzMbXx8dH79ixY8qsWbNOXLhw4WPcwN6L7QuCIAiCcD0eeeSR2oGBgSMQWP9EQE1RgZWBVgVdFaSx+G2R0Qjc7n0Z5Wq/NytX278dutP7y00y5rdZrpbPTmXX/szbuZ7x5TAj48ttod7qPXv21H799detERERDaKjowPFAAuCIAjCdfDy8nra3d19K4JpIuRQhlcpp4yvkqvls0uu9nezcrX926E7vb+cEsudcdyY165kXPd2KLv2Z16Xv3l8NLNqSNPr4eFxxQhnJC5Tvnx5mt+oI0eOrE1OTh6s67oHtisIgiAIgpGwsDCP2rVrByF4foqfcSqYGg2v0q0G++tJbdu8fzWff/eWKlVKL1eunB4aGqoHBwc7gz1VpkwZ5zx/f38dBt65PtdRDwGptKttGWXer1k3mk+pZVzJ1T5vRq62fSfkKi13UqpVU43fKO+N66rzb55HI8kh+89yGZaZEiVK6EFBQc7yFBISoleqVEmvWrWqXq1aNb1WrVrOfRm3lVmpfWZFXI9lXx2vqofmbVOsF1yH8ytUqGD/7LPPkk+ePLkoNTU1BObXHfMEQRAEQVDA9Lb39fWdgyB7Cj+vepjNLBVssVy2S22b+1FB32h6/Pz89FatWumvvvqqPmrUKP3NN9906pVXXtFffPFFtnbpzz33nN6yZUv9wQcf1CtWrOg0MmwNo7GhyeG21b7UdtVxqWNUUsbbmC7zfDWulnEltZ9blatt3wm5SsudEvPWaHZpWI2/KVdpppk1lh2K01gWihcv7rxpormtW7eu3rZtW71Dhw56ly5d9O7du2soX/bBgwenjhgxIvHdd9+NhxJffvlla0BAgMb9u9rf9WRMQ2bF9YzHZzxO87IqTRxHGdeaNGnimDNnzt/R0dF9o6KiHtA0rRDmCYIgCMLdTVhYmFuzZs3cYQTGIGBGwchpmHwl4LpSRsE3O8Ttch/K9DKgq5Y5mha2vn3wwQf6tm3b9JMnT+pHjx51Dk+fPq2dOHFCO3LkiHbw4EFt586d2qZNm7RFixZpM2bM0GFi9CefeFKvUqWK0zwb96nMrdpvVsQ0Gn+b8yi788q83Yz2p3Sj+ZmVq7TcKXH/LAM0rBTLgTHPjfmuxPV4k8OvnXFdrsMh/xVo3ry588ZpwoQJ+nfffadv2LDBWY6OHTvGMuRAebJdunQp6fz58+cwfT/K09979+49ACMZ/dBDD1kLFy581cOelDm/zDIfU2bE9TLavnk5lkO2+vIY+btIkSK8CQxfvnz5rMuXLz8H41scywqCIAjC3U23bt34MNvLCJq/I2imGIOsCrpmqflYPdul9qsMDQO6arWj6alfv76+cOFC/ezZs5rVarWkpaVFIajvh9Yo2a32NXb7v4qJiVlz+PDhP7eDxYsXH//8889jBg0aZOnRo4fWqFEj51/b3K46NqOZykjG5Wg0lNQ8lT9GmY/zZmXcpkpHRvukOO968zMrV2m5k2L+Fi1a1CmV10ap41RS69H4ssW/ffv2zpufKVOmOM3uxo0bHTC6qeHh4Sw/h6Dt0DpoBbQYmgNNhN6DRiYnJ3/w119/ff3iiy+uK1u2bIx5f67yzCjjsWRWrrajZF6WecJjZX9gNa1mzZqWYcOGXdy3b9+suLi4YHnFmSAIgnDXU6lSpR4YLEEwvYAA7jAHdFfKKPhmh9S2uR8aGqPx5VPrvXv31hHIdZvV5oDBDXdYHStgfnsjqN8HubkSjEsQhk2w3LuXL1/ecObMmfD169dbJ06cqHfu3FmvU6eOs2+w6hdMcZ80E2wpVK2FnKZMFtPDIaezpY3ifE5TeaOORf3ODqntqXQajZ9x+q0ou9N8szIeqyoH6rzwmI3LcjqHXNbb25sfdXD20+WN0muvvaYvWbJEP378uI6ygKKg6zabLRXl5xzLD26gBqakpDyEeb4sLwbdY1CBU6dOeaPMNG3QoMHf2H+WPuhiTGtW5GpbrsRjZvml+VVlkdPr1atHs78Hx14XxyDGVxAEQbi7KVas2NsYnEDwToWu+QvXlVSwxXrZLrVttS9l7KjatWvr48aN0y9evGiH8Y2BcfnNbre/BsNSD+tmCOZ70fxCbbD8MIvFMiMmJmb56dOnN/79999bFi9efHDIkCFxLVu2tPv7+2vqr3R1rBwqw6XMMFvW+Fe6MmPqb2Yui11edSyUmnarMm6TUvlk/n0rUttytf87KeMx8XyovGb+M+855Dwuq84Jf/MhtBEjRujTp0/X/vzzz7STJ0/GJCQknIC53YrzvwXlYBO0COXgi+TkZKfpRXngzdF1HwKj+Z0/f36Ntm3b/ob0WLAv542iSuf1xNVvRa62aRSPneK/FzTAHHI99mV+/PHHL6OM/4w8eBnHXVoMsCAIgnDXAiPxJQbOLg6ZlQq2WC/bpbat9qVMLw0PH0BauHChFhERkQgDswcagiBehIYE614XLMNWO3fIG8HfDyrJ95xiGIjtPb1t27aNs2fPThg+fLj9qaee4pewnKaBqyoxPUwHDS7NBY2GMsM0vkYjRqljuV15ZZQ535RU/pmnX093Ks03kvGYVBmgOK7mM+9pgvmgWps2bfQ+ffro3377rfNfgXPnzjmsVms4zjG7vbwRGxtbluc7XSVRFnwwdH7il+UD27whMNFBL7zwwiykKRxKU/nFoVEq7UpY9ZZk3p5ZzBNl/tm/l3mi8qZ06dK2QYMGxW3cuHE5jH59HKsYX0EQBOHuol69em0QFD+GDsK0ZaqLg5IKtthMtkttVwVzBm9ldF5++WUaGiuC9560tLTxuk1/GNNvmYSEhMowQO9guOT48eNbfv755yMwwHHt27e3V6hQQePfyDQVRsPFIfNCmQ2KpozTOO9Oi/tl+pTUuTL/zoxu5/nNilQ6mCYegzK+LBOcToNHw8uuKuzO8N1337HfbiLKxoWkpKQjFotlq8PhYF/d19mqmx2GD9vyf+edd8KQph2Q87V/mJxhHipxmVuReXuuxHxhSy/LK9dhnrF8Is+0hg0b2keOHHkY5fsN5E0d5EURLCMIgiAIdwcIivwk8UUojQHyRnIV1LGZ2yZunyaHLVZsXeWbGMaMGaNHRkYmwHx8hsBdFsqWl/NjO+7YZgBUFaoNY/3Ezp0718yZMydxxIgR9ocfftj5bmD2n2ReKIOr8oBD/lb5dLvzxizuUxlClQY1VMswTZymxHlGcf71ZNzf7ZZ5n2xNp9QbGjiNQ77ho1evXjrOk753717t0qVLyTC7O3AO+VDas1AdqALE1t3sKiveU6dOfS4oKGg28pz1x5kec34qGfPQeExZlXk7ZvH8M49YX1T55FCVCz4U2KRJk8sbNmz4KSIi4sX0+iMtv4IgCEL+5oMPPigXEhLSDIFxFYK2BdKUGTLKGLzNUsEWm7tt4vaZDgZytmDxAwKTJ0/WY2Nj42BkRt7OoI3tsyvEG2fPnl29Y8eOPTBWZwYNGpTcunVrjQ/YsXWXaTPmAceN+aOm3y5xH0aZ98vf6jyalzNKLWPctlFqPVfzbpeYHho29VulkdN4A8L3M/N9zePHj9d+//331BMnTkSnpKSctFvt63HexkFtaeywbraD7bovXry4PkxkP9yQHUK6rtsv3pj3t5KP5u2Ypf51UHnFoTK+FE1x+fLl01D/z2zcuHEu8quRGF9BEAQh39O0adPHYCbHIjAegpyfJDYHa1dyFWyxudsmZXzYWuXj46M/+uij+rx58/Tk5OQ4q9V6W40vts03QZTDsAmG7dPS0p7fv3//1mnTptk6d+6sqQ9iqDRS5rxS02+XMjoP3D/PKfONf3PzxkFJtZxSnGcUj0WVBeO2Xe3jdov7YzrUONPr6+vr/BhJp06dnA84/v3333pUVJQF5+cwNB96FWoGVcR584Fuy9fKsN17VqxY4dWrV6/qJUuW3IxJVx6GNEqVBaVbzUe1vivx3BnTwN9mMQ3856RFixaO2bNnHz5z5kzXsLCwTPVrFgRBEIS8yj0IfiOKFSv2FwJhXEZBmnIVYM3C9m6bGMg55H7YzeHZZ5/Vly9frlsslihoOAzIHWmtooGCvGF+Pzh9+vQ/O3fujPj666+TYIBtfHsADaWrvOOqt1PG80BxvzQ4TA9NOVumadD5ZTI+qMcPd1Acr1ChgrNvLD/7zGWogIAA5w0GuxNwffP2XaXhTojHxIcMaXhHjx6t//777xpMmyU6OjrK4XDshNGdjvPzAlQey98xYBp9kH/rMaqpllajXJWJW8lH47kwy7gfczqU1M0NbyAGDx4cu3v37rnnz5/vwgf+7lRdEgRBEIQ7jRv4sUCBAnx12TUPtLkKqq6E7dwRqX3xa1sffvihfuDAAT6lfw5mZ/CdCtbYD98GwRbgmna7vXNcXNzEkydPrv/tt98i3nvvPQf7//J9sVxUtbJSbKXkb06nlAFRvykaETXO/OdvrkcjxdY5mhSaUppV/r3fuHFjttg5W7/79+9/lWDEnHr33Xedw08//VT/7LPP9KlTp2pffvml9tVXXyk5KMy/SjCV2rhx47SxY8dqXJ+vAxsyZIjzgUJ2K+jatavOt120a9fO+clovh+Xxp/HzncgM800zOZjNIvHyWWYNxx3tYzxvPO4+eGJxYsX88FGR3JysgWG9x+bzcYPSzwJ1YfYOl8Y69wxkIc+1atXX49jcHYV4rkzSp1vY71Rx5WdMm+Tv5mvZvH8cB7TVqNGDRvOcyRu5FYgH9uL8RUEQRDyFTRuMCo1EfS6IvjtoTFzFRwZGJW4mlHXm3e7pPbFlsrv536vXbhwIQWmZy+MDj9YkSPBWk/Rm8AAD0tNTV22Z8+es7Nnz06CObTCTGjFihVzGgvVYsrFlWj0lDGmuWV+s+8y30zA1ll+QU69oaBp06bOD2s8//zz+qBBg7S33nrLAVNqmzZtmuXnn39OXLNmTczx48djzp8/HxMVFRWTmJgYk5aWphSdLraIRiKvIiC+0usCfp9D2s9heNYk3kyc5zJcFutGxMbGRoKoc+fOXYbRj/7777+j169fH/PTTz/FzJw5M+aTTz6JgcmOe+2115J69epladu2ra1169YOlDONZpimlcfEh6qYH6p7hdEY87cyZPzN5ZgnFLs1dO/encZdP3LkiAPpSoUikf4DFotlMsYr5aRhW7p0qU9oaOjvOB6N6VeGV+lOGV9XMu+TYlpY5jhEPjvf8rB169bTSUlJbyMvA+/0jYMgCIIg3DbCwsK8S5YsORwBcJOXl1cs/zp2ZXixaK6RSg+HDRo00NeuXWuDwaMxWwI9nlOmB/v2w75DMWwP9YdB/GHz5s0nJk+enAyjprF1lmaW6Wbe0gQp06sMEaezW8EDDzzg/JTugAEDnJ/S5dsJVq5cqWN7+u7du9nCzb/10y5duhR78eLFkxEREZuxv9kwK2/C8L7JodVqfRPpMOt1mEO+wmsoxgdDg6CB0ACovxJMpFPYBqdTXGYQpg3GtKEYvk5hO859Yd/O/YaHh78J4/0mDPHoo0eP/shXwO3atevU9u3b45F+K45DGz9+vD5s2DC9R48eOgyxXr16daeh5bHT4LJFm+PIUqcp5pBiKzffx/vxxx/rW7Zs0XHselxcXKzNZtuMtM2EXoH4lTVPno+cAmkr1qRJk9/uv/9+hzq3Rinjy2Ok7mQdU/sy75PpYVo5LFu2rP7RRx85uzwkJyd3QJmWLg+CIAhC3gem171Ro0bBnp6e8/EzHoHQxsCsAvKdDsqZFYMzh0xf8+bN9U2bNqUmJCTscDgcY2B6GmBergBpeRTG4bv9+/f/s2TJkqhx48aldujQwQYDp7HFky2fbAF96KGHnCaXn1weOnQouyRoX3/9teOXX36xwjDyzQRJMLdJMJmJ2CYVD0VBx2E+afr4PtoRULa8jzY7QDp8YLAfhSkeYbPafsC52YbxUzDGMfv27YuHgU9atmxZ0o8//pj0ySefpE6YMCENZtj+zDPPaLyZ4Zf4mDe8CWAfY/7u168fW/f58JoWHR1tTc+PrdAw7K8Fhven7z5HofFt27btIj8/PysMvebK+BrrVm6oYyptHGe/+caNG6fhJmVfamrqZ7ixaC7GVxAEQcjTIJC5vfjiiyWLFCnyCALeZsgBOYM0A7NSbjO9FE0Dh+w/2q1bN33Xrl3xMFbfwvi0hQIxL1eAtATBNLSFKe8HkxYG0/fDjBkzDnfv3j3hqaeesvHvevaTZYvumjVr9AsXLrAF0w6zkZKWlnYB6+6AsV2M7UzG+fqQwrRx0Fir1RoGsbW2Z/px14NKpu86x0Fa+f5jfgqa6WILeC+2FCPtHzD9OF8fKsEg/wBtjImJObVq1arEDz/80Pbmm286H1pkv+GOT3bUJ06cqB88eFBHXtqQP3FYfhu28yHyqRe2/QAUwDKdvvsc5ejRo14DBgz4BsY9pkCBArb73ArqSvfey/7Lbk795z+sX//r8oBVc0ysU6q+UzTs/fv3T8VNxsHExMRXkbfylgdBEAQh7zJp0iSvWrVqtcLoB25ubqdpeJVyu/FVaWKLKfu6nj59mq2f7I/oT8OFebkSpK1ubGzsVKT37yNHjoQfOnQo6fDhw6nnzp2zREVFwc+lJtustkswu0ccVscyGMWRNovtURxX8fRN5EvSjStfOfZdfHz83+fPn484depU0oEDB9J2797tFLt1JCUlpSBP2M/4LwzZypsrzdj+/fs9hg0b9lGVKlWOwfgmuzK+/zO913/g705ImV3VCs1p7HLChyW/+OKLpMjIyC9xbviQYLZ86EMQBEEQ7jhdu3YNLlas2IyCBQuehdm1XM/4qmCYW6TSxFdvvfLKKzpMER/UYn/V+3NzyxTS5w89lt5SO9pms01OSUmZhvGvoGkOh2MKW0NhfIfB3D3Dh+UwnYYj15r57ADHyBuWuhaLpSPGnXkD8SG1GUrIlxmY/wXyZTTyj32OG2KdXPn3O9JV+OOPPx7ywAMPrMdN5eW8YnyVOI3Gl11MevTokbZz584tuOl4A3n+YG7Nc0EQBEHIkLCwMLfg4OBGGN2FQOeyD2JuNr4UW6f4WdpBgwbR+F5CUH5FgrKQG0A5dJ8yZUqPJk2afI1yejavGV/WLT5syDdr1KhRwz5t2rSL4eHhy3FD9gyOTbo8CIIgCHmHBQsWFHjuuecCfHx8usLYHuJHDTIyvZTx78/cJKY1NDRUHz58OI0vX8slxlfIFaAcFvjhh19atni4xSiY3MMwuw4aXiUaX7P5/dcAs++66/cX306ZjS8/VKLeRhEQEKD17t07bfXq1adhfN8R4ysIgiDkKfj6skqVKjVCYBvJbg58l2pGpjc3G1+2RvEDBqNGjRLjK+QqUA7dfv3119C2bdv2gKHdndeMr/rACsWWX74/etKkSakXL16cjnpWSMyvIAiCkGfo0qVLdQymQocR2FL4ztSMTC9F46vMrxLWzXGxpZqvAeM7Xc+ePSvGV8g10BiuWbOmfKdOnf4LQ7slrxlf1nveWNIA89pQunRp9qW3rlu3bmV0dPRjqGshUtcEQRCEPEHNmjXbuLm5/YNRTZlas/KK8eU7fCdNmiTGV8h17Ny506dr164V//Mft3V5zfhSNL4U5/OjK02bNrWNHj16L4zv+6hr/5W6JgiCIORq+Iqljh07VvDz8xuEn6egawKg0fyaDa+r5XNSDMr//e9/9a+//lqPjIwU4yvkKtavX+/9zDPPlIORXQuT61Bm16jcZnyNdZ43vezqoFp/2de3c+fOcQcOHNhltVqHslUb6wqCIAhC7mTr1q3+9erVa4PRydAl6IYBMDcbXwbkpk2b8j2jYnyFXMeCBQs8nnzyyZIwsqthcvOU8VVSXaDU7zp16mi//vprSnR09Deoa/diXUEQBEHInQwYMKBBYGDgDIwegSxQhgHQlVwtn5NiIK5fv74+YcIE/dKlS2J8hVzF0qVLfZ544glnVweY3GuMr9n05kbjS9NLqfpfsmRJ/Z133rHt3bt3eUxMTC3UOT9MFwRBEITcR4UKFbp5eHgcxqgDuib4USoAupKr5XNSTBOfNh8zZowYXyFXwW4A8+bNC2zZsmV9GNpNed34qgfd+CBsq1atHAsWLNgWHx//HOpcbalzgiAIQq4CganA4MGDi7m5ub123333XeQkpYxMrZrual5uEB9sY9oqV66sDxkyRD916pQYXyHXQOM7Y8aMKq1bt34c5XSH8eE2o+nNKaNrlrG+U2YDTNNL0QD7+flpb7zxRsT58+eXx8XFvcRjxTYEQRAEIXewYsUKL/7leu+9974L4xvJwIbJVwU89ds83dW83KDChQs70xYcHKz3799fP3r0qBhfIdeAcug2ceLEhg0aNHgJ5XRfXja+bPFV7/TlOPv9dunSxb58+fL4yMhI6esrCIIg5C4GDhxYPSQkZBAC1xoEsiQGMHOgw2J5Sh4eHs4h3y/as2dP/cCBA2J8hVwDymGB4cOHP165cuWP3dzcTsDwambj+z/Tm7uNL40urxkcqvnpfevtFy9eXIZ650mjj+0IgiAIQs7TokWLjv7+/msKFSp0GUHYnh+MLz+pyiGOS+/Ro4e+b9++S2J8hdwCyqE7bjh748bsl4IFC4Yr05sXja9q5eVQXSuKFy+uP/PMMw7Uu7U41jKoe16YLgiCIAg5T8OGDfvC8B5DALYhgGnGAJZXxUDMIU18q1at9M2bN0c7HI7RCMLlIQ/ME4QcY+fOnYVxQzayQoUKu3DDGWc0kpTRZOaGumhOjzGtvF4oqXm88QwNDeWrzQ5ZLJY3UOcehu7DtgRBEAQhZwkKChoEoxhO00vDqAIvZuVZ8Rg45PE0btxYX7lyZWJSUtLPmqZ1h4IxTxByjKNHj3q1a9fui9KlS4fD+KYpE6lkNJm5oS6a02NOr1msd+xmNGHChKTt27cfTktL+0hafQVBEIQchQ+1de3aNdjf3/8TBKo4Bqv8YnwpdRw1atTQ58yZkxoeHr7D4XCMQQBugPmCkGPwq224IfvR09MzpWDBgg5jqymlDKTRbOZknTSnQ6UvI3EZ9rNv27at48cff7RER0cvQr0rjm0JgiAIQs4QFhZW08/P72UEqjUwvCn5zfjyWDjkmx0mT55sPXXq1GkE33nQo7r09RVykC1bthSrXr36CtQ1u9n05gfjyy5GRYoUcfaxHz9+vOPixYtrUO98sS1BEARByBl69erVFoO5CGQnEWxtKugysGF6npYKvjwWHx8ffejQoY7NmzfHIvj+mZiY2F2Mr5CTfPXVVz4hISHrUU41llV106mUkQHGqjkitX8lla6MxNcJ8r2+rIN8uHTv3r07oqKiHmCrL+qevNdXEARBuPN06NChH4LYfoymIMg6H2rLL8aX5oEv0+ex0Pi+8MIL2qpVqywIvAeSkpJeFOMr5CRhYWE+gYGB6zGqsZzSICoZza8ykspwYvkckdq/ktHkupJaj8fTunVr/Ycffjh58eLFUah3LVAHPTFPEARBEO4sFSpU4Acroo2mN78a3+bNm7Ofr8NqtZ6x2+2vifEVcpJ27dqhWPo4jS/NIcuqkjLAqj4qM6lMJ9a541L7VjKaXFcyrsevJ44aNSr6wIEDq2F6h0B+mCcIgiAId5YiRYqMKVSoUDyDbX43vnzAberUqY6UlJQLML5DxPgKOUndunV9vL29nV0d8POK2aVYdnO78c1IKq3s5sDfXLdkyZJ8p2/a9u3bIxISEr5NTU3lKwWl/gmCIAh3BgQd9rFzQ4Ad7+HhkchAqwKWkgpaeVFMuzLwasiHbEaNGqUlJyeHW63W1yXwCjkJzKBP6dKl16P+Of9tYR00K7caX/XbPP164jt9Fy1aZA8PD/9T07RqUv8EQRCEO8aMGTP8EXTrubm5fe/p6ZlqNLzGIItF86x4DGzxpYEoVKiQ82GbMWPGOCwWyzkY38ESeIWchMYXdW+9u7u7xo89KJOrlNuNb0YyLmdU+jt9tYMHD26D8a0h9U8QBEG4YwwcOLA6gu3zCKZrPTw80hiYVHA1B1klrJbnxNcp8S9jPz8/vWHDhtr3c7+3paWlnULgfVUCr5CTsI+vr6/vehhbjTdlRsObF1p8M5JxOaMCAgL0l156SV+zZs2emJiYWlL/BEEQhDtGkyZNOsPw/oiAdMbd3d3OwGQ0vcYgq4TV8pxgLJytvkFBQfq4ceMcu3fvjrNYLJtgfOV1ZkKOMn/+/GK1a9deDWPrwM9rTG9+M77sZ//www/rM2bMOG632/uyuwN0P9YRBEEQhNsLDOFwBKOjUCoCq8bAZDS9xiCrhNXynGga1BsdYHqt0dHRx1NTU/lwTSvMF+Mr5Bhnz54tNnLkyOUwv3Z2xaHRNT/cpgywqo9YLc+Kx8DuDh9++GF4ZGTklNjY2CdhfOWDFoIgCMId4SME0ijIoYyt0fSqQGsU1slT4lPlNL6NGjXSP/nkEx3BNgmGd2laWlpvBNyKWEYQcgxd1wvjZmzka6+9thOGME6Z3vxsfL28vPR+/fol7dixY29MTMx41MNK8s+LIAiCcCf4AoEoRZlcV8ptxtecHrPMy7Olt3z58vxim37q1CkdpjfKbrcPR7Dll6MKYBlByDFQBu9JTEystnLlyg7du3f/q0iRIg6aXHbNUQ9l5ifjy+Pg8IknnnAsXLgwOTo6ei3qYgMxvoIgCMJtY9KkSV4PPPBAIEZ/QDC1Go2uWTcylnda5vSYZV6ery97+eWX9XXr1mkpKSk2q9V6GIH2WQm0Qm4B5dHr8uXLATNmzFhUrVq1NBjeKx+zyG/Gl//AcNiqVStt+vTpDhz3Lhx/M6mPgiAIwm2jV69eQQEBAc0xuvzee++1sSuAK7kyv1gnR2RMA5WRMadZ4PKcx/GHHnpIX7BggR4REWFPS0uLsVgsaxBo20qgFXILbPWFCvzzzz/TR4wYEVOjRg2bKtv5rauDOp7g4GB90KBB+pkzZw7h2FtIfRQEQRBuG23atGnl4eHxsZub2wEYXIfZ8Cq5MpdYPUdkTAPlKm1Kap06dero7733nr5//37dZrUl2+32LTC/78P41sZ8QchVJCQkvPLnn3+u7tKlyyUYRGerb34zvjwODvnqNj5s+vfff59AvewK41sEcsM8QRAEQchemjZtOhQBdBeCKh+m0VRgpXK78VVpMqfRKHUc/fr103ft2qUnJibqFoslPC4ubiRMbw3+tYxtCkKuAsav/Pnz51tMmjRpbaNGjWx8521+M748BtZNPuBG47ty5cqzycnJA1AnK0LyWjNBEAQh+0FQnYgAGoVRmwqsykQqQ6l+q2CrhHVyRGr/Kk3GNKoh57MlqWjRonqNGjX06dOn6wkJCQ6bzWaB6d0qry8T8gLbt29/b8iQISdDQ0Mt7O/L+sluOyznmJ2npboi8bpTrVo1/YcffogCX6elpXWG8S0lXR4EQRCEbKd27dqzEUwtkMZAxCCkjCOHDLSUmoZVclzK+CoxbRQ/82o0BTS+lStX1gcOHKhv3bqVb3FISklJ2REbGzuOT89jGUHI1URHRzdeuXLliPbt2+8qVqyYFZOcD4WxTnI8L4v1U42XLVtWf+utt5L37t37N0zvBJjeUDG+giAIQrZTrly5HzGwQ86ASuOrDG5eMr40uzS9FNOrzG/16tX1H3/8ke/s1WB4zyQkJEyAAW6DoOqD+YKQq2FXnGPHjgWOGDFiWtWqVWNRP539ffNDiy8/0qGuKXzV4IsvvmjbuHHjZYfDsRzH3VyMryAIgpDt8DPFGDiNLwNRXmvxZbqMYlppfmniS5QooXfo0IFfaHPYrfaUpKSkjel/owYiqLpjW4KQq0E5dYMKL1269I0ePXrs9/T0TMJkjWWds/Oy1LWG46yvbdq00RYuXGhLSUnZi2N+AroH8wRBEATh1gkLC3MvXbp0MQSeRffee6/zE6nqL1QGI2Uq2bJEqWlYNcd1PeNL8TjY7aFFixb6pEmT+LGKFJjdo9BUSL7QJuQ5jh071mHChAnfBwUFnYRhtOWWungr4rVG1WPWWb555dtvv+UDqKdRT7uL8RUEQRCyjQEDBgQXLFiwOYLPHxg62PpCmY2vkgpQRmEzd1xq38a0KXPOtHt7e+seHh56qVKl9DfffFOHYeDry86mpqaO01I1dnHwxnYEIU8RFxcXsmTJkg5PPvnkYh8fnxTWVUzOk1J1mHXWWJdZZ4cPH66fOHHirN1uf0aMryAIgpBt9O3bt4mbm9tgd3f3PZDT+Jpbd9UwI2Ezd1xq3ypYUsr08hjYcs03OdSvX1//4fsfdIfDodlsti2apoVgfUHI04wdO3ZklSpVLudU/csOGeuwsS77+vrq/fv31/fs2XM+KSmJX1QU4ysIgiBkDx06dHgWxnduwYIFz8EwaubWFxWcrids5o7LuH+mU5l1ZX65DB+Ueeedd/QdO3bYYHzjY2Nj58fExJTBPEHI06xYseKVRx555GDhwoVT8VODrtQLNVRS83KbjGmk1DWH3ZO6d+/OT4qfR30V4ysIgiBkHw899NAIGMWdUByCjmYOQsbAlJGwmTsu4/6ZTqPxVb/5TtDff/+dH6pISElJ+dtms43RNM0f6wtCnmbPnj1P9e3bd1lgYGA4fjofSlX1lePG+sHfuVHGNFLqmsN/bB5//HF92bJlF0AfGF93Mb+CIAhCtlCxYsVJMIkXEXgs+OkyIFFqXm4T06YCJkXDy2ns6tCyZUv9n3/+Yd/eEzC978L0tkIALYz1BCFPg3Jd67PPPnutevXq61DekzHpSr98StXbzIjr5qTM6SlSpIjetGlT/cMPP7x8/vz5z1F3H5YbVkEQBCFbCAgI+B6BMgWjDshlIKLUvNwmpk0Fe0q1+gYHBzs/T3z8+HHdbrWvR+D0xPKCkC9gK+jWrVv9O3bsGObm5ubs66uMr7r5y6y4uZyUOT18KLVmzZp8wC3x7Nmzv1ksltdQf6vgmOV9voIgCMKt4e7uvhDBxobRK/0E84pUoDSbXrb2tm7dWp85c6YWERFhs9vtyxA45Zv/Qr4BJtBt//79HkOHDh1WtGjRKFX+2U1A1Qc1TY2r+mIWN5eTMqeHrzTju7d79eplOXny5BGbzTZTS9GaivEVBEEQsoPlUJ4zvZQKlMYgz1YvLy8v/fnnn9c3bNhgT0hISHI4HN+L8RXyI1OmTBlYpUqVS7zZ4wdbKFUfVJ1Q46wrWOWqumOcllMypoViHebxdOzY0X706NFYW5rtD9TfJ2F8pZ+vIAiCcMushPJNay8Dv5+fnz5q1CgdpjcaAXOj3W5/A8OCWE8Q8hXz589//sknnzyIcp/Gt7Kwf6yqE8Z6QWHxXCmj6VV1msa3QYMG2t69e9Nw43oA9fc5Mb6CIAhCdrAKyjfGl3+TVqhQQf/kk080i8WyBwHzRai+BE0hP/LHH388PmDAgNU+Pj6X3dzc7IULF75SJ1S9YAtqXjK+TCtvYGvVqqVv3LhRw43reai/1GFBEAThplm/fr17UFAQv162FsrTxlcFd/UXKT9RPG/ePA2Bkn+R1oZKYh1ByHecPXv2walTp35csWLFnagLzi+5GY0v6wSnccj6glVynVRdVlLdNcqXL68vWrRIj4+Pj7BarQPF+AqCIAg3zZYtW4qVKVOmHALNBvzM88ZXmV8a30GDBumrV692wPD+CnkiYBbAOoKQ74iMjCy5bNmy1nXr1p2OOhDNemA2vkqsL1gl10nVZSXWYU7nA27ffvutHhEREZmYmDhIjK8gCIJwUyCAuE2aNKl2SEjIMwiUezgpL0uZX47zNWYzZszQL1265ABLcKzyJLiQb0H59tizZ0+5J598clixYsUush6YRdPLIesJV8ltMhtfdlfidNblMWPG6Pv3749KTk4eLMZXEARBuCl27txZOCwsrHupUqVmINCcw6RrglFeEoMlAzvHq1atqi9fvpxfaxPjK+R7aAZZn59//vneqM/nlMl1pbxifNnVgdNLly6tv/766/r27dujrFarGF9BEATh5lixYoVXz5493yxSpMgm/IyBrglGeU3sx8jg/sADD+gwArqmaVYEygVifIW7gZdffrl7hQoVzri5uV1jeI1S5hKr5BoZTS9F887pPj4++jPPPKOvWrVKjK8gCIJw88yfP7/Yo48+OtHd3f0UfvKrbdcEo7wkBksaX/5F2rhxY33v3r3s35sIfS3GV7gbGDp0aLcaNWqcgrnVzGbXKGUusUqukUqTkmqZ5vu427Ztq//yyy9ifAVBEISb56uvvvJBkPwOo7H33Xcfv9p2TTDKS1IP8Xh6eupt2rTRjxw5YoHpPW+z2SaI8RXuBqZNm9apSZMmh2FuHawPRhmNL3/nduPLaUxn8eLF9YceekjHsUVZLBYxvoIgCMLNMX78eL+QkJBFCDJpDJSYdE0wyktikKTxLVq0qP7EE09o/NoTjO8Ou93+hhhf4W5gxowZjzVv3nwL6kIKdJX5zavGlzey1atXF+MrCIIg3BoIkv7gN5hFBsg8+blioxgk+UAMX3/UvXt37ciRI+dgfH9MS0t7VoyvcDcwd+7cpu3atVuMuhAJ2VgnlMzGlzIbzZyUMS0U08np7L5UpkwZ/csvv7wM48ubWHcxv4IgCEKW+fTTT0t6eXmtQ2DRGAQxKU+LwZL9ewMDA/WePXs6YHz/sdvto1JTU5tjviDke3788cc6TzzxxOeoC/tRp9nqm2eNLw0vp/NfHNZpGN8Y3MR+gJvZABjfwpgnCIIgCJmHxhdB5U8GQhVk8oP43s+BAwfajx8/vgFB8nGLxVIR0wUh37Nr166QZ599dgiM4yoY2zij2TUqLxlfprNs2bL6Z599Fgfj+znqdB2oOOYJgiAIQuZJN74bGVjUOzPzg6pUqaK/8cYbttOnTy9BgKwIFcN0Qcj3nDhxwr9fv36PwThOhsGNMBtepbxgfNU1ienkK80++uijxKSkpB9Rnzvoul5Wui8JgiAIWWL06NEBML6bGQjzk/ENDQ3Vw8LCrOHh4XMkOAp3E/yIxYABA4Ld3NxeRb0+Dbl8rVluNb4qXZSHh8eVd/lyOHz48ORLly6ttlqt/WB+a0jdFgRBELKE0fjmp64O/HjF2LFjrQiSYnyFuwqUd7fBgwcXu//++59GvT4B5VnjW6RIEafhVemDoU89ffr0tvj4+HeTk5MbSN0WBEEQsoQyvgwuDDSYlKelgnfLli31r7/+WoyvcDfTEvXhEOq188FVKjcaX7VvlR4lppHXJXVt4vCFF15I2759+4HLly9P1TStudRtQRAEIUsMHjz4ivHFzzwvBkgOxfgKQv4xvmq8e/fu1nXr1p2E8Z0L4/sY6ra80kwQBEHIPM8991y+Nr7Sx1e4i8mTxlelT5leo5566inbsmXLLsTFxS2F8e0oxlcQBEHIEm3btg1AkNnEQIOfeV4MnByK8RWEvNviq9JoNr7t27e3//TTT5fj4+PXwfg+LcZXEARByBINGjQIQNDZxGCDn3leDKB8SK9x48b6559/bj1//rwYX+GupGDBgi1hHg9Buf7hNmMazObXqMcee8zxww8/xMfGxm6D8X1ejK8gCIKQJZTxzcmgl53icbBlqH79+vrHH39sPXPmjBhf4a7Ey8srTxpfKiPzC+OrzZs3Lzk6Onqv1WrtK8ZXEARByBI0vhjkG+OrAjrf4/vuu++K8RXuWvKj8W3bti2NrwXG94imaa+K8RUEQRCyRH41vtWqVdNHjBghxle466AZ7Nu3b+ECBQp0QH04Cl0xvspQUspgGg0nV88JGdNAqTSqdCulG1/r5cuXT8L4vibGVxAEQcgS+c348jgYICtUqMCX3VuPHTsmxle4q0B5LzBw4EB/jD6HunDlAxZGw5uRuHpOypwelWYlXK/06dOn26Kios7C+A4R4ysIgiBkCaPxpTCep8VjYJAvV66c3rdvX9vhw4fnIUAWQoB0w3xByPesX7/e+9VXX33Qzc0tDHXhPOuDMr7mOq7qvZJxXk7InB5Xxverr76yR0REnEe9fkOMryAIgpAllPFVgQXjeVrqOEqVKqX36NGDxvdnBMhSCJAemC8I+Z6lS5eW6dy58wswvvNgeC/nN+M7ffp0x6VLly6I8RUEQRCyTH41vr6+vnqnTp1sR48eXY4AWQfiX7+CkO/59ddfq7Rp0yYM9YD1OiE/Gd+GDRuyxdcRERFB4/umGF9BEAQhS+Q340sVLFhQ9/b21tu1a2c/dOjQnwiQTyJAVsY8Qcj3fPrppw+0bNlyGurzYShF1W3KbCzNwuo5KnN6jGmnmjZtqn/zzTfOFl+r1SotvoIgCELWyI/G193dXffw8ODX2xyHDx/eZbfbX4P5bYB5gpDv+fzzzx96+OGHf0F9Doesqm5TZmNpFlbPUZnTY0w7hePSZ8+ebY+OjpY+voIgCELWyY9dHfjltvSvtzkOHDhwxOFwTESQbIsgKW93EPI9Y8aMaVmvXr319957bwLqg0PVbcpsLM3C6jkqpsGYXrNatWqlf//99/b4+Hi+1WGoGF9BEAQhSxiNb24IfLcqHge/3MZjqVu3rgbjew4Bcj70nBhf4W4gLCzs8dDQ0F0wvmmoD5oyjaqOX09YPUfFNBjTa9ajjz7K9/jakpKSTqNODxLjKwiCIGSJ5557zml82TUAwzwvY5CsUKGCtmvXrssIkOzny5fdi/EV8j0vv/zyU1WqVDkI42s3G9sbCavfcal9G+supR7KM6pDhw7akiVL0iIjI4+hTg8Q4ysIgiBkidGjRzuNL+QyKOU1GYMmje+WLVuSHA7HwdTU1HfF+Ap3A88++2zXwMDAEzCTmjKVmRVWv+NS+zaaXlWHzerYsaP266+/psbGxh6E8e0nxlcQBEHIEkbjm1OBLztlDJr8etvy5cvTYmJiIlJSUj4T4yvcDbRp06abp6fnaYxeZSQpZTIzEte501L7VmlUJpddltS4Urdu3RwrV65MSkhI2APj20eMryAIgpAl3nrrrZIIKJv4MBgDDSblaRmDJ43vjBkzHKdPn05KTk6eJcZXuBto2rRpd5T/sxi9Uh+UjCZXicvlpFQ6jOlk/eX1SJlfNezRo4djzZo18YmJidtgfJ8X4ysIgiBkCWV8VXDBpDwtFUB5PPyIxfDhw7UdO3akWSyWH8X4CncDNWrU6I6BS+NrVG4wvUrK/BoNsLomFSpUyPlubo536tTJvmnTpsu4kV0P49tDjK8gCIKQJWh8EWw2MshQmJSnZQycfGAPgVL/6aefHNY062IxvsLdQKVKlZzGl/VZ1QVXYl3BcrlCyvQqMX3K+HLIf6RYn3v37m3ftWtXeGpqKr/I2EmMryAIgpAl0o3vn/nF+FLGwFm3bl191qxZDrBEjK9wNxASEuI0vvyQi6rXSmbjS2HZHJdKi5JKo/oXimn38/PThw0bZjt27NgZmF6+orC9GF9BEAQhS6Qb3w0MMgwumJTnZQycXl5e+tixYx1JSUlifIW7gqCgIKfxZRcBo+mlVL2glMnEsjkulRYllUZ1TeKwdOnSrMvWCxcuHIHpnQ61lDotCIIgZIlPP/20pLe39zoEG+eL7jEpT8scQPkX6dtvv80W36USJIX8DFs/mzVr5l64cOFe+HmO/WKNptcsZX65am6Ruf6qaxLrce3atfm5Yovdbt8J0zsOaiR1WhAEQcgSNL7+/v5rEWTypfHlX6X9+/d3nD17VoyvkK9ZsGBBARhfbzc3t1fw84LqH5uR8oLxVemjiU83vikwvutgegdBtaROC4IgCFlixowZ/oGBgasQCB34qUHXBKO8JHPQZPDv3Lmztnbt2o2XL19ugGAZiOUEId/Bugz+i7o8FWX/Mo2t0egqcboyvWZhMzmqjNKkjO+sWbMSYXwXoB53hOktL8ZXEARByBJLlizxDw4OXgaDaMPPfGl8W7VqpX333XeHLly48JaWqj2CYCkPxAj5jnfeeadWsWLF3ka5/xM/k/Kj8Z09e3aszWb7DMa3OupxUcwTBEEQhMwDQ+j30EMPLShcuHAKfrLV95pglJdkDprsG1itWjU+DR5+9uzZX1JTU19EwLwPywpCvqJnz54tMJiHcs+vtllZ/pXJVYbXWDeUsGyuUUZp8/T01Fu3bq1/88030VarNQzG1w/12B3zBEEQBCHzLF261OeFF16YVbx48Wj8tEJXBaK8JnPgZItviRIl9GeeeSbxAEhLSxuNoFkIywpCvqJDhw5dMdgOJUHOm1hzfchoWm6ROW0qfT4+PvrTTz+tL1q06LLdbn+Dplf+uREEQRCyzNmzZ4tNmjTp06CgoJP4yVbfa4JRXpKroMm/SVu3bm09dOgQW4u+hvG9H9MFIV/x4IMP9sbgOGSHrqkbeUHm+suWak4PCAjQBw0apG/fvj0KxnewmF5BEAThpjh69KjXypUr36xcufIm/IyBrglGeUnmwMlp7O7w3//+V/vrr79sML5LxfgK+ZGKFSv2x+ACdE29yCsy11/+Y8Pp5cuX199//3392LFjYnwFQRCEmwcBpPDevXu716pVa4abm9s5TsrLyihwwhToS5Ys0ePi4n6H8fXENEHIF6xfv969ZcuWfoULFx6Fn5eha+pFXpG5/vKmldP9/f3177//Xr98+bIYX0EQBOHmQQBx2759e2iNGjWehvH9m5PyssyBk8aXD/WUK1dOnzx5sn769Gm+A1SMr5BvmDdvXmDNmjVbY/RbKB5yWTfygsz1V3V1KFu2rL5s2TI9OTlZjK8gCIJwa7C7Q4MGDQJgEtfjZ55+pRmDpXqSnWKLEafx08U9e/bUN27cuAlBsyxburG8IOR53nrrrQdLlCjB1t4tUJ7up280vUqsxzD2+rZt23SHwxGJG9dBYnwFQRCEm4ZffAoJCfFyc3Nbg5/5yvjywTYVQJs2bap/9913+1NSUp69dOlSKIJnAawjCHkavs3Bw8Njzb333huJn3n2wTZK1VUlTuPNa/369fWDBw/S+IbD+A4Q4ysIgiDcMiVLllyJQZ4zvipIGg0vxb9JVVcHytvbWx87duy5+Pj4LxE8u0qXByE/EBQUNAQ3eGdQ3vO06aWMppfi+3uLFi2qP/nEk/rhw4fhex2nUW9fEuMrCIIg3DLlypXLd8ZXSRngF154IWXbtm3HY2NjJyF4lsD6gpCn8fLyegvlOxLKd19edHd3d/bP79Onj+PkyZMpML47YXyfFuMrCIIg3DKhoaG/IthcFTzNgcgs47I5JZUWs+Gl2aWMvx9++GHtiy++sF26dGkNgmd5rC8IeRKav86dOxdA2R6Dn/Es+5ycl2Wsx2q8YcOG+nvvvWc7f/48uznwdYSP4dj/g+UFQRAE4eZp0KDBzwg2/HrbFfOrTGVGUsvlpFRaVMA0G1+j+eX7QLt27aodOXJkEwJoCNYXhDzJ+++/X6V69eo9ChYsuAI/UyGX9SMvifVY1VV1fXn00Uf1KVOmpERERGxHnR0D1RPjKwiCINwy7dq1+9bT0/PK504pZSaVlMnMSGq9Oym1b2V6ldnlQzFG80vx7Q785v+SJUv+io+Pr4j1BSFP8jjw8PCYhbJ/DD/z/OfGlVhv1ft7WZ/bt2+vL1++PCY6Onq2zWZ7Esa3tBhfQRAE4Zbp06fPeBjfMxi90nqU34wv3/JQvXp1/Z133jm/ffv2iZpFa49AWgzbEYQ8RUBAwECU+31QIqSxDmBynhfrKMVx9vHt1auXvnnz5sioqKj3UVerw/QWwTxBEARBuDWGDRs21MPDg+8C5aeLnd0d1N+OSq6MMJfLSTENSkbj60pcpnjx4nrz5s2TlyxZcjAhIWFSXFycdHkQ8hy+vr6foDw7+/YqYXKeF80uxXG+1WHEiBH6iRMnLsTGxvaC6S0AyYNtgiAIwq0TFhbWCYHmS4yeQhDNl8aX89maFBwcbJ80aVLi5cuXl0dGRtbGdgQhTzB69OiAypUrN0A5/gVl3mKsj5id52Xs6sA++ainelRU1Pm0tLRnxfQKgiAI2casWbNC69Sp093Dw2MbTKKzn6/R9JqVG0yvUcr4KplNL6VaknCMepcuXbSVK1fuuXTpUmNME4Q8Qbt27RrCGA5BGd6Ocm5VN6BGYbE8K3VtYX/8Ro0a6bNnz9btdvt5TdPE+AqCIAjZx4YNG0q+9tproQEBAavx01GoUKGrjKRZuS3AMj3G9F3P+HIcJl8fNmxYxMmTJ6fYbLbHEVj9ME8QcjU1atR4Ecb3d5TlSJRzR34zvqrlml2SXnjhBX3VqlV6amrq6cTExO5ifAVBEIRsg/3nFixY4FGlSpVf8NNuNpJm5aYgq9Ki/vJVaTQbXyUuy1bfunXrWpYuXXoqMjLyWxjfB7AtQcjVFC1a9POCBQvGoHw7WJZVWVdlPzfVy6yK6VfHVKpUKX38+PH60aNHNbvdfgzGt6sYX0EQBCHbqVq16o8IPHb2s1NB1ZVyU4BVabme8VXz2MeX87heYGCgo1evXqkrVqzYlZqa2is5OZmvSnLHPEHIVbzxxhsVfHx8HitUqNA63LTZjCaRUuU7N9XLrIrHwX9lOAwICNDnzZvniI2NTcVN6TaLxdI+LCxMjK8gCIKQvdSrV+9HmEO70SwqqSCrAm1uM75KGaWXMpqFwoUL6zD62vDhwy/s379/UlJSUmsEWX9sUxByFQ0aNODHKuZBZ1FuNZZj482pKt+qDmCVPCemnzemHA8NDdX/+OMPq8PhuICb0QVQE0je3ysIgiBkL61bt57p5eWVglFNBVMlFWRVoM0tAVYFeyVX6XUlGt+iRYvqTZo0Sfnkk0/+OnXq1Icwv3WwTUHIFSxdutTniSeeqOjh4THF3d39BIxhCltFaRDzo/Gloff29nZ+uGLfvn2JML5/Wq3WkbghrSrGVxAEQch2Bg8ePCYkJIQfsrjqVUmU0TSqaUbDiXVyRMY0UK7S60o0D1SpUqW0Nm3apH7//fe7z5w500UCrJAbCAsLc3vttdfqV6pU6SUYws0oq6kwu5oyvXnV+GaURnUc1apV44On+sWLF8NheD+y2WwPY1gcywiCIAhC9jJp0qS+TZs2XYOgGokgdFWrrwqyKkDllgCrAqmSSptxaJQ6BrU+32BRrlw5/bnnnotdsWLFtISEhIeky4OQ08D4ulevXv3l+++/fwmMb4QyuxRbRilVFylV/rFqrlZG6eTxcPrDDz+sT506lcb3ZEpKSneaXtyMumEZQRAEQchetm/f3rR3794jEFD/RjC18+tJlAquuTnIqjQZ5Wq6OgZlgJWJCA4Oto0cOfLc4cOHf0GwbSctv0JO0qxZM2/clM1GmY2DbKq8KpnrohJWzVUypy8jcVkeV5cuXfT169frSUlJx9NfNVgQdVEebBMEQRCyn8jIyJIwf/UKFizIViYrW0MpGkMVaFWwxeK5SuYgmpHUMSgDoYwv/0J+6KGHHBMnTrx45syZjxBwKyHgemMdQbhjLFiwoEDHjh0reHh4dEBZ/hvSWKaN9Y9SZV0Jq+ZKmdOZkbgs+93369dPP336NN/fewhqITeggiAIwm0DQcZjxowZ/kWKFJkDw5tmNIVG86sCVW6SOYhmJHUMZuNLFS9eXGvVqlXqzJkz9x4+fHiyzWZrJYFXuJM8+eSTJX19fSegHB+Ekozl2igsmidkTrfxGmIUrzGVKlVyvr83ISHBYbFY/tZSteZS/wRBEITbTv369b/09PRMVQaR3R04NAYtLJarZAyiruYrqWNQplcN2drE+TS/HTp0SJ41a9aB06dPj7x06VIJBN/CmCcItw0+zNatWzd/Hx+fR/FzN8qxs6U3I2GZPCFzuo3XEEotg5ttvXXr1voPP/zgfH+v3Wb/Q9O0RmJ8BUEQhNvOG2+8MdnPzy8Jo05TyC+dsUVGBS0VuDg/t0gFUqUbzeerzHhsHOeQv728vJwv0Q8ICHC0bds2fsqUKZuPHTv2ni3V9jC2IQi3DdxslS1RosQolMfNqF+xxrKaGWETuULmdBmvGWYZ0+3v768PGTJE37hxY0pSUtJhm802Baa3shhfQRAE4bYza9asT8qVKxeLUefL8ml62SLKcVdBKzfIGGxdpc08nyaXrb0cp9nl8bE/M4+VT877+PhoDRs2jB01atSO9evXv65pmieCcAFsSxCyDZSpezp37uxRsmTJ1iiLWzEpDfXruq29rsRN5QaZ06WuF0apf4+M69WsWVOfPn26fvz48Uir1fod6ttzyJsSmCcIgiAIt5ctW7YMql279h6YwESYXQ2TnMaQBlEFr9wUbClzwL3RfB4LhzTzNMHK1Cujz3WwjK1atWox/fv337p69eqPz50796i0QAnZSfPmzav5+fmNxU3XFpS9GJTBLJteCpvKFTKnS10vKBpeJVXHKF5b+BqzdevW6cnJySdhel+D6vBmE/MFQRAE4fZy+PDhJxo3bvydp6fnCTc3NzsmOVtBaRZVa01uCraUOeDeaL4KvDwefi1KHReNL4+T89nFA4ZEgzFJ7tSp07GFCxe+L8ZXyE5Qxp7EYD9uvuz8x4FlEL9dltnrSa2T0zKnS5leSpleStU/LlO8eHG9R48e+t69e3WbzbYHhre21DNBEAThjhEeHl594MCBz4eEhKyF4bVgkjNY0fxyyGDFablJxmCbGakWXwZkPrxHw6vEeTQhyuhjOTv7PDdv3vzg6NGj5/7+++/8G/Ze7FcQskRYWJjP448/Xrt8+fIvoHx9ibK1E5MTYXw13mjldeOrpNJlNr2qjvFaopatWrWq/u677+oRERE6TO/fSUlJtcT4CoIgCHcMBB23BQsWeLRv3/5TBKlEBmQVuNKN4FVBLjdIBdrMiMfAFiej0eVvBmPVsm0yvmo5R5UqVVL79u27YP78+YWwX0HIEvXr169QokSJ51CWfkFZc3ZtYBljWeNf/hzHYlku02qd3CKVroyML8XlWO9atGjh7N974cIFGt/dYnwFQRCEHOHdd9/9gMEZo1cCF3UnAq0KnEquljFKBVgl8/pmMfDS3FI0uyoYc5zBmEaEQx6vCtzp+9KCgoLOPfroo/OmTJky9sCBA72sVmsDBGoPzBMEl7Rq1apW+fLlX8LodJSrP2Fyz6Os2VR5ZdljmWP5U3UsK8J2c5WYJlVvKGP9UsfI+sW3qbz88sv6li1bHNHR0SmoS8tRl+RtDoIgCMKd55NPPhnl7+8fiVFnqxQDF4MZft92ZTWwKwOhZF7fldiSTXGcx6aCtDK/KkCrbarf/Fu6ePHittDQ0HO9e/deMXXq1Nd37dpVCukQBJcUK1bseRjb9RgNR1lLg/F11ilVFlX5UuUws2VYCdvNVWKaeAw8ForHRfEYKc5j3StRooT+wQcf6OHh4SnJycnHLRbLZE3TAsX4CoIgCHecZcuWPde6deuNCFQxCNoOBi4GLMy6bTIHdO7vdsi8H+O+jIFamRDjdJri9NbgNBia8IYNG24dMWLEV4sWLepz4MCBCgja7tA9OB7hLuXtt98ObNOmTRM/P78+hQoV+hiTNkC8ibRCzjelsExxSBnLoLFMZlZqOzktlR5jnVH1Rpleiv+0BAYG6k899ZT+008/8W0O4TC8s6BnoWLYliAIgiDcWY4fP173888/HxocHPwnfqYyoKnAxWCGadkuFTjNAVQZUWVGKTXvZmTej3HfnK/2ofZjHNL08m9ppgXTHBhPq1KlSkLbtm03DBs27MktW7YUg/GVd/7exQQEBPy3cOHCYShPG2Hy+E5sGl4HdE2ZdyVVFjMrV9vICan0sK4Y65HZ+HLZMmXK6JMnT9ZPnDjBtznshuFtDpVC3XHDfEEQBEG4syAI+a9evbpB/fr1Z+BnAgOa0fiqIEdhfrZIbc8YOM3bV/NVQDWaYSW1fkZS+1G63v7N2+VQBXL+5nowwxrMzmXk1dKnn356LBi0YsWK9tHR0YGYL+RjaNRGjx4d0Llz57qVKlXqUaxYsTCUhx+hHShLl7GIs4U3K1LlMLNytY2ckEqPsZ6YTS/FN6k8+OCD+uLFi7WkpCQHrjW/Qb7YhiAIgiDkDGy1ZOtlq1at3nd3d49hwFJBVgU4JU7LDjFgcnscquBJ8SEYJX7Xnx+dYB9BPgnPv03ZCsv0KROs1s9IGaVf/VbLqf0bxelcluPct1oe0xz4nQpdrlWr1tHnn3/+p08//bQtpkt/xXxM3759C4eGhrZAmRyOn3+iLPBtDSkwd+zLm+lWXqNUOcysXG0jJ6TSw/pAqTrDuskh/ynhOLs5dOrUie/utVsslkSHw/EjjG9xbEMQBEEQcpbRo0f3e/DBB88ikDkYvDDpqiCXnYFXGVcGRz8/P+fL7cuUKaPVrl3b0bp1a1vnzp2tVMuWLW1169Z1VKhQQQsODnYaUJpgBlYVXLkdY2sTf6uAbJbxWCjzfK57PamWrXRpMD0W6GzZsmXnNm/efMC4ceP6LFmypOOJEycq4jiFPMzOnTsLf/bZZxWefvrpZiEhId1heIfhxms2tBFlL9rVTVhW64i5PN5IrraREzKmyVhvVD1SD5OiPusff/yxfurUqTiY3h0wvaNwoy1vRhEEQRBynu+++65b+/btt8DIJSCYO1uwjAGO4rRblQqUbNFt3Lix/tprr+kfffSRPmPGDOvq1atjNmzYcG7Tpk0HMTyCIcdjfvvtN8uPP/7oQBDVXnnlFb1BgwZ66dKlrzK6HBpM6VWBWMl8POb5FNfLSMbtU9i/BtkgfpwgolKlSiceeeSRDT179uyLY5UW4DxMx44dgypXrtynRIkSs2B0/2YLP8xuApSKc+98CFSVC1V2slpHzOXxRnK1jZyQOV3q+DmP+cKbU47jeqLjRlCLjo7em5aW9gyMbx0Y3/swTxAEQRBylgMHDjQdMWLENF9f34MI5hYVyI3CYrcsmlUOy5Ur5zS969at08LDw+1xcXGRCIxbrVbrwpSUlGkYfo3fC6FNdrv9SGxsbPjp06djVqxYkfjJJ58k9uvXL6V58+Y2tgazJZjbZJppRLgPBmAVkJXMx2Oer6QMjVncplls+eP+2cqFcTv2HXv//fcvffDBB5996qmnnkaedoJpb7pnz56KFy5c8EHglzdB5CJQnrxmzpwZNHbs2Hq9evVq26JFi6dLlizZHeZtGGYvxnk/BuObqv5p4Dl3VWYoc/nC+teVefkbydU2ckLmdKnjZx1h3WN9YDeH999/Xz9+/LiWmprK9/bKw2yCIAhC7gEGs+Q333zTMjQ0dHrx4sVjGcDMAQ6L3bJoFDmsXr26PmbMGP3IkSMWh8NxIS0tbTkM7qsJCQkdEShbIj1toI5JSUnPx8TEDMTwLfz+4PLly+MSExM/PH/+/MwNGzbsf/fddxMbNWpk9/HxcbY0Md0qCKuArGQ+HvN8o4xGl9uk1G81TY2rvOE40kDzm+Dm5nYOZvgUdCQkJGRh7969h06aNKn5+vXr3bGskEvo06dPtVq1avUsVqzYlzh/23C+TrL7CsYjUA4SUA7SMK7x3LJMuCpXSubyhc1fV+blbyRX28gJmdOljh/5dmXI1t5FixbxFWYOaBnKvRhfQRAEIffxyiuvPOfn53eWBtUczDH7lkUDwW35+vrqMB369u3b41NSUrbruv4ujK0/lskUcXFxwVjv0wMHDuyDYY987rnn0kqUKOHsoqHM781KmV5uh/nAoVGcp6TMkFrHLKzPh+EicDOxumbNmh/jxqLDY4891hz53Gjq1Kk158+fHwBT4C0tYneGoUOH+vXq1at6ixYtGtSuXfuR4ODgod7e3j9Ch3GeLLhx0XjOeT6NZZ9yVVaMMi+f3ULyc5XM6VP/vLBujxo1St+zZw/uaR3JNpttDsr3vZgnCIIgCLmLhQsXdq5evfp+GAB+alUzBjbMvmVxOzQV7BrQvHlzfcqUKXG7du3ampCQMCorxheB1Jstw3a7ffD58+fHzZs7b/aAAQPO8/VJqlXZbEwyK7ORvZHhzYSsWD/ezc0tAuk67u7uvicgIGBjq1atZnfr1q0/zFjTsLAwH+eBCbeTe2rUqNHJ09OTr+77HdrPlnn8jvHy8mJ3hiuml2JZMJZ/czkxy7js7RDSm6tkTh/zgPnWsGFD/ddff9UsFstl1M+NqNdDUF+li48gCIKQ+7h48WKbDh06rPH19Y1FILMbAxtmZ4uUseCnTDt27Jg4efLkPX/99de4S5culcD8mwKBtfDu3bsXTZgwIa127dqa0ZDcrIwBnVJmSBlfNd04PyMp45y+TQd+WwoVKnQGJngxDNdImK/HgoKCQuvVqxfavXv30Ndff73mzJkzq69atary1q1bK+zZs6cc3xccERHhf/bsWX48467tMoFjL3Dq1CnvDRs2lNy0aVPw2rVrqy5btqz69OnTQ0ePHh3ap0+f0JYtWzrzknmK/KVqQ3WR39PYnQFKRv7z4cQr5VKZXnVzo85/bpFK5+2Wq31TN1qO+ceHTp999ln98OHDDtyY7rVarUNgfB/COZOHPQVBEITcB7sQTJw48aVmzZothpmLMwY2zM4WcVs0GPxrtHz58vbmzZsnffjhh4vWrFlTHvNvCgRWt8uXLz+3Y8eO76dOnXr60UcftXMfZnOaWZmPl79dLZcVqW0wXRhntwwLFA2dgQ5g2h4Ysj3+/v67Ydj+aty48ZbWrVuvfeKJJ5Y8/vjjc1599dUpb7/99ltTpkx5dvbs2XV5zFjvruP999+vAHPbBTdN7yNffmzRosX6hg0bbqtbt+7uKlWq7IH52lO8ePE9bFnH4k65ubntQb7vQR6HQ6kYd76ZgcaXD60ZW3o5XZ2v3CQcxx2Rq31T5uVUWVbr8HebNm34L46OGzQ7DO9aqDHKaRkxvoIgCEKupm/fvu2LFSt2DKNOY8AHVlSQcyVzkMyMVKsaX20WGhq6F2bmoVmzZnkvWLCgAALlTf81eunSpZkzZsxIeOCBBxx8RzAmOcXAnBWpdHJd45AyzjdOy0gqDWpZ9ft6giljyzC7SSQhryKLFi16gp+WbtSo0ezHHnusN/KpBPLprmr5DQsLc6tUqVJrHx+fybhJ2IF8iUF+2qArrfzKwKrfKs+VsBmXMi9nXtbVfKOMy+YluTqWzIj1l+I2OOSHZ3r16qXv3LlTt1gsaTC9c1E+pW+vIAiCkPuZPXt2qzp16uyD4XV+0IJ9ctlCaza/DIAZGYwbSW2LQ29v70R/f/9dMHRfjB8/vi3/2r9ZU4eA2+XYsWOzP/roo4O1a9fm17VoIK+kM7MypxebvmqYFZnX4e/ricswX2Ao+Hc83xRhxfQULy+vWBiM8IIFC24aNWrUJLvd3gX5VBTz8j3sB40yUh15Mgb5wxZyfmLbCjlNL/PLqOudx8zIvKx5O2YZl81LcnUsmRHNLvOZ2+AN5sMPP6zjuqHFx8cnoVweQj1851ZuYAVBEAThjrF27drmgwcP3lKyZMk0/NQKFy58lflVwU8ZjoxMxvWkgibXY6svf8PYXWjcuPHot99+u+n8+fOLORNzk+zatevdYcOGna5fv74Fac9yv19zerHJq8yC8bealpHM883rmsVlmB80FzTtFP+OZ+s7xzE/Bcb3RFpa2jSYi7JYJ9/DL6nhBqkDzs1y/LQwj3iemEdKzDOlzJxH0bXlVuWbWa6WU+tXqlRJHzhwoL5jxw57SkrKUWgKjG87Mb6CIAhCniAyMrLiDz/88H5oaOhWGK0EGl6j+aXJYOC7kcm4nrgeduVcD4ZXBWJ+Bvg4zOrW559//repU6d+vGnTpgeYpqwSHx//6JYtWyYNGjRod7Vq1dhdwKHS6Uqu0mgUNnlLysq2uIzKW2XqmEf8zZuEqlWr2mbNmhWTmpr6EwzGXfGJZNwI1WjXrl1PmN/1yIc05gXPm8ofSuWZmufqvGJTIoPM+aPyzSzzcmp95nu9evX4lTY9OjraCtO7DmWyK1QFxlf69gqCIAi5HwQsd3Y36Nq167N+fn7HDC2yzr81aYKNhkMFRq6qZA6USiqQKnNibNHkfiiMa9iXo1GjRqc/+eST3thelgMojwHBt9j69evf6d+//9GyZcumYrLzYwTss6zSrdJOcbXbJWMeXG9far7KI5XH6uaD+f/aa685tm/fngaT8TuOsRrWy/fgJubBDz74YEjdunW3oLzwnwhnHjFvWH44VKbXqDt5jvOiVL4oqfy6kZjfXJ9faXvxxRf1M2fO6Ha7PdXhcMxAmbwf9U/eTS0IgiDkDfgXJVT466+/btayZcvtmOSgGeUX0vz9/Z3mSxkyioHQbCrMAdUstQzNnLe3tzK8Vwww91WqVKmU0NDQv954441xf/zxR0Osk2USExNbrFu37nMcx/5ixYql0bxzH8aWa5We2ynjsV9vf2q+MhjKwHEaPw7w+OOP81PPdhiNBGuadQlMRiWsl++JjY0tt2HDhtavv/76kho1aqSqfOI5FON781L5oqTy60Zi3rIetWvXTp87Z64WFRWVZLPZDsD8DuX1A9sWBEEQhLwDg9e+fftqjhw5ciUNKAKdg6aRhpRDZXozMo/mgGqWWiYj48v3/HIcyzmqV69+fvjw4UMwfjMtvx4xMTFBn3322ScNGzaMYXcNppn9ZZX5Vem5nTIe+/X2p+YbDQbFeY0aNdInTpyoX7x4Mc1qtV6E6f0WCsG8fA/OYwEcq9eyZcumdO7cOZnlhvlE08vzqPLJLJWPN8r3u1UqX5RUft1IrD81a9bUR48ere/evdsaHx+/D8Z3PM7Rf3GupIuDIAiCkPe4fPlywI8//vhOu3btNsHsxtFIMOBxeLPGVwVOZUxoXChleJUB5jRuJ93YpNWvX3/HhAkT3jt8+HATTM8yx44d6/D6668vw7bCcQw2bpfHwn0xHVjktsqcD66WodR8cz4xn7t06aJv3LhRT0lJibJb7YthMvpDmf7iXX4gIiJi5NixYyMqV67sfONIevm4kk9mqXy8Ub7frVL5oqTy60bivw+dOnXSly9fricCGN+fLRZLB96IifEVBEEQ8iRsZTtz5kzwN9980zEkJOQfFRw5y2gu1LTryVVgNW7DKM7jOhzSmLJ1z9PT04ZAe2HWrFmjbiawIiD7LV68uD62MRkmPgaTnOmhoeT47ZY6/syK+cDj5pB9ksuUKaOPGTNGT01NpfHdg+NpDQUiL+6qvpQ45ld+nPfj302aNElyc3PTePNyo7JEqXzFJkQGGcscpfLLLOalWoc3GtWqVdOnTp2qnz59mh+ruJicnPwB6xjK4137VUFBEAQhn3Dw4MGS3bp1WxwcHGyB0XCYW9gyYygyCqzG7ShxOtfhUBlfdocoUaKErU+fPjvWr18/HOavEZbJMrNnz366ZcuW+9iKjH05P1vL48Gs2yp1/JkV84HdSnjsTF/Hjh11GHfNDtLS0n6DySiJ7d514Lhbbtmy5Yt+/fod9PX15fuNr7Tau5IqZypfubzofzKWOUrll1lqed4oBgQE6D169NA3b95sw43YBdTFZRaLpRNMr/TtFQRBEPI+Z8+eLfbTTz991LVr18OlS5dOYncEs7nAYtfIHFRdBVbjdozbU8vS1ND48a9Vtu7VqVPH+s4771w4cuTIuJtp+T169GizcePGfVe3bt1Tnp6eztdisUUVszIl8/HcLvHYVdcPPjn/8ccf68eOHbM6HI4YmL/vIF+k566DrYpRUVH1ZsyYMbN+/fqJzCdMvtLtRslYllR5oris6H8yljlK5ZdZXFblbfPmzfXp06fz9WUJKI+zYX4fwXkphWUEQRAEIe8Dg1n41KlT3WeCFi1anOMDYspYMFiqIRc1yhhQlYzB1PybUmZFzVN9cWlO2QLq5+enP/TQQ/Zvv/12x6VLl15JTk6uh31lGovFUvGff/7pN2rUqIWlSpWKwiTnxy0wvJJmNe5K6jhut9T+aHybNWumr1y5Ur98+XK01Wpdb7fb38A5KYL5dy27du16tVWrVqeQP3aWD6PppVT5VOXKnK+if2Usc5TKL7NY5/mvCz9NPHz4cB03kI64uLizMLz9pKVXEARByFcgsLkhwAUfP378kY8//ngrDKOzbyVnUcpsMECqadcLqBlNN4vGhdul+VUtvzSCfJ3aSy+9lPr777+fSU1N/SgrLb84Di8sX3nZsmWvPvvsszv9/f2db6ww7o/7YdqweIbHc61o/jOW+dhuJJUW9Z7U3bt36zD5e5D2zjiGmjwnPJ67lXPnzj01bNiw34KDgyORV3ZVBo1iHlIqT9W5wuqidF1dhjOuj6zvpUuX1p984kn9+7nfO/hpYpTDHdDTKItifAVBEIT8B83Wnj17ZrRv3z4G5tNGU8HJyphySCmzkVFAVdO4rnEZyricUTQyRgPMh2s+/PBDx9mzZ9ci+NaAsvR2g/Pnz9eeO3ful506dTpSsmTJFG5b7Yf7oHgc5nQZ03q1rjW7Rqn1MyuVj3Xq1HG+MurEiROaNc26WkzGv5w5c+aBed/Pe7dNmzZbkP/JRsOrxPxTZZFS5wqri9L1v/L7r4xl0Cguy08Tz5w5k11u0hwOx1HUua9RHh+G5C0OgiAIQv6DpuvSpUsdx40bN7l+/fonPT09nd0EaDKUKaWU6TAGTmVC1HRlQFwFXjU0yrg+98W/Xnv06KH9/PPPhy9cuPB+ampqGxrzf1N6Y7Csz8GDB1t+/fXXH3Z8ouPJgIAA51fd1L7YtYL7UH+jm9Ohfv9PbjeQefnrS7Wo4yZDX7hwIftTwmdov/Ec/HsEdzfh4eF+q1evbvDMM898XqRIkWiWO5YLJZ4zJXW+VBnD6qJ0qTxRdS6j8l2uXDm9c+fO+q5du/j6shgY3+koj20g6dsrCIIg5F8Q6IrBcFR45ZVXlvj5+VmVyWCw5LhqKTUHTzVNTVcGxBh4VfA1DpWM61PcT9WqVfW+ffvG7N+/f1NSUtIwpK3gv6nMPEePHq39+eefL3300UfjYX5t3C73zY90sE+jequCOkYlLnO1XJlds8zrZCzuE8nTe/Xqpe/cuVNPSEhw4PiWi/G9mkGDBvUtWrToBTG+NydjHWMeqfLNfDOWxyc6PKF/++232qlTp+zJycn8QltnKYuCIAhCvgfBzh3ynjZt2hdNmzaN8vDwsNEcMnCylZJSQdQYSI1S87gcN0mp4GuWeTtGM8Phgw8+aPvmm2/iL1++PAfG8H5nIrMA1vE7e/bs0wjqMx9//PGL/GIct63MLg2VMlVqv/+KXRGuJ37owyhXy2Qsd/fCetGixfXhw9/SY6LjNJvNZnE4HAvEbFzNp59+2qds2bLnWO6MxpdS58pY3iisJkpXRvWM+cf5HKKO6Z988gm7OKSgDO5NTU2diHpTB2VRujgIgiAIdwd//fXXkFGjRm2vWbNmLH46uzzQAFP4fU0gNUrNM5oQFYBdybwtZUC5XlBQkP7qq6/qmzZt2oxgXAniw2tZNof8UMesWbNWd+7c2cZuDzRSNL/qDRbc5500vv/3f/fogYFB+oTxn+p2m8Nqs9qiYX6/ErNxNdOnT3+hQYMGJ3C+nO9kNkqdK2N5o7CaKF0Z1TE1nTeCb7zxhr59+3Z+OOUC6hc/VNEQKo71BUEQBOHuIDo6utGvv/46uG/fvjsCAwPtbBVl1wB2EVDBk1KG0ShOV0YEm7oqALuaZg7KajtchuYUxkefMGHCqbNnz46DOWwLc1gY87IE1vE+efJk359//nl+r169wtmNgq9uopE3pl3JlVm9WrdmfO9zK6jXrVtP/+67ubrD4YiFdtjt9uFifK9m0aJFT3Xp0mU7ygEfUHQYje//ztX/ypuxfImurmPGusVpfH3gQw89pK9fv16LjIy0ofztg+F9DiqNcihfaBMEQRDuPr799tvJCI6JMB4aXzNG80sTbDapRplNL6UCsHm6mmc0v9wGjY1avlSpUvoLL7wQv2TJkh2JiYnvITDf9McdsK7Xjh07lo0YMcJWrVo1Z8uvK/PryqxerVszvsWL+eqtWz+q//TTQs1mtZ+EoZ8Gs8F+lWJ8DcCUtejXr98SlL9wnBebOj9ifDMnlSfMI2OesdzXq1dPf/fdd52fJbZYLHEOq2M56kd9KYOCIAjCXcuePXs6jh8//tuWLVue8PLysmOSM6CqAKqkjLDRhKhlrycVmCllfCm1XdW6V6VKFdvw4cPjz58/z36wZbDuTYF1C0RERPSF+V00ZcqUU48//nhaUFDQlTc+MB0cL1iwkFNsmaVR/c//3efUPffwtWg0r/8a3vvc+Hnnf8fV9H+H/FTy/c5tcLf/iq+N+o9epkxZ/YknOuoffzRB37F9py01NW0TDMdTUFVnIoUr7N27t8577733cZkyZXbivCQby4ca53kT43t9qbrEcXbv4fujBwwYwM8S60lJSZfT0tJ+tlqtL6MMsrVXjK8gCIJwd/MxKFGiRCKNBc2GMqQMqEZxXlbMhzIrSsrMqO2p/fDDFh06dNA3bNjwl8ViqYR1b5kzZ85MWrx48aVXX33Vyq+nhYSEXHnbwr8mlYbq3zc2mI0uza0yw8oQc557QQ+9cOEikIfTNNP8+vr66yVKlNKrVK7mbOUd9NoQfe7cH/StW7dr0ZfjUi0W27diNlxz8uTJoEmTJvWAUfsB5jZGmVxV1igxvjcW84t5xHF2V2rVqpU+b948vkaPXwzcm5ycXFfKoCAIgiCks3nz5tfat29/xN/f34KfmvFtCEYDrIxIZg2IMitKGRlfdkcIDQ3Vv/jii1PHjh17S9O0ppAXtnHTJCQkPBUeHj59//79f86bO+/Ea6+9llinTh2NJjsoqJzTrHp7F3OaV76FQYmtuAXuK+w0ukpczsuLr0fju4ELO7sy+BT308uXC3H25X3l5f766A/G6suWLdd37tytJSQkWdLSrCc0h/aT3a49J6bDNadOnfKeOXNmbRjf91EuwpXJVWVNlTdV5iisdldIHbereWap5Zhv1atX16dNm6b//fffuOmynElLS/sKdamclEFBEARBSOfSpUtPzZgxY2Hr1q3PeXt7O9+HezuNr1ncJh/Gef3112O2bt36GwL26/xbFtu4aRDona9u02xa29jY2NH79u37e9WqVbbJkyfr778/2tky27Xr03qrlm30hg0bO9WoUROnGjdupj/UpLne9KH/OvXoo231Ll266X37vqwPGfK6/smEifqcOd/rK1f8pq/7fb2+e/ce/cjhY3r4xUtafHyiFWb3gs2mjccx+DId6UkSXBAWFuZWqlSpLigHp5TZM5YLVd4oLJ4v5er4VB4Yp5nFvFHjXJ/95Tt16qT/8ccfemRk5FmHwzEhPj7+cZTBIlhGEARBEAQC4xt67Nix/u+8886KKlWqxHp5eTlofNk1gK2xHDcb36xIGZiMxGUCAgL0xx57zDpnzpxLML4/wDRWS0/eLYHtBEOPQeOg9TAD+w4dOnRw27ZtZ5YuXRrzw/c/pHw+aXIaZPt80lT75M+nOKZM/sIxdeoXji+++JKy//TTz7ZfflmctmrV6pTt23fEnTt3MTwhIfEYtrcf2mPQDs2urYXp/VqzaDQc0sqWCWrXrv0UysBJlgO2yN9NxpfHpY7ROF3dbKo8oIzz1TKso6yffDgVN676l19+qZ0+fdqampq6JS0trUtCQkIVlMssfxxGEARBEPIt6a2jPhs3bhwEDpUuXdqCQOt8KIxGxGh+VZDOiozB29X6DN58Ep3vHR06dKgWHR29G8G6YXrybgkcVwFsywsKgKpCjaD20FswBr+mpKQcSEhIOp+YmBKdlJQan5SYmpSSnJqcmmJJSU1NS05JtiSlpqRFp6VZL1it9gNYbz00DeoJNYfqYR+hFMZrYlgZwyDolrpq3E00aNDgSRjdExh1lrWMygnn5ze5Oj6aflf/thiXYf6o5Zhn9evX1z/66CP9wIEDKNZpUTC838bExASx/GN5QRAEQRDMREZGNlu5cuUXHTp0OODt7Z2KSU5D6unpeY35NcoYvF3pRsur1j3u45VXXtH/+uuvYxEREd0h/+wO3NieO0ypH0QDPBD6HJpjt9sXY8hXPq2BfofWQWuh1RDnzXU4tM8wZB/kTlBFiB/ccEvftHCTNG3a9EmUM6fxNZYvcznh/PwsHiOPX90IUqpFlwbX+JvLcXlO54Obw4YN44dgtPj4+HCUy59TU1P7omx6YLuCIAiCILgCgdL74sWLVadOnfp+ixYtwtUHLRhslflVJtUoozlxpRstz12r5Ro1aqR/+umnZ0+cODGcT6PTXP6buuwBx3gPzSq3CwVinC20bKnlvupB9aEGBvHdp3wqPjQhwblsOcgPv9lKLp8gzgZofFHGnMb3RuUkP4vHyPrF92kr48txmlyaXdZB44dZuE6ZMmX07t2764sXL9YvXbrkgOHdiHrzAMpoSSmfgiAIgpAJjh492nLMmDFL69SpE4lAa2MwZuA1ml6OKxnNys0Iu7wiBvpHH300YevWrZtjY2P5QYtseb2ZkHtp2bLlkx4eHldafO82w6ukjpd1QhlfjrNVl314KdXqq1p++aq+2bNn6+fOnUuy2+1HUV/GwvDei+0JgiAIgpAZIiMjS+7bt++xcePGTatdu3YUJjkDM00JZTS92WF8KbUPqnLlytrgwYPTduzYsR2BvDUCuTwklo8xGl+aPKPppTj9bhGPl3WKplZ1aVCtvRSNL+ez5bd58+b6jBkz9DNnzrCldxuMb9fExMQaUl8EQRAEIQvwL1LIY/fu3R369eu3vWTJkmkIuBr/YmVLk9H0Uq6M7I1kNDZqGndN8SG3qlWr6qNGjYrcs2fPZ1FRUf8NDw/3cyZOyHekG9/jGL3rjS/rgbrBVKaXUnVNtfg2aNBAnzJlCj9JbIPpjUpJSZkkLb2CIAiCcJMgiLrxNWc//fTTxK5du+4rU6ZMMluZlPFVhvVmza/R2Bincdds2WLQr127tmX06NFH//nnn69jYmIe+jdlQn6jdevWHWB8j2FUjC/qAcu+qhM0vTS7aj7Hq1Spor/99tv6kSNHHGlpaecTExMXoX48zxtWLCMIgiAIws2gaZr/uXPnOs2fP/+LZ5555kzp0qUdmHxNkFbmNzNSBvd6orlm63KRIkUc9erVS33nnXcOwPy+jeBe6+zZs8WYNiH/kG58j2L0rja+PFbWD1VPVP3iPBpgvlowODhYf+mll/TVq1drcXFxSaija61Wa9+kpKQ6ML7SxUEQBEEQbhYEUr76K/j8+fNdZ8+evaZWrVpxMCY2zjIG6awoM8aXQZ4GiPL09NRCQ0PjRo8evXnLli2jDx482ODf1An5hXTjewSjd73xpZTpVXWG89jSy9eW9e7dm29w0HADGG+xWPaifo6GqqOu+mA5QRAEQRBuFQTWoMOHD48dPHjwrmrVqsWrFtmstvZSNzK+XEZtV/328fGxV6pU6TKC/uaff/55+JEjR2pduHBBAn0+QYzvv1LHaza+7PrDVwt26NBBX7lypRYeHm6JjY09AOPLD6m0lZZeQRAEQchGEFy9rFZrs61btw7r37///lKlStkRiDW2zBoDdGaUWeOr/uJNlwazbcN+Y1u0aLHnyy+/nHH8+PFHMV0Cfj7A2NWB591cJjg9L+t6x2Ccp47XbHx9fX2dpnfWrFnaiRMnLKiPp1AfpyclJT0G01tejK8gCIIg3Ab4mrN169bN6dGjR2z58uWtMCvOFjoVoDMrs/lVgV5JGV/Ow26d07gepvEzyqnNmjU7PnXq1AmbN2+uDRMQgMBfGJIvqOVRQkNDO+BcO42vKh+UsYyospDXxHSrY3E1T803iv+mqHX47wpu9vTp06fztWVWh8NxHmV+qcVi6RQWFiYPswmCIAjC7QLm0iMuLq7r6tWrv+jSpctJb29vjcaXJtVobG8kFdQzCvxcRm2T89Vv7qtgwYIOX1/f1Dp16lzo37//xlWrVr0fERHBL6wFpCdTyGMYja+xHBjLCMX5eU1Mtzoe9VuVZ3WMNLpmcTpf6/fwww/rkyZN0g4cOGCD6eXniOenpaW9kJCQUEVaegVBEAThDoCA675y5cofe/XqlVq8eHEHW6WyYn6VEbielNFV4+xWocQksLW5Vq1atqeeemr7yJEjBy5atOgRGGB/mvN/UynkFXAen4TRc77OzFgGaP6M4vy8KJZ5VYZpatlfl+WX0zjfbHo5jcu0atVKHzt2rH7w4EF7YmJinMVi2QTj2xVlXFp6BUEQBOFOwcCbkpLyzPr16+f27NnzXHBwMPvgXmV+jQZGTXM1LyNxOW5PbZMmmE+20zxwnA/8+Pr6akWKFIkvX778kSeffHLLBx988MvChQtfRPruS0+qkAdIN77OD1gYy0B+Mr4ss6wj/CS3v7+/c8hpnG88Zoqmt2nTpvqnn36q79q1S7Pb7dGobytgfofA+MqX2QRBEAQhp9i+ffuPzzzzjDUoKMhpTBnMzYbFHNhvJGWQKeM0bp/mQe1HiUYBcgQEBCQ/9NBD89944w3PsLAwNxgEo7K9lYzbdKX02UImyY/Gl+lV5ZZiOWW5VWVYHRPHOZ/rcHm2BNetW5cPsukXLlzQ0tLSrKmpqXuSk5M7omyJ4RUEQRCEnCQ+Pr7nn3/+uaRXr14XAwMDHQzsrkwLpQzNjaTMAqWmqb+KuX3V6ktxPP23hn3YsU546dKlf//vf/+7pl27dqufffbZ+X379p08YMCA19977732Y8aMqT5p0iSv9ORnCZppyGPChAkVx44d2+rdd9999q233ho4dOjQEa+++uo7L7744pvYX6+33367zZ49e8qlrybcgLvF+Kry6+Pjo/v5+Tn/tVDLcz4/UME+vV999ZV+4sQJh6Zp0YmJiX/C9L4XExNTU4yvIAiCIOQwCMb8yEWxNWvWzOndu3caW37ZT1EZFy6ijIwyAUpquqt5SsrwUqrrA6WMrzIUHKrlsU9NCb8thQoVCi9evPimsmXLTqhRo0anBg0a3NSDcHXr1i1cs2ZNv+rVqz9WoUKF9wICAubCwPzu7e293cPDYzf2vwWL/YRlRm/cuPFhjItRyQT53fiq8pqR8eVyfJDt6aef1r/99lv96NGjWmxsbJrD4dgO09se9et++SdBEARBEHIRqampPf/444/fnnvuuYiKFSs6jOZXGRmjmeXQOF/NM4uGQbXy8rda1pX55XL86xjJcYppwDxHkSJF0mAyojHvGJbbdv/996/A718yEoysc4jt/YLlncP0eYthcH9FmrdAh6FzUBQUi3TFYRgDXahSpcqe7du3f2az2f4bExMT5MwgIUPuhhZfo/k1d3Xge3rZ0rtp0yYNRtceHx9/6fz58xujoqLes1gslaSlVxAEQRByGWz1RZCuiOA9e8CAAcnly5fXixcv7jQBysAy+CsDwKEK/kaDoEwCpX6r5TmullXLUJxvlHGeQWz91bCuA9twYL/XiNON4rIU1rsiNQ3zNZOYNud4jRo10mB8dzocjne1VO2/YlyuT341vhSPA+XlSjlk+eR0Gl7cSDkfcnv88cf5GWI9MTHRhnoUHxsb+1tSUlIblJsSUAFsTxAEQRCE3Ajf9vD777+vfemllyLr1KnDL7xdMbAq8LPVi+PKzChzYFyOMk5zJbWcK9Prajk13ZWpopThUjJuwyjzcmbB+DpgfM/A+H6flpbWXYzv9cnvxpdSZYdlkPNZLypUqKB37dpVX7RokRYTE2O1W+3nUF5oel+HAS6J5QRBEARByM0gYPsnJyfXP3jw4Jc9e/aMqVevnsb+jCrw05yytYtDZWaUIchIal2zXC1LuVpWKSNTRal5N9KN1oPx1Xbs2HEZebHRarUOFON7ffKD8TWnUf1Wx6LKH8snW3kDAgKcfXr/+OMPtvSmwfRGpKamLtBStUdQXspA8iVCQRAEQcgrJCQkPLl3795V48ePj2jZsqXVaH6V8cViTilDkJHUemZdb1mjgTKuo6YpY2KUcZ3r6UbrVa9eXdu+fXsczMtOu93+hhjf65NXja+rdKp56rdaRpU/ltFy5crp/fv31zds2KCdO3fOihukU7hBWoyy8grGb+qNI4IgCIIg5CD8qzY1NbX5P//8M3nixInh7dq10wIDA53dHIoWLeo0AFjMaQ44rroqGKXM7PWkzIQyFpQyGxlJmZIbydW6lKtljQoNDdV2794db7PZ/k5KShomxvf6mI2vOT85PTeK5Y7llGXueullCy+X4dscKleu7DS9mzZt0pOTky0wvBcsFss81JWHofIoK/diHUEQBEEQ8iII5q0uXbq07JtvvomA+bUUL15cY/9GZVaVwTUaXiVOv5G4DTWkXJlTNc3VvOvJvJ6Sq2WNqlu3rrZhw4YEmJo9drt9uBjf65MXjS/TyXLHcspyp9KqyqBaTpVPvnGkTp06+vDhw/VDhw45EhISUmNiYk6Eh4cvTktL49cG5XVlgiAIgpDXYcuvZtEeO3bs2Kfz588/2r9/f2v58uU1vmqMXR5oCMyG1yxlcl3JbHhdGafsFg7rKpnns6vD3LlzEyIjI/eK8b0xecn4Mj2q7BnTaix/fFuDWp7j/ERxr169dJQJ5yeIcTOYCB2Kj4+fjmFr1JGKUkYEQRAEIR+BwF4XQX727t27T/bp0yexcuXKDnZ5yMj40liwW4TxtyuZja8rs6SmZZeM23a1/TJlymhjx45NPHLkyIG4uLi3xdRcn7zW4subNpY94zRV/ih2aVDTOd6xY0d9zZo1OsqCzeFwxFsslr3QTOgpKRuCIAiCkA9BgPeB8W2Tlpb27tGjRzcPGzYsGgbRxhYxdn3g51opmlyaHQ5pimkyjAbYLGV6zWbJKO7+VuRqm9dTQECA1r9//+SNGzcexTG/J+bm+uQ148s0skyqfy04Tnl4eDhbeNX8UqVK6T179uTryvTw8HA7yv4ph9WxwGq1vqWn6i1QLtinV8qGIAiCIORXNE0LgsL27du36csvv4zo3r27jS2kNLk0ORzSPNBQqBZdDl2ZXio3Gl9+vKNXr16WtWvX8l2+48TcXJ+8ZnxZPtO/CuhML2/c1A0a57NrQ6tWrfQZM2bof/31lxYREQGva42A6Z1rsViekK4NgiAIgnCXgIDvATVB8H85Li5uxsKFCze/+uqrsY0aNbrSgpbXjW9wcLDeu3dv65o1ayJhfCeKybk+ed348p8K/uZ03MTpHTp00L/66is9Pj5eRzlPgtndaLPZ+Plhmt4QlAdvbEcQBEEQhLsFBH93q9XaICIi4qWjR49unzdvnhXm16Fafml2aX5pKDLqB0zl0q4Oer9+/RybNm2Kg9n5Uozv9cmLXR1Y9pTZ5W8qJCRE79Gjh758+XItMTHRjpseS1RU1MG0tLQ+KAPy1gZBEARBuFuhEdA0rWRycnJdmMOBBw4c+HbZsmVH+vTpYylTpoxD/X2szC37T/I3x5XpVS3Cyixxs1R2Gyfz9m6k4n6++psjhmu79+5NiUtM+EaM7/XJa8ZXlU3ekPHmjF0b2rVrp7/33ns0vXaU6Xi73X7EbrUvZX9elPPaUgYEQRAEQbiKtLS0j//4449z/fv3T61QoYLGv5BVv0kaDX4IQJnh3Gx8/Ur460PfeEPfuWtnWlJS0tywsDBp7bsOec34sgzS/BYvXtzZn7tr1676F198oe/du1eLiYlJsNlse6EpMLz1xfAKgiAIguASGIXHoAkHDx78fciQIaceeuihpMDAQE09MU+zwXHV5zezxvd6UuuY5WrZzKpUYGl94OBB+pZtW62pqanz5G/u63MnjW92bY9lr2bNmvrgwYP1LVu28NPDlxMTE/+Mjo7+xmKxjEzvz1sKywqCIAiCIGQMTEO7jRs3Tvvpp5+ODB8+3Fa/fn3dz8/vSuuv6vOrjK8rM2M0TteTeT2l6y3rap5RZcoG6a8OHKhv2brVZnU45ovxvT65yfhmZn8sj6+88oo+Z84cfnrYER4enpaSkrIe57kuJJ8cFgRBEAQh82iaVjUtLa1rdHT0uCNHjiydPHnyqccff9zKJ+ZpeLHIlZZfjrsSDQxN1I3kyuhwmlHm+WaZl2dXh+d79dTXrF/HB5wWiPG9PnfC+Jq3qWRcxlgujOtxyH8c2NWmWbNmzr6827Zts6CMXsBN2t9Wq3WJ3W4fIi28giAIgiBkGRpFqABUGGbCCwb4/Xnz5kX3799ff+CBB6708+WiZiNDGQ1MZmVez7g97ud6Mi5LKeO79l/j+5MY3+tzu42v2o7xPKtplFqG/x7wZkr9s0BxGh9gq1Chgv7UU085W3ljY2P5mrLz0Dcwv71wfktA7lheEARBEATh1oDBeDQmJuaHnTt3Hvj+++8jX3/99dSHH35Y4yePaVhogpWM/X6VlKHh0JU4zyhOU+sazVFGUssoifHNGtllfM3rqXNoFs+vcRlz2eGNFeexS01gYKD+7LPP6rNnz9Y3bNhgP3XqVBTO6Q6UyZnQs9ADUEHsXxAEQRAE4daBcfSAuQhMSUnpnpqa+uOWLVtOjh49Oq1169Z6uXLlnC1yFI2K6gKhzCsNjDK3yvQoKaOrpMwPpUySMkhMRkZSyyjxdWa9+vTW1//xhx3OV4zvDchu42s8zzynalydU3WO1fLqgylcVs1nt4YmTZror732mr569Wo9Li7OYbfbk3AuF6AsVoUCIC9p6RUEQRAE4bYAo1EhLS3txaSkpK9Onz7958KFC08NGDAgoXz58nYYF+fbH2hklIlRJkgZHUqZoIxkXobrK4NEIRlX/XalYr4+eu8X++h/bPjDnma3i/G9AenG9wRGr8nvmxXPHcuD8UaIUuWA03mjxHEOaXT51hD+5oOUTz/9tP7DDz9oKGcpKHMR0AGr1boC6ivnUxAEQRCE2w5b12B+/TGsfPny5fpnz57ts3Pnzg3ff/99fP/+/e182p7v/qV5UobXOM4HlDhfmSAltQzlap7RUDEZxt+uJC2+WSO7ja+Pj4/TyPJ8K3OrzidviFQrMPdH0QRz2bp16zrf1jBz5kx948aNemRkpC01NZVfXvuShhc3XHVY/phmQRAEQRCEOwpMSBD0jsVi+X3btm2HPvroo6innnrKUrlyZefHL2hm2PpLk6PMza0a38yoRKlS+rPPP6f/tmaNvNUhE9xJ40uxLHBfHOeyFStW1Bs3bqy/8847+h9//OFITk622K32KLvdviclJWWqzWZ7EuWsIs6jfIxCEARBEIScIb0FuGJSUlKrmJiYfocOHZq4bt26w6NHj7bDyGi+vr5O46tMsPlvb6XsNr6lywTqTz/TQ1/52yoxvpmAxheDE67y8mbFc0fTq7q9mM8r9uc0vXxLyJAhQ/TvvvtOP3LkiAM3UUkoUwehz2B426FshWKc/zIUdiZWEARBEAQhJ4EpcYM5CUpJSWkaFRU1Awb46MqVKyM+/PDDhJ49e1rr1KmjsQWQi9LIqi4QRqOkjC+lzJFxGmVc/nqi8X2p3yvyAYtMooxvVvI4I3EbPHfK7BqnqfPIByLbtm2rT5w4UV+1apUGw2u9dOlSrC3Ndgo3KlvZtQGm92GcN2nhFQRBEAQh98EWOZhfPwybYPg8hh9GRET8AmNzeuzYsbZOnTo538XKV6Cp9wCbDZNRt2J8+TqzYSOG69v/2mGLj4//MSwsTIzvdVDGl3mOocs8zay4DdWqz3PGcbb8UkFBQfrDDz/sbOGdO3eufu7cOc0KYHSPQZNQbnpDnaBGkPTlFQRBEAQhb5CYmFiTrz+Lior6AQb49IYNG2I//fTTlM6dO9tKlSql8RVWNEfs/mA2uBnJldFypVKBpfWvZs7Qj544Zo2Oj/9ejO/1UcaXJhVDl3maFbFbi9oOu7kUL15cDw0N1QcPHqwvWrRIO378uC0uLi4pNTU10m63H7NYLN/iRomfG5YWXkEQBEEQ8h6aphWDKkCPwdgMjI6OnnLixIkVy5YtOzFx4kRL7969NT7FDxPs0uSaZTZX11OFShX5YJuWkJSYCgP+nRiq65MZ45uVc8Dt0PzS7PLjE5MmTdJ/+uknfdeuXVp4eLgtKSnpFMrFPJvNNg7DgVqq1gpDX2diBEEQBEEQ8jowNvzoAL+09e2RI0eOr1u3Ln7ChAmpzz33nK1Ro0ZamTJlnN0gaJzYEsyuEHwwit0i+Dc5p3EeNnWVyTKK5owtyC1bttT37NnjwL4S0tLSvhLje33atm37JMzqceY18091U1B5qn4r8TelujFgE871aHb5hoaGDRvq3bt318eMGaOvWLHCcebMGWtCQkIKzkcMxE8Nz4OaQ6Vxbgr8mwpBEARBEIR8AkwOW4BpfttbLJbX4+Pjp0RFRf1y7NixPb/++mvSkCFDNL4HmE/68+9x9TYA9ZCUMl3Y1BUpw6v+Wqf44BTfBbt//36Lw+E4B30kxvf6DB8+/PG6desednNz0/DzirFV5pYy5j0NsvrgBM8Ph/7+/vqDDz6ov/HGG3xgTf/777/18PDwtMTExKiUlBQ+sDbJZrONtVqt76AM8PVkNL0ekHRDEQRBEAQhfwPj4wc1jY6Ofjc2NnY/jFLyypUrLd9++61t3LhxjqeeekpjNwi2KNJcsUWR46pFkoYXm3GKpoy/Oa9NmzZ8NZZ24cKFWJje7TDZQ8T4Xp89e/a0hmHdATObhjzUzMZX3YAoA8zpWE0PDAzU+dnqQYMG6V9++aX+888/a+vWrXMcPnzYhvOayhsP5P+G1NTUV8XgCoIgCIJw1wIjxLdABEL8y/tN6MuUlJSvrVbrTxEREQdgouJgqKzstsC+omzJZSsju0PwwThj9weOq48gwDTrW7ZscWBbfBfshPj4+EfF+F4f5E/o0qVLp3fu3Plo1apVU3nDwVZco/llqzrfy0yzy64MvMHg2xlmzZqlb968WU9MTOQ7k2NsNttB5P1q5P0M6AOcz5cwfFDOgSAIgiAIggmYJP+0tDQapp0xMTGRhw4dssEE2/v06eN45JFHNBhcja/FogGj2De4QYMGzq9+bdu2Tcc6OoyXBVqWmpr6X2wvKH3TQgZcvnw5ICoq6pnDhw9/O3jw4PBHH31UY7cF5jO7MJQoUUIvXbq088YC50FfsmQJuzJo0dHRWlxcnAM3F/akpKQ4i8XCLg0fIu+bidEVBEEQBEG4ATBMHjCsfMp/mM1m+xwmakF4ePjC7du3L164cOGub7/99uJ3332XgqEGOb/4tWLFCvbp1bGeA+vHYZ09MGDvYbw85J2+aSEDkNdeyKdQGNief/zxx7LFixefn/fDvFTm75w5c3SMO4fIf23z5s3Wc+fOYdH4k1hvPbQI+f4L8vwru90+BOOtsa2y6ZsWBEEQBEEQbgaYrKcdVscCGKyT/373IE3DOCZfIQWma2dycvJHMGAtMC6tjlkgIiLCH3nXF5qXkJBwBnnozFzko+4ANqvNhkF0YmLi3zC6n2FWLcljQRAEQRCE2wCMVm2oDwzvBJiyhTBfqy0Wy1q71b4WRngNps1PSkp6x2aztcVywemrCZkEJtYD+fYg8vcF5O1E5Ocy/P4N+p1D3HQsxfSZUBjy+EksXyJ9VUEQBEEQBCE7gdG6B3KD3KHCEF+HZRSnFYDc0lcRsgjyzpjH5vylOF3yWBAEQRAEQRAEQRAEQRAEQRAEQRAEQRAEQRAEQRAEQRAEQRAEQRAEQRAEQRAEQRAEQRAEQRAEQRAEQRAEQRAEQRAEQRAEQRAEQRAEQRAEQRAEQRAEQRAEQRAEQRAEQRAEQRAEQRAEQRAEQRAEQRAEQRAEQRAEQRAEQRAEQRAEQRAEQRAEQRAEQRAEQRAEQRAEQRAEQRAEQRAEQRAEQRAEQRAEQRAEQRAEQRAEQRAEQRAEQRAEQRAEQRAEQRAEQRAEQRAEQRAEQRAEQRAEQRAEQRAEQRAEQRAEQRAEQRAEQRAEQRAEQRAEQRAEQRAEQRAEQRAEQRAEQRAEQRAEQRAEQRAEQRAEQRAEQRAEQRAEQRCEXI6u625btmwptmrVqsBvvvmmwtChQ6t26dKletu2bas3a9bsiho2bHhdcRmuQ3H9Xr16VR8xYkT1MWPGVJ82bVrVn3/+ufLq1asr/P7770EbNmwouXPnTp+jR496Yf/u0D3pyREEQRAEQRCE7CcsLMytefPmQTVq1OgTHBw8LSgoaJmfn992b2/vv4oXL74bw90eHh673d3ddxcsWJDDvzMSlqd2m+Xr67sL+isgIGBDSEjIr3Xr1p398MMPjxswYED/77777onz58/X1jTNKz1JgiAIgiAIgnBrsFUVRtcd8ujUqVOxli1b+lWoUCEAprQVDOo8GNzTMLcp99xzj/6f//zHKa6mxm9V2K69QIECqZ6enhFFihTZg30vbdiw4adIS0+2DiNdPkuXLvVh6zPS6gEVkJbgnAN57wa579y5s/D+/ft5PqjCnAbx3HD+PSZx2pXp6Zu6o2C/BfhPglJ62pnuK2lOX1QdYwHDMarjc0tfRLgJ0vP1StkxitMyUnr+X3OehH8bKdavX+++YsUKr/nz5xf76quvfIziNGrWrFneSmqaeVmj1DJKxvW5L2rBggVXzh3PK89PerIEQRByL3369KnYuHHj5728vCbAhC6Byd0IbYb+dnNzi8C0VMhB46vkysDegrR7773XAfObBiViPAo6g/0fcHd33wYz/Ofjjz/+54cffrhkzZo1o8+dO9dJ07SK6ckX7iAMgF9//XWTL7/88vmZM2cOw/iH33zzzXuzZ89+CwHx5e+++67znDlzHsF46Lx58ypCgRxiWj0sUxfDqsuWLQtgoEzf5B2BZon/IsybO+9zpH3m9OnTv5sxY8ZnSP+bGH8agb4eji2AN4AM7F988UVdLNcR8wZNnjz5A6z7Dm6+BkZERDRI36RwE0ycODF06tSpz0CvQx9//vnn4zEcN2XKlPegd5DXw9LnUSNwHt7COXgL52ooz8fmzZtrR0ZGlkzf3F3PkiVL/F9//fWGL7zwQr8OHTrMbtOmze8tW7b8o1WrVn9SLVq02IDhGkz/FdMXQfMxbSG0DPoNWsfluRzE5Z3rpE/7Hfotfd3FGP6Cbc3v2LHjvB49enzbr1+/mYMGDZr47rvvfoDzOmju3LndUUca4hpdJD15giAIuRMfH5/HPDw85tx3333HYTatGDoNKWY5RaMLI6pzOofZaXy5LZhdp7htNZ37Kly4sA4z7lwG5lcPCAiwPvLIIwcQCCenpqa2ciZeuKMEBgYG+/r6DkCZmQNtxvgRDPdC26Al+D0NGoHxrvzHAOesQVBQUJvy5cv3LFOmzLNYvz2CZj224Kdv8k5xD/b/KdJyDmm67O/vH4f0nUE6N5UoUeKr0qVLM311MSxWtmzZIEx7Bst8Bq1FmvdVqlRpe5MmTX6DUX4F2/rPv5sUskqpUqW6lSxZ8mucgz8xfhQ6jjw/BO3BtB0YbkZ+/wFtwPgWDLfjnG3D+HqMfw6z1WP//v2h2JScAwDjWa1mzZqvIE+X4dodg+umxuumUbi2a5ANSsPvlEKFClkgG+SANEh3JSzLbTm47v3332/19PS0QCl+fn5JqDtx3t7el3F9PoNl9qEeralQocLXSMvLMMtl0pMnCIKQO+jTp0/oAw880AsXsI/d3NwWwGjugM5DyTCZGk2nWTSlStlpfClcWJ3Gl+NInnMfxn2q6bgY8yKd+N577+2JiYkZ6DyYbIItgpMmTfJ6++23g958882Wr7322osIKi8PGTKkP1ua/vjjj3rR0dGBWK5A+ip3FfxLs1GjRsEY7Ynz/xvOCctLDJQEJWB6LHQJOoPfRzD8G9oObYF2QHuhPdDO+vXrr8HNy4wLFy4MSEpKoom5bSDdBVDW62G0J/QnlOLu7s6bOxvHoRiIad4LbcL4amgdxLSegi7jeBMwLw7B/RLKyJ+apo2F2srfupmjc+fOBUJCQtqh7o5DXv6OSWehaCg5XUkQy1AcxDIVna5Y5jumccjlT7Vu3XrnrFmzvomMjOydnJxcH+fgPky/a8FN5JO4SfsVZfoiflqRT1caLJQ4DdIgB34raWr+jZS+roZzx3/9HBi3QzaMW6EUjLN+XEadOod0/IN11hUvXnw5bhqXV6lS5ddHHnnkV8ScJRMmTJi3fPnyz8+ePdsd56085I1lBUEQbj+4a38Wg4W4WJ2GeLHkhU1dII0XvCvCBe6K6TXLuNzNiNswblsZXkoZb05X6Xr//feTHQ7HZxjPNhicg4ODA4sWLdoE+323YMGCv8KQr/Ly8lrbsGHDab179+4zZ86cBuzPlr7KXcWMGTP8y5cv/wjyZjLOWaQ6V+ocYhFjuXEGSoy7VLly5ayTJ0+OjIiIWG+323tg2m2D56ty5cp9MLoAupietivpptKPhYHdqfRlrlqOZRFBXfv444+TkObjML4ToPudOxGuS5s2bbx8fX0/RR6eRP7yRumac3AjMf+xKb1JkyaOqVOnXrh48eJinIdX7vZzAFM5BNeoCwUKFHCoxgL1D5q6dipxXnpZd5nHmRV2q+r5VdtK3/aVeoT9OYW0aIg5jmrVqlk6deoUMW3atO+2b9/+yKFDh8piO9JyLwhC9oM7az685hYUFPS0t7f3TFyktkIXoFTomiDEVSjz9PQL2zUyL5dVmbfHC7RR6qLNZZmu0aNHWxDwvuCx3Sx8GOTTTz8t2a5du2ZlypQZWbx48R9gbBbD7P7OvsXs24x9XsK+I3HRPsG3WYSGhq4aNGjQtwcPHhxmtVqbIQ0ByFv39E3ma/jauZCQkME4P6uhRHWu1DnEIteUG+M0o2CgNZRH6z///HMC5mUw8vC2BT8+EFm1atUxGGVLVKJKm1HqWMzHZBTLH8qHDuOLJNuTcO7nQZ7OnQjXBXXMB8Z3PvKW/yixtdBlHl9PzH9sisZX/+KLL1JgfM/g5ncSyk7Rf/dyd9K8efPhuEZFKXNrlDLARql5zM+blaonxt+uzpkS57PLGq6hGpQGA3wGN0Prx4wZs/D8+fNfoh51hwrhXMo/KIIgZA9szUTwh6fzmIfgzb+mGHx4V+7yQoVVnDJPVxc8s8zLZVXm7RkvspS6iNN4sM8aLpi3bHwHDx5cDEG0frFixUZiu0ewXysm8+9vO/bJ1hNnSwWF+ZSjSJEi1rp166YMHTp0/+7du8OQhka4WN/pvqo5wpdfftkUhvUrnK/DyCuLOlfqHGKRa8qNcZpR5cqV0998801927ZtcTAvo2+n8d2zZ49flSpVZmOUf5U7/wo2Sx2L+ZiMYjlk+Rs/frwO44tTr625201XZmnZsqUfjO865GGG15wbifmPTemNGjXSp06dqoWHh1tRdpbhPPj9u5e7kxYtWryNa1W0uk4qqd8cGvMcq2S7jOfJLO6b9cbT0/PKOaQB9vHxsdesWdP6/PPPJ/4w54cfT5w44Y/6dEcfeBUEIZ+Bi8g9n3zySbH69etXgFns4+bm9hV0hkaOFyB1UVIXKK5ilpqnxOVdybxcVmXeHtNnlLqY8+JZtGjRWzK+fAUP32KBANoVF+AvMYl9UZOZDu6LBhu/nemgycYyesGCBZ3p5HwvLy8NRirx008//fvs2bPTkI72UMn8ftGeNm1ay5CQkPnIh7PIG/btc+aROodY5JpyY5xmVFBQkP7uu+/q//zzTxLMy4e30/gyoOJ8/YxR9ud12dqojsV8TEpYzzmd5eDjjz/WkWYd53y9GN/M0a1bN//ixYtvRB5muYuDEuseNqU3bNiQLb76xYsXNavVynNQ4t+93J00b958JPI1xnidVOK1jELeXxGvnxSvazcrPmhMcZzbcnW+lJgude4o1iGuy/H0uqbBvJ/Fzcysw4cPD4+Pj380ISGhCupXQR6fIAhCpuFDPe3atavs4eHxBC4w66ErryRTF6P0C8+Vi1JGMl7IKK53O6XSp6SMp6+vr163bl39m2++Sb1Z4/vBBx+UCw0N7RwYGPgNjPR5TOJDGs6WKOM++ftKALnP/SoVLFhYe/jh/9omfz7lzLlz4eMRgBsgPfm65QnG9zEY3yXIm3DIZswnylxGjMLqV6lMmTL6W2+9pe/cuTMpLS3tthrfgwcPloTxXYpRtujzwZxr0qeOISNhPedQjO/NcavGF5u4ogYNGjhb3WF8dZvNthHn4a5+tZnZ+NLosoFA3cDz7QzMM8QCHQZTb9WqlXOcatu2rf7oo4/qbdq00Vu3bu2clxk1bdpUb9++vXPdBx98UK9YseKVFl2aWrbwcpz7p5iu9LdEOOexHjF96hoCOWrVqmWZMGHCQdwMT0tMTOyG81qcxycIgpBp+PdiyZIlB2B0KS46Ubzo8OLDCw8vOrwYMZibA4srmQMR17udMlwQneKFkunw8/NzXnB/+eWXVAS9mzK+PXr0eAQ3A9+4ubkdRV6kGY/HvN+MjK+Xl7ceUCpQ7/RU59TVq3/flZCQ8HFKSkqj9F3kS6ZMmdKmXLlyi5AvF6BbMr646cgJ45sG3bTx5XKsNx9++KEY3yyijC/ykA83XpP/NxLXUapfv77z5iPd+G6+241vs2bNnMZXmV5leHnNZAsvTeqMGTP0JUuW6D///LNl8eLF4b/++uvFdF1YtmyZU5h/YenSpeEYRkKXoRj8pjgeiWEEhuFc5qeffopYsWJFFOfPmTMnEdeGlM8//9wK42ofPXq01qdPH71x48bOfr1Mi7pWqDRyaJ7GluPQ0NDksLCww3/99dfXcXFxbWJjY8uijt0Vz1AIgnDr3ANzVxUXvxW4KKbC9DpcGV9eeMyBxZXMgchoCm6H1EXReHFkOvz9/fUhQ4bomzdvToVhmoJpWaZBgwYv4xiOYz82bNfZ0nu9/TovzCbjW6jQ/c5h9eo1telfzrScP3/+IALwS+m7yJcguD0C4zsP+XIaeXWlqwNlLh9mYfWrVLp06SvGNzU19U4Y34UYTYWyxfjiXIvxzQLZZXw5zhZGGl/UOd6AbBLj22wkrlExLJtKzCde54ODg/WePXvqx44d05OSknTcnPM69Qqunb0ojJvVH3oH+hhiN66voE+h96DXoX7QAKvVOgjD0djGl8nJycuw3Z34fQqKgWG1bNu2zTFx4kT9ySef1GvWrOm8bjP+ILlOqWsrzTnFuERhnla1alXbqFGjjpw5c+Yj3Ni0wzZ9eZyCIAgZwoe2cKfdBsb3Y1xszvFCqAI4LzgcchovPPxtDCwZSQUgJbW92yWmyyymo0SJEvonn3yi79+//6aNb40aNd5CUIhV+cJtZ7TfjIzvfW4FdW/vYnqFCpX0wYNf1zdu3Bhtt9vfSt/FbQNGi59rLYxg4A9VhGrid930cT+M89O6t+VzrjC+TYOCgmYiX/ggYJrKM8pcPszC6lfpThrf9D6+8zDK98TaXKXPeCyuhPWcy7HMiPHNOtltfHkO0o3vBpyDu7qP78MPP/w2yuVVxpctrTS+/GelR48e+r59+9JiY2MjExMTv0R+ZdiCinkeKNdBGIZi2BxqCdWDeH1xPnyWvkwxqCrq7iMwvn1xLR5nsVh+wDVwPUzxPzDZ53B+Io8fP3556dKlsQMGDEj873//a/H19dWU2VViOrlritdcDmvVqpW0evXqnZcvX+a1oTJ0264PgiDkAxo1ahSKC8pPMGxRuAhaeWGBCXbecdPEMXjw7poXHV5ojIElI6kApOTKHGSnlPE0ihf02rVr67iQ6hEREakIelk2vnylm4+PzzvYVizzQu3r2v2z/9n/RKNrVIH7CuvuBT1gxEvp7do+rv/88y+xVqs2Mn03twVc/J0f2JgwYUIg9MiYMWNefBMMGjRoLHh5xYoVzfbs2VMOy92WvwanT5/eoGzZshPd3Nz2II/YX9yZV6pMYJFM604aX77VoVq1al8jjVGQ07BjslMq7UrqmMxSy7IMivHNOjS+3t7eGzHqNL43K56L6tWr6+PGjaPx1XANWIdzIMa3QIFolk0lXts5ZNewTp06aYcPHz6A8vp6SkpKM+TXvemrXgPmqRtrGlveXPOhXR8MvTB0h+5JX6YA5J0+vzI/JMIvacL8doIJ7onpA2CCB+P367hWj/3777+/++WXX3a++uqrybyGp7fuOs+n+ieS6eU0KiAgwDFq1CgLrg+bsN2HsQ8xvoIgXAvfS/viiy+W5GdhceE7arwIqr+SOE4jzHEOafoY0LH6dWU0B5TRFNwOGQ2vMqZsxcBFXv/jjz/0+Pj4LBtfXEQLMwAXKVLkQ+RLnHHbZmXG+N7nVkj39fXXH320LY1vvM2mv4sLdJZbW2nGQ0JCvCpXrlwRtMF4d+gZswIDA5+HYeyH8/smAsMXJUqUWAIzsQ43NduDg4OX9enTZ/JPP/30Ir+EhsBTjMEpfRfZwhdffFEXafgANwxbkUcpKq9UmcAimdadNL7Yh0/VqlWnIo3nIKdhx2SnVNqV1DGZpZZlfTIYX5ouMb6ZILuNL2709HPnztH4rsU5EOPrwvjy2pZufB2HDh1atGDBggwN7+0E9YQG+r8wxGO3bdu2f+jQoclBQUEOlU4aX9Uwowywj4+P3rJlS/27774Lx3ofYH0+PCwPuwmCcDX8GEONGjU64YI3A+aEH1648lc9pQwwLzCUujgyoGP168poDiizMchuKVOqxDTA7OldunTRDxw4wPeopthstsmYnmmOHDkS0KJFi2bIg++QH0lq2+b9/fv7+sb3P/93n1NFixbXW7ZonW58tQ9oNqEsmV8EpmIYVHdzc3sT6dqE4WnoHHQe6TGKHxzhl8ci7r///micwwScwySI395PQACMHj9+/NajR48O44N2SEe2vl946tSpNWF830IaNyANzte/KWF2lnSnjW+VKlU+QTqPM908v5jslPEYKFX+zFLLMijT+MJwIQ7Le3wzC41v0aJF+bnobDO+Z87w+xUOngMxvi6ML6/5ucH44vywBTkAahwVFdVv48aNP7z44ovhuMl3dntgOlVjjDLAPAa+JeL111+34AbnBK7132B9XtOk5VcQhP/Rpk2bmrjQjcfobgSIZJo4SgVvXmB4UWHLqXrdDeczoGMdl1LzlDFQUtu8XVJpV2IaQkJC9L59++pnz57VbFZbXFpaGo8108AwV0AedcLFdhH24cyfjPanDC5N7z33uDnFcfbvLVjgfqSHabpH9/Ispjdv/ojT+OLCTOPr/DswfZeZAma+Oga9oBXIW37O9Yb5rdKpAh3W1evUqaOPHDky7p9//lmEvHkR6Qnm9rOLzz77rHqZMmVex/5/R5quSidmZ0l30vjyy224IRyHdB5gupl/mOyU8RgoYx4bpZZlXqcbXzrf35DuItyHcH2y2/iOGTNGSze+q3EO7nbj+xbKpdP4qmsCr/W5xfiauXz58oNr165d9eyzzyaWKFHCTsNLA8x00wCrfyKxKK6tzbXJkyfbTpw4sZ/dKG7ndUIQhDyIr69vK1xENmGUrVrO9/WaA7sS5/HCqAwULz5YzymO812MNMlchsureUpqHb6ChhdXmtKqVas6zRdfN8S/qYzq0KGD812RzZo1c75TksvBjOhVqlRxrstt8O8tvhCdxpwXQXUB57445IvrP/74Y+3SpUvJdrv9ADQYack0bPFFkHgEaZ6L7V1p8TWK++F+CxYs5DS5NLz/9388fppfTIfpLVTIU7/nP3zIzUMv4lVc7/RUN33RwiVxuCjfVFeHzp07P4PBb8jnCChTH1gwpxvr81VA+qhRo1JPnjx5CMaXnwFt4NxBNjFz5szqwcHBQ7H/tUhTnjK+KGdjkc7sMr78i53GdznSLcY3E2S38cUNnn769Gmehru+xZdfbkO5jOa1S5VVdS3j+7J79uzpwLUv1xhf1JuSuD49N2fOnO9wPb7EGGKsg0w7h1jU+d72xx9/XNu4ceMpXO+fuZnrqyAI+RB+qALm0g9GdAAudvwr/KoLibqIUOo3L5DKNP1r9P79y4mioaXp5VDdibOFWG2DF6pq1ao5+9s+99xz/DtK+/TTT7W5c+c6/vzzT/vBgwftp06duiIEKKeOHz9uP3DggH3fvn32VatW2X/66Sf7F1984Rg3bpw2dOhQja/d4UvUH3jgAef7J2mAuX+V1pdfflnfsGGDjd/ot1qt89kCgPRkGv7l3b1799BSpUp9ieNMUMdvFI/faHxViy+7Ndx7L83uvw+1scX33nsK6wGlgvTXBg7V//hjYxwu6GHpu8oSXbp0CcM5CYdcml6KeWCUOd3YjPPGY8SIETbkebTdal+tpWpt/t1D9qCML0bv6hZfllcYLn6z+FcxvpnjdhhflHMxvqBVq1bOtzrw2sUyiknOfOLv3Gh8Fbt27ary9ddfrytfvrzNzc3N+WETTL5SDznO+saH4RYtWhQRHR39Bk0zzre811cQ7nZgGquGhIQMwihbDRPVBcSVOE9dWChl9vj3Eo0mxfF/zd//+gTzzpvvhOTHI95++2193g/z+EJ0x/r16/nOxugT4NKlS9tTUlKW4uI0PyMhUC1wWB0LEhMTF4SHhy88dOjQpr///vvg5s2bI9atW5e0bNky2y+//KJ99tln+ptvvqk/8cQTzhZkmuGxY8fy780E3PkvSUtLewbbq4pjyjS8YI4fP97vwQcf/PD/2bsK6KiONvpTAgSCFUKCBXfX4lIoXrRIcXcp7hSH4k5xCqVocXeKuyZ4gOAkxH3lvf/el530sWyS3WQToOycc8/zkW+++ebOvBGkOXJym5ABwXTzKMb2kvza23O3oRQqIsyhBXZySoe08ndlK8rr/vhTdnd/6gcyHivi265dO5IyXyDKXa1EfqnzTQ2+kzNnTnngwIFsZJCEnwDqG4KwiuMYX1RSIxDWKeCLIb5s8Fh5jC+Jrxby3Wsjvua5+CC+MDk24gtH4gs7/RHxpa5ya/CuXbt+lsT31atXjhcuXOhdr169Xah3PEXceRQ2jdec2zF16tRgNGD/CQoKGolyVzw+7YXN2ZzNfQGucuXKdUFW98BQvIXB4/a7kRWFMWhMCL5DCOJEgsuhBgSJL9+hISXp5bAH7v7Tp08fecuWLZxcxoqfCIERegWcxfliAxl1RjhmORJRvF8bGAfys0er1T7AuQ+g1Wq0+sePH0sg1xzjJU2YMEEPUqxBq5+LpJPkx9qBTI9C2pQtPgWYVoKVBSHG9LLnN0UKTrhIqZDfiKEP/8N1Gjlzpmxys6bN5atXrsv+/oG+YUFhsVrODMR3HuT9wWQxY4j8Ms43Ab7DCgJ5ROLrj8bBP5BTA0MQVnErVqwoAeI7FmGdBr6oyW2FCxdeiHh6ANZY1UEQ3z024mueI/G15qoOIL4S7AOywTbGt1atWuNIfGkHcKlA6OrnTHyFGzBggDMa7f8g/pG9vuq0cBhcgwYN+IfQOzg4+DjqiWY24mtzNveVu2zZsrVLlizZHZDWcJA3SRCh6GBcsXNoAXt4+YxHDmeg4eSGEVWqVJEXL14subu7B7x+/fpxSEjIFRCrQ6h0NgDzNRrNEJAAGqMSQEpDtGJ0eNcO3+UFagLdYdCmACvh904YuH2BgYGH0MI/GhAQcBI4gvMduM+tgSsbvIiVmzZt2igXFxcfDt8g4cctBST5HGPM9FOGJMI8Z0PAMb2T8k6qlGmUSW9czaFw4aLy8GGj5OfPX+lA1J9zNyP6b6lr3779XMjd5KQ2AeP8YvzU4Dskvr1799Y8ffr0NeS5A/jeEIRVnIr4ciOCL434/o54clWMMMoPtxWo00AYy1lAvGsjvrFz1ia+Y8eOpT3SIh/2Ix+c8Oyrdezxhe3yEXoqQPvFv0A9evT4rInv+vXrnapVq8bhU0rdhVuKTWN6hH0rUKAAO0A0qBseoC7ohnJnG+trczb3NTsHBweO7fUiaSORE0QoOogKXYC9uqzU+a0gg3nz5iWRklevXi3fv3+fYxpvA+OAWglleBCO2KWMu5JZZWzX8ePHR/Xt29eHO0Bx+RzcUoZyEEIOakSQ34jhDgTJr4tLdrlXzz7y8WMnpeCgkJC3b9/e9Pf358oMFruWLVtajfj26dNHmdwGeVl9ctuXSny5gUWhQoVWIZ78nWqNDSxsxNdCFw/EVw/iG4582E3bgGdfrSPxRR3gQ/3EpaKnPAri27Nnz8+a+B4+fNipefPmh+3t7fXsZGC8je0b7fLUqVO5jOV75PewhKp/bM7mbO4zc+PHj09ZrFixnOnSpZsOY+FDwsoxuqISjw7GFTu/5ZEVO40MiUn//v25Fa/Oy8vrZUhIyAEYnCkgKRyakNcQhXh3MHDcJYjb8HKrTDvD7Tg5kNTW586dOz9w4ED/0qVL61k58Jcge72F4VUTX4LGV8gX5E9ZpeLvv/+WNRoNN9K49ObNm8nv378vZwjCIte0adPJyBPuKqZX55EaxvllXDHwHUOPr7+Hh8c+5FF/IJ8hCKs4Tm5D2ofj9ATC+2LG+BqI70rE8x0QZ+JrmNxG4rsb8bYRXzNcPBBfLnHFJQQ3IA+sul71l+ZIfNGAjyS+Ql9px2irevXq9VkT34cPH6aGLZ4C++qKywBTxBf35REjRtiIr83Z3NfuuGEFyM73MHqrUSH702CQtOLRRxW6MdSVOsEKnffZu8lxvu3bt+fWwFJAQEAQSO8qGBvu054W4Dq1ViGgn8oFBweX9fb2nnz58uWLkGEol1tjmikDPI4ku2pQNpQvJ/i1atVK3r17t/zq1Svu3vUefo0wyCZWO6U1bNiQE8aeAuFAlBPc1DDOP97jvvx9+vR59/z58+mIF3c64sYYVnO///57oRw5cgzAaeQkSgHcswgJTXwLFy68AvHkcnHW6vHVQL424mumiwfiGwri+xJ5sAR58FVvIvKlE1/azfHjx1dH3TUYabiLMqY3RXwHDx4soy56D9iIr83Z3NfqYAgqpkqV6jc7O7trMHZhNBAct2pOr6+o0AXE8Ab+7ud6uZs3b+bkslcgJXsCAwO5zux/xqGydNFqtQ1AWOe5ubndRYUQPGLECD1XkOD6wpxMQTlwzK+zs7NyD5WLMrkP5E/ZMtnT01MH8hMQFhZ2Fn41MXgdK9e4ceOeyJNLgB/wQa8vHitQ31ND5B+HbLDXunPnzi9BfNnb64LKIYUSgJXcwoULc+bJk6cNTjcjbH91PHDPIiT0GF8rb1lsI74WunggvoEgvq7Ig6lfex6YQ3zv379/FLLKDVi1MWwNRxI7ffr0HNCPKkjDedRFyhr0ajAtAwcOlF1dXd/7+vraiK/N2dzX6trAgehyvCVn9Cp7n/NXPQkbjWB0MDYs7Onldxz3OmvWLC4VFAJS9wcMTAEQqc/OWMbFIU2cVJca4KS630Fi7rx58yaEQxfGjx8vt2jRQkZFrYBkd9KkSez9lq9cuSJ7eXnJWo1WDg8PV0gvjhPhXwmD17FyDRo0aIHDTuQLidkHa/nifrQQ7zHfuWZn+/btnz169Kgl04jnVnUrV650RkVaE6dLEaa3CJvAPYuQ0MQXZInjqN2h6yHUd9xWoE4DoS4TavBdHlnGuKyejfha5qxFfJlHXEMcxJdLKJ5EHgwFUuHZV+tiIr69e/dmj+95yKkOkDc+y1ps3datW5OicZoScT+Iesgk8e3atat88eJF/mGzEV+bs7mv1ZUsWbI/WsePURlrcJRIflgxs+eXxkJdoRvD2LDAOwUjR46UfXx8tEFBQS9gJEcoAf1HHdKZHWlsAywFkbmJa593794FgDgGvXz50ufZs2dvQfpfvH79+ikIrwcePw8ODn4ConYfx0MBAQHjQX7r4/tMBi9j5Ro3btwQh3XIF64zq1XnE+6bhHgu8o95njlzZrl169YvHj9+3BNx4tCUWA29iMotWLAgdYECBfLZ2dlxww1l3U0BPLYIgvhev349ML6Jr2EDi2k4dYWsAikvEW8hP+NrY+Bb5cjyxe1yoS+2yW0WuLgSX6FjPHKjlnHjxr0H8eVa1TbiG3OPr/Tw4cPLOp2uJWRV9HMkvsKhDtuLeH9EfGnffvrpJ/ngwYM24mtzNvc1u4wZM46FQXjPYQpi4wkaO1GJmwsaFn7LX4grVqzgVqzeIHSnQ0JC2huC+k86GE+uI8wVI6rifAIqhu1I93Fcn9NoNJtxnAIMBEiOO4Og9cI77XHewN/fv7yfn19ufOcIxIlg1q1btzYOXG7rHqBR5w3um4R4LioGnnNYRsuWLd+CuLMXujSQFu9azcG/b0qXLs3hE90R3ksRB4KPLUFCEt+nT5+mBfEdi9OLKB9+Ql6EWn7qa2PgW6XyJfGdPHmyQnwB2wYWZjprEV+C25yPHTvWB3p+BvLnhgY24hsz8b0G29UBsioVn2Utrg7p2It0mCS+HG62ZcsWG/G1OZv7ml2qVKkm4OBP4kvjQEMnDEV0lbi6EhFgb+Gvv/4qX7t2LRxG5SrIyDQQ3zitl/ulOFQGziC8zbVa7QScLwRWgvhynGxFgOsMc1iEE8BxsyS6Vh1G0KxZM44R3oh84QS3D3p8BfBcgfoe85IVgiBkJL5t27YNcHV15Xi+oYhnAfofD64dwuewjI/iZy4+AfEdhtN/UEaU9U4tgUgf5cwhQSS+0BcddGQ/4m0jvmY4axLfAgUKyMOGDQt+8uTJY+j5HHPy4OTJk2kvXrxY+siRIw3279/f6tChQ50J3G+P+83Pnj1b/8KFC+Xu3LmTm0O74OcXQ6zMGOogoZFwHcS3M+RVBmn7LCe50ZH44vDR6jZME7fIX7FihY342pzNfc0OhHciDv4kPeqKOiYIAylAA8nfh9u3b+cwhwAQ3qUwkMWA/9TY3qgcjKgjyFfd4OBgkt0RqCBG85rpxzNlGTUgKcAVLaw6fICuSZMmHXE4iXyJckkzPFegvse8FMSXzzi5rU+fPtp79+691+v1XH6OPcnx4axGfBNijC+XSypevDg3FzkKXX9vXB5igkgfywmJ74QJE2TIV6/T6A4j3jbia4azJvHNly8fiS93KAyCjm9BHsS0nNk3JUqUgIkrNCRv3rx/5siR40ju3Lkv4PwCSPTZggUL7i1Xrty6mjVrjmvatGnzNm3alBg/frxV1gxPCGcO8b1///6NL534ssf3jz/+sBFfm7O5r9Ft3bo1ZZkyZVzs7e0XwSAoYxZjA3ilHLmUV506deSzZ8+yQn8H4zgoIqT/tkPl5jhq1Khqw4cP7zl06ND5Q4YM2QoythPXO4CFI0aMGKLG2LFjh+D9QXhnwLRp0zquXLmy7rFjx4qxR9HgpUXu8uXLLhMnTqyGCpmTxZ4AoYDJ5czwugJxzXwj4WXlRvAe8/G7776T+vbtq0UcXwCrgG4jR45sgfg3RpqagTC0wrHzb7/91nPSpEld5s6d23716tXVnjx5kh2ViVnpQHhfHPEtVqzYEJyeRCPRWy070XAQZcIURPr4Pokv/4yEhYWx1/co4h3jUlpcb3vMmDG5IfPKIM2tJ0+e3Bd+9EfeDxg3btwAngN98V4fgfnz5/eZNWtWr6VLl3bcvHlzE64RzYaYwUurOE5WnDFjxvfTp09vB33uBQycOnXqIAK6oQBxGWiIY18ceyHunfFNq1WrVtW8fft2AcSJG8vE2BiMK/FlPohzbqzTrVs36eTJk/rr16/fPnLkyFDEqf2QUUOatwJrrfbDD92LFi3aN0v2LIOSpkgx1C5p0qH4bj7wD/AE8AT8DPABXiOPH8OeXkAZ2p4lS5bFKEejOnfuPAQyGAJ72xONyeYc3oS0fnZrBkdHfLlGuYH43gTx7YH8+g5p+OKIL8G10+NrqAP03I71KsvEzJkzc6MMFACKTJkypQTKR2mU1XIowxWBqtC1anj2PcvO8uWrK2/fvr3soUOHCnDZRMTLauvNx4ej3JjOP//8M9OSJUuKzZkzpxrKfW3Y4oasI3755ZdmBOrC5qjrmuB+YzyvP3v24ppr1qypuHbt1hJ///13Xm46Atttdlr5HsqrPW0x5UQY/qxwjf4El9eCBQsyoGwXHDlkZLnBg0fVHDRoZH2mf9iwUU1YT06a9FuzqVNnN5k7d0mD+fN/r/XXX39VZl3PehJlKLXBm8/GcXLo0aNHs+3du/c7xLU+0tYBdX0vcIGByMtBvXr1GhIdaOdQ3wxZvnz5IOjGwF27dvU9fvx49/Pnz7eBnW/y8uXLCn5+frlYByG/Po39WLZsWe6CBQs2RiW8E0ZOmaVuKWgU4ZVS6XP9VyRevnv3LndnexocHNwnIqT/tkuePDl3NlsJ3ALeAkGQTRCPACtFrlzgLY4GsFf2LSpI1+rVq++Awox4/PhxEbxjsYMxbVytWrVV8MsNfkZJegm8rkBcMw/VxJdjtFFpKCtzODk5SalSpdI4ODh4I40PgXMgfIeAk3j3Ir5zwztPgAclS5a82aJFi5W7d+9uFhgYWMRMI8Tl7V4AkfGyFAlJfNkwKVGixK84vYIy44/jB7IjoiO/Qv78s0KQ+Hp6enJN0ROId4zEl5vMoIx1BKH6Hem+CLxInz79a+At8MZw/hJ4DvDZC+TN8wwZMnjg29vNmjU7tmPHjt8QZimDl1ZxIJBVgdV58uS5mTp16mdp0qTxBLwIXHtBhwhP4C3wivFBOu7i/Ysghn+CIPQFoaoMGcRIBq1JfBG+zKUHFy5cyLG+ISBEz/Lky3czuYPDP/9LlOhK8pQpHydLYf8qqb29VxL7pN6JkyRhuWV5DkU+a6ADOpQXPfJdj3sEV1LR4JpL3dEG+LPs4Po99OZ9q1atnsybN+/MwYMH57148YLk97MaIxsd8eVfIBJfEI5bIL59YN8rIP5fHPFl+eRqO6iQrU58SXo7duyYtm7durlLlSpVI0+2PO2cnDL3AoY4OrqMdnbOMjlLluwz7e1Tzode/O7ikm118uQp1zh+67imRInSixs1ajwNZLE3yFS1PXv2ZCMhNHj92bkePXqkaNCgQS6mExxieK5cuVZlypRpK8rEfjs7u6N45ZQB/8DWHUeZPZwxY8ZdRYsW21C5cuVFTZs2HQdZdULDswrSnAOyS0l/Y3J8j/sO4FgIjWc2ICrOnj279KZNm3KfPXs2wcfoZ86cuWLatBn6J0mSfOb//pd4/TffkEslPQwcT5w4yanUqdOddHbMcjRHjrx78+Ursql27XpLunXrNWL+/KU/nTpyoeDnZgNAcNN37dq1WaNGjWaAl+xFub9Dmw4b4Al44ZX30QF6/R7103vUN15Vq1Z917x58xfw7/HIkSOvoeFzDPxg/vXr11ujDioJG5IM3yS8Q8ukMiqgCTAIV4BwVsY0dpaA38ArxaCwt/ePP/7QI1H+MI7nwsPDW0WE9N90NHLI6CIo6Nw44g5ukXR+NKEiOqDiDMudO/erdu3a7UMrkBPesqAwRGvw0PLK3rJly6qVKlVqmC1btnYgGOtAJh4gL7gZRKw2rmDlRjA/2RtJAkzwHJAALZ5xcxMWAB+GBYSDILPy16BwhBYqVOj+ihUr1iMNHZEGcwxZnIkve6JgBDnGNwhuNsJObs3KTO1QEXE5s3mQ31OkPQS3PpAbj2riayxzgt+I77ieKBoJMuJ9CnE2Z/MErre9DHBDxR4IcAUWiX4hPIlA+AQX7ickvKOQMpyHoay/h55dIfk1DMHJEuFt7NzUqVOdEX5FNIim4ngPOhKKuJAIKnJQg/cMYHy5ZCLtTSAqxCdoNB0YNmzY9EePHjVBnPIBUfaEWHOoA8+//fZbhQADEs51KEuhiJcvngcDWsSduq+sT86jcdpU6Yq8J/KfYBlCfilAQ0WH8uoHsn0DdnIOynsj5EMe5D2HP33yX+5REV+miUscdurUicT3Nmw7h3JVQpw/W+ILuZskvsyPNm3axGo5M7xrTxuAhlqxXr16/VihQoXW5cqVa5cvX+H2GTO6dEQjs1uGtJn6p06Rbpy9vcPSZMkctiWzc9hnZ2d/LEni5KeTJLa/gOtr9vapbjtnyOwGMvQgeXKHR//7XyLCDYT4ctas2fdlyuSyGHXC6HKlyvXp0qVX+8WLF7dG2Whs+FOQLbryYW3n6uqactWqVdmnTJnyHcpeI9i/dtCF9tCTXrD940jgcTyB8vEA5eN5kiT275LYJX0P0ucD+OKc8Aa87OySvbK3T/40Vao0d9Kndzzj7JxxJ9MK2Y3JnDlrH8oQ5NgIvOfS0YVAo5/vZciQaTjI1eTMmbPNJzJmzDIza8as4/isYpmKrVAH1QD3KAw5ZYC8Yk0s2aM9f/78vCTnyOsmaNwrcUiXLmPHVClSdUyVKl3nlCm/XWCfNOVhu8TJriG9TxInTvYqcWJ7L8Ab8AUgB3vIw/4tnnk4O2d1y5I5+6mCBYqiAVBjUr9+gzvNnbu4PeqvNpoATTXmL8BNrBLEHuzbt+/b0aNHlwHRbVS0aNHWOXLk+MXR0XE98vIq7OAbIMxgryM7bASEzaOdELaQ92knWc4Mtk8CN6DdC2Hjv23btreGDx++GY2X31APdX/37l0l5FPCNlhgyFohkbtgEF7iUscIq422ucC3ypE7kZ07dy40JCTkklarncadzZSA/qMOrdayyPCJkB8rYvYEKaSTshCKEBP4Tfr06TUNGzZ84ebmtoaT46AIOel/FM4OLewuILpbkF+XcO0BI+SLCjsc/pn8tWcK6vwjRHyMFZfnBpAAsACQAOsYFo4SDJ5CuHgOwx8GQ+GL+P+JgpsxIrrRujgTX1bI7PG9ceNGsF6v/x1hZ0bY8dJT4u7u7ly5cuXNkAN78nXMY8pGyE7I0pS8BfCdAn5L4ouCbwnxbQk/bgBhgJLXIkz6FxWgH9yJUQJh1JUuXTpk7dq1njqN7iQqh58RbqwrBlSGdXD4A/G4jzgEA9SFGONjgCDoGuh/IAi5OyrZnSBVXFaseEQIHztrEV8exbkgpjxnGhAn5i0bsJGNSFx/YOzNAd8lYUZ8Ff95jnzg1uahIJnvJ0yYcOHy5ct9kV5W0J98LHB0xBcV/n+C+LK8gsjInL+AcmcR8UUDOyvquCrVq1efjobSeeTr42TJknskSmQHG6bUoa/+97/EbxL9L4kn4AP4w1wH4hj0zTdJUT6ShXzzjX1oEjv7sOTJU4U5pnMOBxEMT5w4KRGWxC4ZGtPfBMIfkKYk71I5pH6TN2/+Fz/8UPtxly7dro0fP3EFyFjbBw8eFI9LubXE9e7du2DNmjU7gLSsANm8amdnh/Qqw9PeQL89USZ8INNggA1ZDcgtGotJUX4igDTpcU9H4Fr7zTeJNUBY0iTJgoEAyM47UaLEnsAbAPJL9AF4LwJ2IJRJeP4G99/i6AXgW35vR6LtCbxJZmd/f/jwUXtDQ5UJ5lxlKdYEsmfPnnmLFy8+KFOmTFuQ7hsoB8xnJT4k8cmS2b9KkiS5N/IV+WsXivRpQHCRfnuk9SNo0fjRAMhn+yDohJ990lReuXLlflW1cvXnXbv2eLJkydJtV67c7ODr61sKcU9uiEa8urp165YvUKDAUjQyLsFGPUI636Lcc8UidgCwrmfdHkl21RC2kHZCbfMI9TsIhnZUD9uiy5w5cyhk6lexYkUvyPfV3bt3/0I9xD/ECdfzDUPXH601/p5nRa70bDARlgDfKaBR+eWXX7gxA4nPstDQUG7qEKd1aT93V79+/WaQwVGknb8AdIAiE5H55oDfUEGqVasWdhMODYa5UAJTq2Bw6EBuVJw1kU9cuYGGNpSVKYkNj0IJmRcxQeSfgIgP40I9MEF8FYjn4hytuchwWcFPmzaN47uvotHD3omYWq5xJr6cdNOjRw9506ZNYSBOB54+fdrmxYsX5d68eaOMHcM7kQ5xScoeDI4J8/T0zIRClwmVSJa3b9868x6f4Z2Phmjw3qNHj1zQQq2NCuA85MJeVBIkRWZMuykZmwK9I/gtiS/8lf38/KIlvvy9h5Z4dp7CDy91vtGfmMB8IZif7CHnr32UT2+NRjMa4cba4HB8N+JzFwhDXCJJr7nxIhgnkqpevXppX716xTW/uRRgvajiZQ3iKyCuRVzEfeYpyxOH+zB+fGb8rrlgGWH5JHiOxmGkziAvQoYOHboHOtACac6PNCdIL09UzhTxFWnmkCISX5QXDnXojXxi+f5siS/ivhcw2REAmXOIkdlbFnPcY//+/VNnz569Pi4nQUaXYP+CkY8SiB3kZAd/qT9oZDqkVpAiRUroTgo5WVIHOWmSFAp4znsE3wWJUr4V90CcFCRP7qD4wXv0B/eo62GpU6d92KJFiw0rVqwYDZ2pY9CZeMmDBQsWKCQfaR6C9G5CebiP9IbhkaIb1GHqs9BlAZEGAcpHIGkSewVqmVEGESCXoL5FyJHPCbU//Jbnpu6jAaIAstOPHj32bXi45iB0lH8ezS5TeNeOdcb8+fOzgZhVcHR05ETmQ9CZl0hbOHVHxPffeDIeEfGKAM9NXUeAcY9IK8uXnYgz6tG0Utky370aNWrUxkuXLo1AnVTTz0/KgzRYlQCzjtuyZUuW5s2bF3V2dq6O/JuE227Iy1AcFZvKdDJfRR5HBT6nbVDnvyhjAqx3yBX4Lu0p7ar4FpyHQxS5nwHtSX7AgXGMd4dKfBwMO1pW/9MCSgTViTAH/I5gIjlmEYTHCxXqWCTC6lvdfm6uZcuWrPgf4FQDKL1D6kpPDaFIxsB3yrFq1ap6Nze3AJDGi5CdqXWPHdEaG408Ogvlec0e3m+//VZPxRKkl2CeCKWLDsb5KL5nRU89IHjOuKmVne+I5zznr2K+Qz+p2NQB5P8TGOXRkkbir5vohjzEmfgy7dwK+qefftKj4eUzaNCga8OGDVsKstic48DwTqQbPXp0piFDhpRGxVd3xIgR7fBeF4CT9loPHz68Fu4XwzcfTczDN054r0+jRo22o2X8lull2vHIbHkL8BuC35P43rp1yxziWyxLlizKahIIL5jfWgJ13nElAzZOYFh9QWDGINy49PgOg468Rh4ov8IoFyGbqCB0TcQH3ihDDQYPHix5eHiEBQQE3AEp6RJVvEh8oXOncRpn4ivioYa4R71CGVMIK8sBoY6/OaAsGKb4hue8R//pH/zWQ3d9x44de9nd3X0Q0pwGsPpqL+a6mIhv586dv5gNLBD3yA0smAZxxCPFRqGyfQ87ZRbxPXnyZNY+ffqUy5Yt2+/QC85p4PhtNn7hnyBD/xI3Epp/yZ6B8CaDHgEkQ4IUR3z/jXJN8JzfpkoJvQPxFdcR/v8PDUu7UNh777Jly76EzbqHRv4MLy+vePlNXKVKlV4gfmeQ989w6c2hbEh7ZJkTeky58pqyjZDzx4RVjfTpMqBcfauQPV6L9wUEofyXWP7rn3jf+L46HMRFGjxoeFBwcPhd6Ohw5K/ZDQMQwnTs4a5UqVI/yPkY6tvnSKM/yqqGv+xZ14rw/oUgtTFdk/RGkHaCZF2tA7yXNu23mvz5CnqPGTP+4aVLl48/e/by13fvlKFQVitnkyZNKly9evWuSMsK2LdLyNfXSF9o+vTp9ay/mZ+E2oaJvDYG7/Md8Q28jxa0eREyZN4mksE/+ac2EJznMtL4W2BgYOEEsSkFChSYlSFDBk7SiVRokQhzQQHwOyYGQpVhFN9A4brg3n/eNWvZcjgykL29kbITisCjKQhFEuB3PLL1A+IrQX5vYZCH0386KIIdKh3Owi8PxTwK5Qkj0WDFTFCZCBJR+iPyRRiimCDeF/ETvVwibnwm4ir8F2HynOHySD0gCf7tt9+4FfM7pGFTeHh4N8Q/uglLcSa+TAPDZcWcO3dukqhw6LVb4cKFlxUpUqRn0aJFS6vQvFChQoNwnIXjOjzfhOOW/Pnzr8qbN+90kMK+QF18X1oAlV1p+NsY727PnDnzG6Q1nGmnnET4TL+5EPHmeadOnZjnXNkhWuIL4l0vU6ZMm3Dqge80av9iAvNM5BfziD2+CxYs4Nhiv6CgoHFxMTQTJ078FWEo6xkzHKHfQpeMIeLEc8aHfwtILkl827Ztq8iCuoMyMDiqeFmb+KJyV8qReC6MOvWaR1HGRPlSp0OkxRT4LsHv+L26vNJf8R5lAPIbvnbtWvb8VoftZM/+J3Fm9Phyy+KzyBvGM7rhWJ/MtWjRIqWzs7MTZHwE8lfGm1PHmBbmBRqu8syZM2WtVms28T106NB3LVu27Ia68gr80Qm9YKOI8hF6wLDw+gdgj56BuOK9CNIjCLL6viBuJEMkhSRG4n0SYd6L+C4ivOLFi8vTp0+/6urqWgNp4LjQJPArzo6N/PLlyxd1cHD4G+lR/igybXgUqbMMn2mlLjO+jGtEeiLSJeIdAZI9EtPkSiOA7zKd4j1eG39PwijkIcB3KEt+Q1lEyBV1J54xDhkyOMOO5JObNW0ubdjwV2hgYMgT5C/tm9nEt0mTJgVz5crVCTZhD3QlMGL4E20F8hbhMF6MB8PjNeP7v/8x3iDj/0uiQOSpGoxrRHz/bRypz9XyYl5Xq1ZD99v0mQGnT5876eXl2wR2OiPSEacGMf9asFOnYsWKrVxcXP6CDVV26qUuC/3luSj7sQW/FzZOfV/oC+0dyyHfow7fvHlTj7LIiemnAOpy/P/1ypEjxzxkLoc5REaQQrAEorAzQTNmzJBhEL8a4tu0RQtuxczVGpSMFDJRnwsIo0F5qcFveTQQXw4T8EbFP5r+03G5FpAxEsRVUJhnMEQkvRxbG1mRElQmocQE42AOjONIfwjGScRZDX4jwuS5UGKGLYgv0sBKZS/AsYDOESkx6eJMfAlB1g3XJESceMbVNdwRt1sqPAC4uQf/cnApKjFL9R3Ae0+Bu8BtgEOAFOD9+zgyn8MhJ4nhEWrZmQv4oYCy7NOnj/z69Ws2FmMivs1Buo/jlEuo6Yz9jA7MR5FfzCP+ap89ezZ7vPyQN3EivlOmTBkD2XywnrGxvpgC48H4UIbp06dXNr3hNrIeHh6yTqPjHyNumpIgxJekSOiyuMf4CYhyRYgyK9IRXXrFu2p/RJnlfREew0ZjRGrYsKH3li1bzgcHB/eLS57ExZnR46u/f//+EeiN2UsWJqQD6U2KBmwVyPsXyJvbiivEV5RV1lFVqlSR//zzT2GjzCK+O3fubIOG2frs2bM/h3+Kn0IfKB/6zXwkESYBy5gxs+zikl3OmYMN8XxokOeVixcrKVer+r1cpXI1uUD+QsqzIkWKyVkyu8iZM2WVHdM7IX5pYUPTK+QKwSrgueghJjHiPYbLnrMSJUoELly40O3t27czkSdWGVaYP3/+/pAdN+jxQjnTM13UWeoAHkeC15QB48u4OzllVNLN9GTNmk0BZZDNJZeCrFlyIJ3ZlHfZ48s0CfIqiCWvmV7RW8pzktx/0/6N0hPO9ygryo2yrFqluty+fUd58OCh8oplq7RXr15/hPxdA5k0Nid/QQjtuJMoXBek9TRIvzfsgvI3lfFg/AieMy6CePPaKQPTzLzOK+fJXUDJb+Yt5eDsnClSHygnppFgWoR/vGY6BXjf0dFJqlq1um7i+Emvr169sQv1A+vRvHGxC2PHjs3LFbzs7OzWQE+fohEXgjxUhqexfDCP1eWdOibqdj7D+4oN4OZWArzHOp82nPUKG5U85/2IRsO/+kLQL4LnDAMNLP7x1GvDtSGoj84CtczJrzg7RHYRlJdjOyITTFAA5oLvs8BzktHixYtJfF8DcSK+TDzAmc4cc5kW/qUjDOepDfe59p+yEQTAjSHU4D2xUQTfS2n4Tu0Xd05zNFzzmcXrJjZv2XwUDly/8wPZUZam5ERQodTgtzyS+N69e5c9Ef4otNwqmOn4BsQ3H1pGXJ/3EfwJoRKqQcNEiApaHQdzoI6bOGd86B/Bc/FcvCPC5rkoHBFG8FulNwXy9AGBOYYCy4lK0RlkqxBfxovx4JHXjI+Qr4i/OKplI94leF8Nvive57fifV7TUIjK1FKIOFJeo0aNIgFFNsvREt/Bgwd3glG5jlNOILNo1RDGXegIw7Qm8Z08efJIyOUdwjFrUptxXHiPcqShJPF9+fKlrNPq3kNvSEjinfiK+Ii48JrnaohyRfA5IdITU3oJIRcBVggMU8SHZIwVBmUwfPhw7fPnz/9GvnAd1wSf7GZmj+/OrVu3fpZje0leYJf6Is/2Id5szEbmA88pZ47vvXDhAomvJ+TMPwsxVrTbt28fOmjQoHO5cuXyht/KXBihD3is5CH/WiB8RY+7dOkijRw5Upo+fbq0YsUKaeXKldK2bdukEydOSDdu3JT+/nuHNH/+Qmn27LnSxImTpd69+0o/NmgklS9XUSJJ4nAA0ctLoiVIEUkS00L9ETYYjRH5+PHjt/z9/bk7qIM56THl2CNYt27d1I6OjttBjpS/SgyLaRXhifLA+p4Eh+SHRL5x46Zy9+49pREjRkmjR48Fxin4ddx4acL4KdL48ZOlkSPGSUOGjJDatG4n1fqhtpQvX4FIki9gTHzVpFCcC7L7Q83acudOXeWlS5fJILqyp6e39Pz5S+nRI3eIwn8L6tHakEWOqOyI2nF1JpDCvCiby2FbAtkYZhqZbnVcmBcEiTuJfaFCReRGDZuBdHeWBg8eLk2ZPF2aO3cB0juJa+BL7dq1k1q1aiX9+OOPUsmSJSX+XaI/TCfzl+mnXzwXEAQ/bdp0ctXK1TUb1v/1NjRUszMkRBk2GGtS2KhRox/QcJuJ/LuNvOXQDaV8M4+Zt0wv85dpZt7y7yl7ZMuVKyfXqFFDbtq0KdLZXurZs2ckevXqJXEddKYT/ku1atUCYa8qVaxYUYI8lb9p1BeWE2FTBMlm+PRX6fHVKD2+/yDPasYljWY7ZDI3rogkvowkhWEJKDgKiglFAbcK8Z01a1Z2kIJav/76a89x48ZNA+ajxTIPLbOZMFzjUEEMGDZsWPuBAwc2gEGqxnGbI0aMKMkxmjzv379/+QEDBtT65ZdfmiBz2gN9e/fuPapPnz7T8Hw+7q8EmViDb1fDQC0dM2bM2AkTJrTnWEpDFMxyzZt/SHwpD8rRFNTyUoPfUjFUxDcIWAYZFgGyQDEqw6Aewrec7ausvEFQQdXgPSquCMdUHExBHSfxHc/pH5VTPFO/I+IgzvkNw1YRX09duG47CEwvnDsh3lE5qxBfgjJk4WWcRAFWQ1QU4v3o0q/2l+Azfssw+I41iC/lBuLIChhlPWbii0rmGk5jRXxFhcWjGOoQFBQU56EOU6ZM6Qd5PQJYUcY4uY1xoNx45LWQdZYsWWQYT/nZs2cc6pBgxJdxoHwEhIzUUN8T74n0iHRGlV6RPgG+J8LhkfdImqifPG/YsKF04MCBp2/fvl2NctMyLnkTG2cO8X38+PFnS3xRsacFaVuJ+PJPDuddfJAH7JxZtmwZCNJzLcrdQ41G0wMyjrGivX//fr3NGzZPrVSp0j2Eof/uu+9k2H65X79+8ty5c+UlS5bIq1atktavX68/evRoyKlTp96dP3/+5rVr1/ZDXvuIV69e7QsODt4XEhK+7907r30P7z/cd+3y9X13brntO3/+0r5Dh47+s27dnzd/+23Wm+HDRobXqVNfIcHs4SQZIthLqtYh2rsiRYpwfPxbDw+PDUhLJ8Cc1XQ+cJRB165dq6PxNQzyuwNbxxn4kTrAsIQNLVCggAyCo0xknzNnjrxp0xb97t37/E6cOPXo0qXLF69du7n/2rXr+wQePnyCNN7fd+nStf2nTp07fPr0mRMg/m6zZ83xGTJkqKZu3QZSoYJFlLQJkkkwvTwyDuwF5XP2npLwDhkyTN669W/58qWr8uPHT3Tv3/v4hYVpnui00oXg4JC179+/78iJYUiXWX8l0Ghpg3RyeMMrpFvL9P5bBiKGYzB89jJXrlRVbtWqjTxp4hRp7dp1+sOHj3sfO/bPzfNnLp2+cvHaIVfXu0j/zf3I//3//PPP/n379u3ftWvX/tWrV5//7bffXnbq1DmkfLlK+nTpSAo5gTZifLfoSWZYDJdDJpydM0lDBg8Lf/Dg4dWwsDCzeq+jcpkzZx4MQk/SG4j0KbaT6WSeMq20b6y/YQOUIXism9Bok6HT0ubNm0P27t37+tChQ3dOnjx55PTp0/uYNuLcuXPKEc8O7dmz5yRwBe8/QLl4C04W1LZtWx3XzQYxluvVq6c0EEXPMfXo1q1b/uFh4adCQkLGwOblQxrj3+ahAC1CohXiSwVn4nm0BPyGiWC39YYNG0h6XgFxIr5obVREBcnf/dthxO4gjs8A/qLmL+fLwGHgD2AawN3huFVvG6A5wIlhvQB+PxtYB3Bpm3OAK8DB+vwNriy4jAL9EgpwMXnKlGtKlCjB7812TVTEl8ojoL7mufFzQl05UobcP/7evXskQiGQ3zaAil4a+tQEZOUOZK0oK98lqLTGoH/ME+OwTEHkn4iHqNDFfV6rn6sh4sBzhkv/eM2Cg0aL0vgBeV+FYxsgyl3CEEacd24jovte/YwQ6RMwfm78PWH8jfo7U8+iA2VGPyk3NOBI9JDN0RNfNOg6oFJSiC/CNGvJOnV4zEvmD49FixaVly9fbhXiy93XENZVIAj4YHm1qMB3GCce4YUC9sRxbVV3d3fqv1dCEF/jeFE2ajmZgog3j6IMqP3gffW1Oo3q8EWekEzwPUF82csyevRoze3btz1RfhZDBvHf+6FyqIjGIX6RxFccGUc2Tjp27KhHHn22xNfJyckZsv0H8VUaYYy/AB4rlTrIqB6E1x+6fw561socGcOGcYewIhMmTDjYvXt3HSeHooEigxBTX/FYcTwJA54D+4F2luQf3s8LtA4KCt789o2n119/bdQ3/6mlxF/m7CUUxJcNJaF31CN8KlesWDEMZPslyNGf8MPiSYccIsK5DyC9J3H5nvKiTpL8Uk8ZJgkSO7dIivhn9/r167QhklYjhYNwXkfqJyPcH6JLM57xz2sWYICPT9D5a9du+axcsVrfqVMXuVixEgrxE+NeCX7CdPOcDQA2BH76qYW8Zcs22dPzvSzpZdhPXYhWq7uObJgLfytamnY6pHEx0hzMRrnQFaaXRxJShste5pYtf5YXLlgsHzlyTH7+/JU+NDQcItedCQ9X6jmuGxzlhgxSiFQR5G7tubPn3WfOnBPatGlzOXeuvLId8lb09JL0Mq2UA8Hz6tVrgICufvn69esOcSl30JXlOHB4g6I7zFfWQdQl3Fc43I8//ijPnz9fPnjwIBoUjznpmruKalFePKDn5CQ9gfSKhyrHPAf4hz0b7FZ9vD8GjY+dd+7cuQ+SHIiyIm3atEles2aN8seldevWcrOmzdhg41A/d/jZAXCJTn5WdUj8Ihy4y5BSiIRQLAG+V8Ybkb2jVUDSwyWJSERj7eBfHygg16jlDHpupcxd5QhWsFwvly16jsnktqEkw9w8guMxbwIcn+kGPAQ4ZlOM5yRBZa8px3+GA+wRIJh+v0SJE710yZHjxs9t2ux0e/jQLOLerGUzTkIjgVbkYA5YsAjKjuA5lU8QXxhjQXybA7XRwuqVL18+9qop71JhBfidmvSKd8yBCF/ku/DTWAfEczXU70ZBfB8CHJdUDoUhypU94Eecia/6W1PfGz9Xp40wfm78PWH8jfo7U89iAv2kvIYNGyb7+/vHOLkNBqKto6PjeZz6I0yLia86z1h5LVu2TBnqAEMcJ+I7adKkn3Hg2GNWlty17KPwjaF+h8C3auIrwcC+geHkCgcJSnyN5USI+Br7wfskBqwoeWRe8ltj/8T3piD84TnD4vu0o2XKlJEuXboUognTcC3sBCW+33///TjE6YMeX3H8nInv+PHjHUF6u8EWbYEc31KWxsiRI4cypt7DwyMIOnYKZW4kiJtZ6+HiHRI253fv3vV78+bNQS8vr7P49gz8+Af3TwLHgaPADmAR0A8oZUnZwrscelciPDy8K75d5ePjf+jo0eMn+vX7xS1L5mwhiRKBrIAk8Te8+NvEz4i8efPq58yZE/rgwYOTKDsW7whYrVo1e8hoGfTYE3mvobyo06JBxuFRTZs0VYZIXbhwQfvkyROPwMDAMwjrhE4n7dRqZa6Z2wCItscOz5LindRAFWBMgG/gH48fux/cu3f/jdmz579s2KARyGdKvRhaQCIoen95TvL7/fc15UWLlsivXr4NRT66gfBuU8LXSk3hv1lDG4QD0asGUs8lIm9Anlqml3Jl+gXx5ZCD2rXryuPHTwQhPMzhFF5+foFnkO7DwA6NRh6JtHDdXWeEHeVQSTzLhrxtD0I45+H9RzsOHThyo1OnzoFpUn8bmU6RbkF8mW4OqejTp2/wtWs3LoSH6yfBn9KWpBENlbJZs2bti9MLyFMt00d7w3qbR+oTlwRF2ZbXrVsnoUGjffHixWvUD2eQpuN6jX4/5LwAce+O6wqAyeXVECeSXw4l5bJktYCe8GNGcHDwpoCAgONcucjX1/cMys9Z+H8OxPoczs+hHLHBUgbfpqEfBu/i1yHhCvGlAKjoFIqlwPfKL3Ey+CNHjnBVAg/A1HJcZjvEZzEOys5YVEJ1eMIoR4FYVYZM//8S/U9O821aqUGTRtpHz57twP0YXatWrbh3P42FSX9Nge8S6jRRCVHpyDBcauLLVmQbVIITihYt+pxy4PeMqwDzjOAz4a+5EGHzW0L4aSxv8dz4PQFj4kvjiHhfA2JcxxffJzjxjQnG3xNqeQiY+lYNU98QlCH9pLyGDBmibGABAxEt8R0+fHhLEF/2xpCUfEAwo4I6PHW+sVeRv2a1Gi3X244r8W2Ew3aAeag1joM5wLdq4quH/rPhHOUEr4Qkvsbge8IfXrNHjGSV9k/YT+E3n4uwYgLfFySDldCaNWs4lnZPdGUnPpwgvjhV4iLSy+PnTHx/+OGHvLBDuxDPQOShTuQlIdLQsGFDeceOHWxocvI1iSnndZg9p4N5AaTAd06AswE8jwSek7zS5lk8XwTv03/O6+C3JBBOIAZOe3buad+udXt3J6eMir5TT6h31DdeExwfzl60Y8eO3dVqtd/je4vKdKFChbjk5EGAu3BG1imUHf1mp8yiRYvYWy77+Pj4gQTNQPwyq9LMOTfs8TNLXw3vsjHB+TVMZ407d9yWz50zz63cdxVDUqeKmFTGHu6Inl+W0YiVL9jzOmjQEPnx42ce8INDO0T4nM9jUXnJkyfPCKSXf1PZIaasy860s+yyXqNdqlbte/nXXyfIR48cZy+zDvHdDbDXWp12ZT5OhK+mHZ8D9viOeucIu19n86att+rX/1FycBCb50QMaRFjiXnO3uAfataStm/fqQHZ5xJtXJvY7PJXrly57unTpz+MdL0DmVcmZgrSy7xmfdClSxcZZVp+/vy5HgTVH0SVEwPVaTRbp/kOwPxlWWEjR8ljA0S5UcOicmgVh8QrY3wpBKHoloLCY6uhZcuW/P3DHht3FAyO3bTYbdmyJV2+fPkK2NnZbUWcwlnAjePFigKvWg30k79yktgnk1OnTSOD+EoPnri7hup0fZEhlaPLlDYd2nCYBYdNmF0Jqys7ATXxhfyCoQzbAW5f3O7WrVsTS5cuzb2ylTCYV2pQPsJPIRv1dVQQYfN7Qu2fOm7iufF7AqaIL9LAtYi5D3m0S7Dg+6+W+FJ2/NUDox8j8R06dOhPMF5HcOoFv+NEfLNnz65UYqggrUF8f8RhC/AcYcaJ+LLifvz4sQ668xTxYtmLF+JLmYhwhYxMyUmAtk0N3hPv0fYx7tR7lgNxn/6xPBin1RQYDx5F+Jwv0alTJ+nQoUOukAMJGndIs8pSVTE5Y+LL+PDI+H2OxHflypXO3DbYwcFhBeL4BGDZUAiMAPOCG6SMHz9eWTUkMDDwORpXFm1s8CndvXv3yiyav2hD5cpVXqRI4RAu0qXWNza+ONRwwYIF92FLuCSUpWU6JercI9BZZcUa6jXlhvtyyZIlFdmdOXNGC9L7EvrIyZcNrSk/Ly+vzIGBIT9fvXp9+bQp0x9nzeISnigRh/axrEYMeyBIBNkD27x5S/nOHVd32DD28sY6Hs7OznNBBhWbiktFz0VPL88rVaokz5o5Rz5+7KT+8eOnXsHBoaeDgzVslMdZ/+FHtrt3H8xYuXL17WLFiqPBRrsS0esriC/PKYO8efPLkydPlW7dcqXu9rYkfNinaUgLV4MKZZqoLwTtE+0ZJ5hxLC/KhjY4ONhDE6rZGR4S3t4aafycXZyJL8HZe+wqP3LkCHtsHqBgtDb4b5Fbu3ZtAbRAmuD0ODIp8teDADMOz+KGRB8iUWL4bQdjQhkAVb+vLt+8c8dbK0mnQzQaLoAd5a/6tm3bclMBDqWwmPgKMF1q4gv5BQH8ZdYR4B7e44sVK/YY3yoLpht/y7zj96KiNRWGKajlKgyo0AMRV/Uz+s9wCOYLDQSNJK/5Lq/z5s2rjP+CQToPueXA/ZjcR5PbTMXVGjD2Xx1mTFD7o4Z4Ft07ajkLefJ9HgcNGqQsZxYUw5bFI0aMaAxCxHHqbGQpm83EBOPwGR7BCT7cuc0aPb7Tpk3jTlabAQ/gg3ipZRAd+K6hx1cCqeKko8eIV6+o4hVX4ktdjuoe5cTeW1YIbAxzWAh7u+rUqSP/8MMPMic1cbMUypBkg4SXZUHtD6/5PcuFqfSqIb5Tg+WM5eiPP/7wDgsLOw1bMAzySJDtS00RX6E/tPHNmzf/rIgv8qN4ypQp/4LMXyOuHL4Wqes8UpbsPOHOjrt27VLGLIaHhz9hxwz064sgvq9evXI8duxYvQ4dOsyBveVunZEdINQ12mD2ynLSKsr1g9gS36R29keSJ3eQOOGKpIuTqzi0gCRz/76D8rNnL70ht2nQRe4Wl8bwnVUc/GMvYdpQ39AaB/cf3NGgwY+eGTJk1Igxr6InlOC9UqXKyDt37nIHEY/ThC+4tdATbv+u6Ls4UraZMmVS7PO5c+doo5H0cBL+ogC3F4+1zRSOaYZfmW/evFkHeXvNyckpcgMsUc8KPaad4eTfo0ePcn38X/Ct2eUP9fJ6lIMwpokQtofnHP7Dv45IowS98YPfq2Bz2GEVZV30X3EK8VUbuNjAQHwlEF9WXG7I0FYG/y1yf/75Z1kUYI7vvQB8GuJbvZp80/VOiE6SnoZrtfOgBFHuPIbKegAONEaGXXxihlA8AaaLSm5EfNnj2xqo6+rq2hGV7znIIghKrCNJYK8QiSbzTe2PWk4xQf0+/WFBENesMAi+F1X8xbuiQHFwPEiBft26deGI914Warwfk/tqiS/PuXObOcR32LBhP8L47cIpG1mfDfFVD3UA4kR8W7durRBf6H68E1+WHXFNG8PyxF7BatWq6YcPHx4CQv8WDTiPlStXPt62bdujHTt2PNqyZctD6PZD2Ch3PHvRp0+f9yDDoYi7stapsFUkIiS+vDaVXjXU8VKDpHv69OmcOfMWjUiu8JIa9+PdkfhCPpHEl7JiQ4D2iTa+adOm0uPHj9kTPUgKkaogjz4JAUZDMEeVKlV62tnZcSvdJ4hfOOKq9PQybxlXypf5WqFCBWXd3nv37oV5eno+ReX+Z0hICP/kxZm8JIRDPO2fPHmSHWWtAxpED6BfEvOFjwjqGfWF43Cpt0jbXG2otg7yKIPiQTRu/Pjx9kWLFq3i4JBmIAjmPZBdyJAdHBEbLnA92pEjR8s3rt/S+/sHuOt0ytCCeGswIM5ZHz9+8sv48ZP2FS5czJt5qCa9BF5T1sr9ffEydze3R7EivrCneZHuejg9iTL7wYZAuKcQzcqVKytjXtHwCAAp5DbdnHdgdX1/9+5dxhUrVmyvWrUq5zBFDkUgRD4zjytWrCivXr3aFwR8KeT0HfPXHB2GP5tRTjT0i3U6bilgOWFv/rx583Qo02914boDhgbhf7qnV7hFEIg1ia8GxPcWMsWi1RGEQ8ZWy5Ur11go/A1AWbqL/rMACOC1uEGQ3m/gF2BMfKvX+F6+7eqq1UuSb5is/QNpibLSadGiRZyJL2VPxeYvh4cPHyrLmUGG26CATRB2ES8vr9ITJ078o1mTZh4NGjQI5dIgjRs3Vnqh2BvF71BolGVCWEkZ+x8V1PnHOLBgEHzG+HBTgcKFCysFTg1WJGpwrT8uCs+hLn379g09fvz4GxSg5Yh7dBtXCJfgxNdSmPJLwNT7AuIdtZwJYcx4ziWBzCG+I0eOrI9K3CTBjArG4TOPCWsSX+hlYxx2A68Bi+IlwHuC+MIAxzvxJUhOeSQxMmx3zUaIfvny5SFofN568+bNbBAkzmBuDNRWA/FqgWdD7ty5s3b9+vX327VrFwKZ6ilb4TeJryDXxulVQ8THFAYNGqTMqIYt2IswE2SzCFPElz2mTAuHOnB3PTRO/CGHm7BTExCvT7K9MuqbeojbWeh1EOSuYzxpsxhP5il741nJ0zaNHj1asauQ5Ss/Pz8umcQJbVbtsYxPh7gqY0NBjmpAV28jfZKawPCc9ST1DnYiBETqFuzvfHxTAoi2bHNSIMreeAeHlJeT2CXlpHH4SVvBYWvplfGta1b/oX//3icIcuPwtZ8Yn4ivre/gd9L3799nXbt27U9VK1dzTZyYjZmI3/8C7InmxhijR41xv/jPxcbyeMvj06RJk2bp0qVbgjL4GDr0wfKQlCfHvfbv318+f/58OCcxIt39g4ODLZpUZq6D3+kvX748Gw1pd+RhMHWZceCRwCsK2LE0c+bMYOjxMcYHKGZOfEB6t8AfLf0UNolgGeEqJxs3bgwKDQrlaiCck8Md4qyexs/RKT2+6oy3FDT4/NXCcWnHjh0L1+l01yHEZgb/LXIrV66sCwI3Gwp5F1C2hmQYoqIg8FrcYA7xdXPV6iQpQCPpuTZilJVO8+bN4zzUgfJTE1/Ij3tXb4AMvweyvH371hmVTR9UyFtADO7jGPTo0aNwHDkBRvLw8JBQQJXNEAoVKvSR/1HBOA/VBY352b59e3nbtm1cW1i6d++eBsdAwNPNze0l4erq+gLHF/fv33+BeDzHs2e3bt26hPiyt7on5BZlT7nKfbXEl88GDBhgFvEdMmRIPVR4HEvLIQXK+qQxwTh85jFhZeL7Ew77AQ7BUMbJxQQRLwHeS2jiK1C2bFl5ypQp8okTJzixww+VysWQkJD5vr6+Nby9vV0Qh4+IHeLGCRuF8F7Lp0+fLkNj/zwq0mcow9z6XflLJSa8GafVGHj/I9Dm8di9e3cZ/ksg2ScQXpRLAlrTkfgi/EjiK+LCIxvW1FfmEeLjr9Po9kAGVXFOOcXL5JTdu3c7c112NC6aoNHdH7o7Do2KaSB6uxAnb8ha0QHqNSt1ypydMLzHPGB8r1y5okP58gcZPIj4VoiLvn9Kt2HDhhK1atU6ljlz5jCkV2loiV5BYVeQXi10xgvp3AO94YYH0aZ12LBhmZMlS74hadLkPjhqRY8qhxdwo4gWLVrJBw4cDtVqdOzMmg9wlZ54lx/KVMEff2x0NmkSe2WFBzU4DIM90QMGDHx3+vTp2WiAcftsi4YflChRYhR05zp0xg+y+2D9ceoQO5J27twpvXjxwhf+r4D/xS0Nw1wHP1OiDmg/ffr0P2AHX0CvlR595q+oKxgvNqbRsNHARnG5PE5+b4RvYyT9gvhSV/hnALcUgPgra1Hv2rXLD2nkahEJO8HsEztlHV91xlsKZpCB+OqPHz/OJUYuQ4gcp2uxW7NmTbNcuXKtwqnSEqPfDMO4wogL1IRXDZJfgsT3FogvFMtfo9dzSaHoiO8QHGI1uU2AaTQivgGQIXtM2aLjjEouAZMbqAUFnY7nR4EnADe64LACLVr5HGIgfffdd8o4IXOgzj9RyAhWciRHXPoHhJYT1diL/xTYB0zk7xA1ED7RBudtEB8uacPKMKeZBSnBiK+AOixzYMoPNWJ6X8hZQBgzPjOX+A4dOrQuiO9GnHIN6s+G+E6dOpV/djjpjssFxpn4JsRQB0IQugYNGigz/b28vLgSya3AwMA2yIuSCJvlzuQscdzjeESxHmlZ5F/z2bNnjy9fvvzfKMee9JsVDCtQkddqmEq/8XMe+Qfl5MmTMirfUwjnkxFfVpgEe1K5ixOH50Af9aiE76GxPWH06NH1QEwdFA+s7GrXrv1dwYIFhzs7O/+NONyFPClffyAM0DN+oveeciP5JfLnz6/09KI+4ioE75GvO0AEuZlO1gifvzy3ZcuWPPXq1VsKWbijPIdQt1hvsGzjsZJXyAf9xYuXQwMDQi4grfVM6a/atWnTJpedXZLjIJQ6kEyld5U9quz15RbEw4ePlM+fv/hOr9VPDg5WltFKkLGfp06dytu5U7djGRydtUnskklczUEAj2XH9Bm4iUTw/v2HrqHOmY20WrR0XI4cOVZBbv7QnY+2f2eDqVmzZtKNGze0aEC8hP/8s/EtEC9/N5hHQLa1a9dWgq6fRcNN+YPBuIh6mbaEr/br149DL1gfP4adHIDvYhyWAD8ie3zpH/MWt5XdAdu2bS8fPnTMz7BMmo34WgIaHBrF9u3b6w8fPhyCTOEvEf4CtditXLmyFYjvBpw+g9+RvyAYhrVgDvG97eaqQRq8oWFc1iPKoQ4//fSTspwZoCiTOTCOD5XRiPj6o7DNQ7hZoIyRvaY451Io3/M3K2T8J3AJuIP3H71///7pxr82Pq9SpYof/OTs+hgJsJAtwxcFjGABEcT3/v37XKXDB+HuAfoAhQzRsZazEV8ziS8M4p845brUnw3xHT9+fEsclHV8gTgR34Sa3EZQDjxy2BAqWX1AQAAbkFymyAn3LXKIZ4qjR4+WBCHsljVrVleSRJZngnkt0ihgKv2mwDGGzCcQ39OI1ycjvmLYBnWIaeO5gXDR1lzEe5vs7Ox+BYarMNQA9b0oAT8+AsLms5WQ4RkcnyM81lPKGEjGS4BDMfC+AuYrdzIbMWKE/OTJE30oHMrWpeDg4B44stcuFd77It327duzNmrUaAzswBnIwZdpNSa+3FL20sXLuqCg4NvQyyZAtMS3efPmeRInTnIehDdySAF7e0l+uX7s9Okz5Dt33Dx0IeZt9GEtd+PG0xyjRo3dkCNHTq+kdvaaD4lvImUYRp069XTbt+3wQf3H9ZNjJPlqh8bDNuiuRui1Gpzw1atXL929e/fecg1bSSclSNphS+0qVqy4LUOGDFy5Q6m/GR/qOxt3POf21Ldu3eJENG+kexwaxjGSVfjFta211BciIn/ReHB0UiYuHjhw0C84ONxGfC0F/FB6OFBx6ffv30/iy9ZmwwjvLXPLli1rkydPHmV5JPitLNQfkVkfVhZxQUzE9/uaNUh8uQPPa60kcSB5lMS3ZcuWNNKx2sBCgOlTE1+QXhLfKVDED9bNY+FDXLjuHbcy5jCIVgCXPOvi7e3dE4axT506dXbAz3eABoiW/Ir8Y/jqyoTnXPIKxFcC8Q1DfnKyIle3KICjtSfZfHXEl/LmezznlqcvX76MkfiCVNVGhbcep+7AZ0N8J0yYwNVbTgHegFnj3NWyIXiP48kTkvgKuXTr1g0V+53QwMBArh3MndIs7tHCNyyX6U6cOFGuVq1aJ0HEWMlEztDmK2qo004YPyf4Hdfz7du3L4dgJCjxRfn/aKgD48lz0aNKAgz50T5zRjw3FeL60pyMRD0gaBPFeawAGTAeAQDrJ6UxL/SYNkrYLDxXzkmAixUrJs+YMUM0Jv2hS5fCw8Nn4Jw9guy1+2Ird5CcjND9ASBG+yCD90wz6w2hY5QFh6ddvHBZCggI5AZCMY7HrV279kfEVwx34BJaa9esk9+8fusBGSYo8UVDNMP8+fNH5slT4J9kyVL4cCUHAcYxTZpv5RIlSklr1vwB/qesItXGkvilSpWK6/Qrv/+pU2pw5ZaZM2cGosG5Bf5y2TaLNsWIrSPxRUNkhZOTExs1ykYTBPOZ8WT+Nm3aVNkk7P3797TdZpFV+PUB8RV5zO2f69f7Ud61a49foG+gjfhaCvihGJ1WrVrp9+zZE6ce38+B+FaPIL7cROKJXpJmQyGiHKvaokWLETjQUCtyMAfG8WH61MQXBZnLiozHuxY5xPMbFIwB8PM2wMrIbOJLiMqE5yS+vXv31j148MAbcjgM1DUEY233RRJfcd/4XXE/OogywyOJDQws1xY1h/hy620ua/e5EV+SUJKUOBFfDnWA/nMdX25hybUq44X4ijApE/a4P3r0yAsVLXuNBgGx/mXPzQZ+/PHHVWnTpvWE38rSWoKYqWEq/cbPWQ6ZTx06dEhw4ou4RxJfYQ8oK3GP4D3aLNH7y3QSfJ/vGqcxKqj9FKA/wg9xT7zP+wxb2CrxbokSJZQ/VNyK+9atW9Qh2u9rOE7Ckb2BX8xktqjcmTNnskEfJoH4XkKa/Zl+EiIe8ViRBScfXrp4Rfb3D3wihcfcU2mK+IrhBIUKFSEpgl9BHoGBCUt8EVbKpUuX1suWLdc0e/vkTxAnZbiDIL9cZi1H9lzy4sVL5fBw7WvkcTdL4ufg4MAVcpQ5RGq9JbgDLZcS9PLyYmdPgq1wwPh37dp1OIgv81fp0Wd8eCSY14zb6tWraRM4wZRbRJtNfEUaKT/KkkNZfqhZW97+9w4/36+R+AJxJr6oiLgzjrR58+ZQrVZ7BUKM1RjfnTt3KkMdkEmcLKKM4RIZL8ITRlBtGAWEcVS/YwxBfNUEWJDeyB7fu26BUCw3rSRNQ1qiJL5ooY3CIbKiMAfG8WHa1MSXPb6xIb50MGSd4ec/ALeQjXZrWyFPgnFgwSD4LGfOnCS+4SBlXCR8HWRQ2RCEtV2cia/4DURdATlUdJHg8BuC99RHQrxD8D7HqBPiHfVz3ueRs9rFWCtjmIoXIZ4Zv8sjZc7KmovqcztHyDhK4guCVgtx+wOnnxXxnTx5clsczgC+QFyJL8eUo92ne4J4xRvxpQzEeffu3SU3N7cHQUFB4xAmV22I9V7xrq6uKUFMOqPsbES6XrOiYrnGI4sgymLWrFmV3ezu37//SYgv80bYBDX4jOkSaVPnpbGuRQe+x2/ohynwOY8iHIbNe0KuXL6L6yyXLl1aHjt2LGfgs5eXY7Vf6zX6v8LCwoZ5e3tXCgkJyQZd+uIrddSNRUFs90D3uYW/QtqUnkAQGf6+Jplp06adfPz4Sdnb2/9ZbIkv/eNwgvz5CsrHjh2HbfLn9sQtYvLLmo75NX/+/GwFChSolSyZ/TURP6aRR27ny6EY8+ctlDUahfh2tyR+kBtXolE2AmLjjbIU+sax9UePHoXqeCco8aUbOHBgKWdnZ9bhV6DvyhwnAo+UOHIYDyfjopFN4su/wmbodeItyE+OlUYa7RTZ8ZyTBNmrP3LEWL8bN+5MMmfYxH/JxZn4svCRLFSqVEn6/fffufbkDSBWqzocPHiwMYzZMmT2I/itZDwNHo8xGUlhEPk+340KxsTXmPxGEF9XKtY1jSSNh3JFuYHF50Z8f/zxxzY4HIC/b4Bod/hS5yHBeBD4XvnN2rNnzxC0LG8gPnMhg9JKANZ3cSa+/NtA4sRfVI0aNVIMV4sWLSQc9YCuVatWWpAlLUiEFhWHtl27djoc9ZwIwiMB0qXnUB2c85m2ffv2GpCYMKJTp04aXOs4ebNu3boSl5WhvBhXoZdRQZ0uY/BbNC7kZ8+efenE9xzApZDiRHyRT4L4cue2BCG+3bp1k+7evXsJ5KgawuSEzFhX7viWlXWRkiVLNkO6bqBMS7RJfGQJhL2jnnGZtYQmvoi7D8NX6wzjJIDXlEqY4LkpqPM3OkT1LcNW23L1M95jw7xZs2byuHHjlN1CHz16pAsNDdVwSC9I7z7Yz4qQGVebSDCyFl8OaeDWr3k2rd/UtUmTJveg+8qfPJEHXG9XEN/WP7eVT5w4Jfu+93um00k/x2YWjCMAAHmvSURBVJT+qHp86V/u3Hnl3bv3cuLns/Dw8AQlvsKhUeNob5/8JAibRNImyBtJWyTxDdO+Acm3mPhChsqcBOq3Wse4jNm9e/e80YhKcOKrcpuh55HDE3Ct6D2JL3UedQaH8VhAfP+nrNghCC+PbOBwF7yWLdsEbdiwad3Vq1fLcwUp+Bnr+uBLcgrxpXBFBWkpaNzZE5Y3b15p3rx54ElaNwivRYT3lrlLly5VrVix4mgYvRuIk469efSfBVwogQiXysojn7HVRgJE0GDyPT43BVPElxDkl8T3jpsbScEFEN9RSMsXQ3wbN27cHodj8NcTMLvHlxDyxffKOoa9evUKBvFl7/1vkEVJJQDruzgTXxIErmnMlvDWrVslNJ60hw4d8gWeAHcOHz58ATh37NixMydOnLgKuAHuaOG+4prDwFu08Hn+FO/cAc7i+Z5Tp06t/+eff9YAB3B+A368hX6HodJVJthQZqJijgrqdBmD30LGXLLKLOKbMWPGtTh9BHw2xHfSpEnMvzgRX4K96Z+C+LLH19XV9RSIrwvCjNP4dcT3mz179jii8VkAl2dgk5QxqXxkCWjPKBPOLkdDi8sJJniPL2XEuDMePKeuCuC1D85jC3X+E0JPxXPaRNp+6gYrfJA0uWvXrhx/Kf/+++/yvn37lIk+ICjUY26qcRAEbQHysi3OMyM/zFlO8bN3a9asybtkyZJf0VA/kz9/fj9ONqS8RL1IIiNIjSC+7718Y0186RePXDJs/foN8qtXr57Bn09JfE8gPsqyZtYkvtC1yG2KqeMRsrRX/h4EBAS8hw4NhZ+fjPgiLiaJ79ChQ7mkoNnEN2PGLFsgMy0bM2wkkfBSfuz55XnO7Hm1rX9u/3zmzDnbz5w580ny+VM4ZYwvhSsMkDGEQYoK8ENRGhooFFA9iBsH1sdqy+Lr168XAnlr5eTkdDJ16tQazvZGJacQaxZ0gmRYkNyowPgwbqbS8wHhFWv6AoL4RqzqcIdjW7ldKJU/QYkvwozVGF86xIe/SU4DFg11INSFTBBfDw+PS5ADh3uUiAjBOs5QuOyBbgA3AIlSPjGBvzu5EcTZs2dZCYbDILwHuKQeNx/hFpt9AW5G0BkYDszE8zWQ8y4c9+P6ELATWAdMB7oAXJItE/xwlEKlujgf6+vrexgE+XmpUqWU8kI9iyq+6vREBRoyEl8YMUuJrzJ+NCaIuBjn7+dOfJEnCUp879y5cxBhWc3Yc5IKDodJfHH8IGxzQBtHmVC/QERJfLmAvpM14xiVE8SX+oJLBUJ3BNllXtE+EDznkAwB7n5HUMdiAucRsOeWf5foF9cJJrgWOXeU4lqq3KCnc+fO0ogRI/SoW3Qgupz8qA0NDdUGBgZqQHK52c8VyGcW7tWJiy5bwyF8O9jw1O7u7s43b97MiUZtgQsXLhTjqh9//PFH6fnz55cdOXJk2SFDhpTr06dPOaStXKNGjTgpslzlypXLwbaUgz0rlzdv3khArt0gn9OQNZdx0wniy7yIkvh6eoP46swiviBEF/C90qOqRrZsOeTly1dyKNZ/jviivo3s8RWdZvxrzU6UiRMnymhAeUGnPiviy3JI4sse6fv374sJ8DES36qVv9/s5JRRkyQJGkogupRhihTclMYBekS/v5FTOqTVlitX/t2YMb8u37x2c/mTJ0+WgB4XQt7n9vT0ZD34n2hERjpUIItQeCKJL24p4HlUYAaoIb4hIZ01a5aECvWZv78/ex4tdtyXHEahULNmzbZUrFgxrFKlSsovbBpC7iJGo0hDyR15ypQpo0xqIDnmqhJCQRhHnjNuxnEnPiK+jL+B+NolSxrR43vPjcT3H12E8kdJfFu2bPlZEd+ffvqpF/y8CvgD0RJfAVP5SRn36NEj5NmzZzcgB07ws+pQh7Vr16aFkSmCtE/G5QfLwZmKY3RgBTphwgT5xo0bEJuGO0otxHEI4t0cqAWUZfyBEjjnL1CO5WwGKCtiAN0M58r7hvf4mzQlwCXkckshChHudvv27XnQuaeQk8R8o9FUy47xUaclOgji++jRoxgnt6GSrJkhQwaub/0A+E8TX7gEJb5XrlyxOvFFeT4MAhtr4ss4Ui5c0gw6dwHyyIs4RmmHrOVMEV+RR4wTiWm7du3kX3/9VSEIBIgclw+TeOQmOlw/l79jzQXsvTx16lROKJL37NnDXlymmUNQ9FxxA+Xj/cuXL++h4XkQ9coGlG2BP0FQluHISYncojdPXHTZGg7pcO7WrVudevXqDUb9tAi2YgdwPH/+/BfRILgOon8bx9soy7dBYAXugHjdgc4oQP4rsLOzuwO585k77EwArjmuV2JdIXQEQaLuS6sQQZKZjh06y/+cOi/7+gS6h5s1xrd5nv/9L9EFkB/oKvM8YvITj1myuKA+n8M66ZMR30yZMjkmSWL/AfFlWvmLvnDhovKKFatiRXwdHBx2p02bVmlEkPDSjlOm7GDjqiDQK2/o1Scb6oC83Qw+pay9y3pClEE2Kjt27Eg7aTbxHTlyzDqXLDlC8b1EXWGvL0kvQVkmS4pjspRSmjTfanLnzvuuatXqt37+ue3ZkSNH7VuwYMEylMlhZ8+e/f4/NQYYBGcRChL3iFYEi1sfQQhdQFSkAuI7Kg4NGSquVzBCnXEv1m7nzp1zt2zZ4r9jxw5OmFP2WudsxlWrVskrV65UzjmDd/bs2crMZ5Jg/hqkohjH1xgfEF9VOtnbm8Q+2RdNfLmFMvx0A4KBaFd1EDDOT3gjiG/o06dP+QtxMVAuIgTruN9//z0LiG8DpH01LjkxKkr5xAQSX5AN+fr160GhoaFzENfk5hiE2DgYnCxodB1BuBx/LlmD+DLPg2JYzsxAfFfiNE7El2F+7cSXshDn0HEuVG914gs7dBjhxCp+6sqOW4GDBPLvBRtu3FQjXsmHKeJLUHfEkCLa4nPnzskXL16UL1y4wIaD7vLlyxpAh3P9tWvX9JBpJFAupehAP0BwuUuW5OPjow8LC9ODeGigB8E6je6FpJfOQh9mABZtUpAQDnVQCpLd3r17u9SuXduldOnS1bNmzToVddEh5OEjgOUiHHnJ4VHKjlwE5Skg7hEi7yl/5j++jQTvs57gpD529Ig8EkSVPaEtW7aWz529LPn7Bj2Sw2Mmq82bN/+ox1f4x53bJk+ayoYIe48/HfG1+5D44rZC2sqWKQcusDrWPb5oUOjY08s8wC2Fv1C2HDIXHBzMtes5vycNkGCEr3///qnz5s2bBY0cxk9Zbo3xE7rAvyokvu7u7mYT30WLli6qUqWqNxpGulQp0yhkVyCiBzg5wojoCaaMU6dOI2fOmFVXsGDBIOjz00aNGh2DzR2LBl2+MWPGuBDgXS5LlixRAJ6WhTssnj9/Ph0n+CakvGLtKleurBBfCtfY2AlQ6ASfmwILpPiek3VgwF7DcHXBt7F2MH7NQWI26/X6m1BAztr0gUD9cO2Hc5LS93jH582bNwErVqzQclITh0TQMIj4qgEv/4U5xPfuXSr+ORDfEQg3QYkvFJrEdxzetdiB+A6Cnw8ApYUnwogOxvkJb5Rfjz179gzz8PDgsJVVQMWIEKzjUHDygex0R3h7cMm1OqOUT0xQ9fgGQmdmIL+SAPFipPkLs1ixYltxGoy465hvatkxPnhmFlhuzCW+MIjfg/j+jtO7gEXElxDxY5jxQHzPA9yu94skvpC/1Ykv3GGcxpr4CntK4gtSeJXlD+DEk3glH1H1+DI+LGdcQP/evXvsEZNBSr2QV4dDQkJ24Xobyt4OYA/O9+o1elPYZ4T9sHMCEff0+r1IJzfL4Zas63E9G2EMksKkBkh7RiWSn4FjPiCf7Rs0aNDUxcXlL0dHR47pPgdZ3QBheYZzEI0UIey1gyyVjZjU9aTQe3pF8Jz3TT0jRB3BHkl28PAoOnlIViPeSyT/9FMLNEYuSQEBwWat49uuXbs8yZLZX0iWLLnEnkCC5Id+ZsyYWR46ZLh8+vRpD+RBgi5nJpwgviBlehIzQXxJ4BrUbyhv3fq3rA3XxWqML6DYb1wqoDy5gg9sAnf8C7579+5+2IbOT58+LQi/473Bxfh36NChJ+JwAJdvkeeKPRV6wXPaSRJfjvE1l/hevXS16a9jf11e4buKj5ycMiLN/xLfiDG/KZDnESuD4HUDlG2cORQkFCC/eQJdu4Q4XYB+X0Aj+HyuXLnOFS5c+B+Q42P16tXbCr4w79dff+2+YMGCQgkhrzg5EMaFyHylx5eFC7c+giiIIgOMwVaJKIRcfufUqVNv/P3940R8UWi5H35uEAL+huZC0udgUK/AsF5GIfwH18dxPOvr63t78+bNATBAkqgwRHzVgJf/wiziq0xuuwjiOxqZmKDEF8beN7bEF/EZDj8fA1xYPq7EN/z58+ckIdy22arLmc2bN68EWq+cQX4Wl8FAlPKJCYL4Xr9+PQD6MTU+C93NmzedSpQosQKnbyGr8IQivoMGDarm5OS0BKduQBhg0k811DIS8WMZsTLx7YDDBeCLIb4MT5xDxyU07qxOfCHrWBNfNUHiOFcQ3+uo5LhhDYffxGtviiniy/hQZlx5o1OnThxfSOKL6EjHgHjZqvhzdtQVVPYpOP40derUcyAfP/Yccqif0C3mH8kpf6OzzKlBeQpQzmp9NAX27tJv1rMiX+g/rxkGCQyJKkkhx/heunhNH+Qfeg950ywmvR45cmQee3uHC8mTO0ji97fo+XNM7yT37t1XPnjw4HOUSY4XTvCevIwZM2YA8T2JOEVuW4zbyuYL3br1kI8dPR5r4ou8UIivsOGUKeXM4ZT169fX1K1b1x3HDbBLjVGmk7JcxyeoU3nz5uW25+GIn7IiDEH9EPnOMmgp8RVu2rSZy0sULxXKPBbEl8NjUjqkxTGNIlsx5pdHhkkdFTKi7lJGQveo82nSpJGgn3roeRDi9jhnzpxb0RBshOA+kBfjyfyxJI/i1aEFvxARjpH48rmASLwAhSLOucDy7Nmz37x//z5OxBcC4tjKdEA5oAsK3giQwbEErofimuO6hvv4+MzctGnTPyC+b5Ax3Orvg7jGZFTU4PvMXBh/2dXVlT3LV0hAEZcoiW9sJrcZg+FSkRguKn4SX/Zoj8Yzix3iMwRpfgjEqceXY/lAyriO7zPEZQNQNSIE6zjoSGkQ32nIr0uIQ4g6PngcLdTvEglJfK9evepYtGhRroTyHGGHCsOkBp6ZBRoVC4Y6VAXxXYDT24BZxFdAxIt5S/2mvBYtWiRDt6njcSK+MGqdcLgMBAJWIb7QfxLfvlHFK67EVw3IP16ILw6xJr7CljK/qlWrRuJ7DXklJlt+MuLLoQ7MI+irBnnEWe8rEB9OUP1q3OLFi6s2atRoDOTB8fYHgWewAcrWt8wzXCsggSIx4Dnlx2e8FvdYDtlzS5myPILwyLArcqlSpWTUZXKzps2UTiQO4xs4cKAyjrpt27Zyvnz5lF3LSFIE2WWvHYkKyerPrdrI589f5M5tDyRtzD2+06ZNy5M+veN59viSBOGWQojoL3tVK1eqKm/YsMnHy8tno04ntYV/CbKL2cmTJ+0rVapUHKedEidOdhtpi1x1AvfkTBmzyCNGjFI269BqdK/NIb6yPN6uffv2BSH7RsiTyzhG7hNAfSeYV7wHkHgGA69ga24gr44CRwiQvOhw1BI4OjoegQ4ogN/HQCTfIkw96xUBlj3GkUcSXy7j9+jRI4uJ77Vr16bNnTv3TatWrbX58xdUxkkzr7kZCPWHeoTXlDApA1HuKReGr77PawFcs9OR48+Dcf4GftzA+VGmKXfu3Idhw/Z37dp1B+zi7I0bN3a/cePGd598vPAvv/wyH5UOx4MqCcKtjyASL6BONEGBCKUpUKCAPHz48DdPnz6NE/EVjhkL2APcvvcjeHt7u0CYfdEy24bwPRkfdVwZd3pjDvg+M9ZAfLmOL9ewncBw8Nykiyfiy0qF/lrsDEMd7gEkk3Eivr1799aA+HogLpuAahEhWMehAimHQjwX+XUTcSBJj4wPHkcL9bvEJyC+c3DKXnUaxo/ig2dmgeXFXOI7YMCAyjAkc3F6E4g18WV8rUl8J0+ezLH814EgIM7E9/79+1B/PRtbCUJ8oePxSnyZNhwtAvNJ2DGuamAY6lAB+CRDHURcSNKQRxJs1HvYRf51G4z4JFU+/EpcsWLFBqMMXUE94Y2jQlBwW5kcRbLLMs06hPdJcjlmlGSFf9DKly+v5Cf/7HGsNIfncZ1mThbkDo7QG3nevHnKPJZt27bxzymHbykb3HAC7Pr167k+uUJYIno+UeeaIL4XLijE96E5xBd2OE+OHDnPp0+XgZOblLSQAHPsJ8ElzcaMHhd29+6DxyEhmjXI86pRlUtrOsgiLRoBbezs7FckTpzkxYfEN5Gy4sRv02fKt27elnVa/etwM4gvyTQaD42QN7ORT+44KmOuhX7zSPCegHiGckxbo4Dn1gL8ZhwUQG+Uv9YC1CGhX4wH3pczZcoUa+KLvBv45s2b69u2/R3Qr98AqWqV6nLWLNmUhhTlyp7gf4fNRITJTk3GQciBR3FuCpSZoYdYSQ/e5VHv4OCggY1/hrjvmjFjRo8FCxbEeqMgqzi0+KajYHKPdaX1g1uRoKDFkYkSiTYFJpjvsgJDK9UHJGRxSEgIeymccT/eHDI+BYxERbSSByL+jxgXdUaINJgDvk8ZkICisglA3LlCAImvVXduMwbDpXLRKKLil1Dxv0PYw/HMYteyZcv+SLNZWxYLqOVF8B57IEAK4q3HF4pfHno3D/kVZ+LLX/esNG7evBkQHh4+PT4NM4lvkSJF5uGUY55CqC/G8cEzs8AyI4gvCHu0xHfw4MEVQTxm4fQGYBHxJUTcqGdW7vHtgcMdgGPBzCKialkJGBFfNrb6RRWvr4H4ErRltAlohHO5rrJAvC9pZor4ivhw9RzDttJ3oTujEZ8aiM+nWu4pQd3AgQPLFCxYsCtOD6IS9wa0ogdX5DGPlBOHH1BW5cqVU3Yj5ARsktZDhw5JFy9e5GoVWiAMDYhgIADy9HZ3d38HPXz28uVLt7dv397w8vK6ERAQcAN1KFfVcYV9eL57927fJk2aaNOlc4wkviSnpoivv3+gO/Imxglp69btyVa5crXdTk4ZQ0B40XBNpPjNnkD6z+PPrVrr9+09EOjj5XsuOFgb4/AJa7j+/ftnzZIpy+IkdvbcrjhEkN4I4vs/2cUlu/z70uXy7duuslajfwni2yWmeMF2p2jf/ueOsNncGfYlyRltsNBvNZcR4HVsynBsIPSH4bJeMUV82fgk8eVyZrCTFhFf6ND3vr6+03y9/Q9fvHjVfd3aPwNHDBul/+678nKWzC7yt9+mV3p/8eoHUMdJxCMqqL/h+wYSzHSQAIegvLxBObrRtWvXnSgTs9lB6u/vz0Z9KnyXcA4tvrEgINxAQMPI4RgZeZEQkShjBSHEPQqG73I8Elq2wTt37vwHBXnUu3fvrLr+qynHmbVoRRdCHLjHdWScCHVmxAS+yzSpiO8tKNdEKFeCEF+GS+Kr0+neIOyheGaxa9GiRS+k4xoQAMSK+MIbpce3b9++JL787bweMrDqGF9rEl8u8ULiy8ltCUF8CxcuvBCnHgjb5PrXeGYWWGZIfNnLjwruJOId3eS28k5OTjNweg0gyTTpZ1RgvJi37JkSxBd6FmfiO2HChN443Ac44c5axPc54vVfIL7KpCYcLYIohypbxLW0SwHprBlPU84U8RV5ZCC+ehC1A4hHRiDKP2H/NVemTJkesNH7UYm/RgWudBIJsBxTXuzZ5ZhsDk3gklgbNmyQQVaVXltPT08ZhFYPMqtBPvqi7HHCmCvAper2QZZcc5yNCS61WBQoEolQZUnGScePHz/Wrl07P469jeiZiyC+ESSYeZRYbtGiFSe3ySC+7LCIcULayZMnM7Zq1XYx/PSAH6EkPvSbZJpHEs1SpcrIw4ePlB48eMQ4d4tvHaSDHuZPntzhNOIQOamNYHy4JBdXdDh06Ajk6i1pwilLuVNM8SLxbduxbX/k4SHkmyf5jsg7Ud4I3hMQ9h2fWx30V4TLsIQ+kQuowXdFPPgHIbbEF++mhE5kAhoGB4f+9ujhkyvXr98KW7VyjTx48FC5Y8fOct269eUKFSooHV8cisPwjeXDc2ETTEGkR4D3GLwhLeQk+iJFiug7duz4GtxtLxqBA2GDueFMvNXbHzkQ1G4FChQ4iwh6I8KKoVYnwhSEIATEfXinIGvWrNqpU6e+QYHfHRQU1EAJKJ5dgwYNsiAN543jJuKHV2KESBsrG1dX109FfPUwLlwObgieWexAfLsjHRcBPyBW6/jyXs6cObkpRNjz588fIy78xWXVVR2sSXy5xIsgvsiv3+KzAJH4FipUaClOX0FWYUJeauCZWaBREMQ3LCwsWuI7fPhwEt/pOL0KxIr40iCxh4rrYa9YscIqxBdy74eD2EY5zsQXsqD+v0C8BkQVr7gSX+aZOOfkNhjeeCG+aGRwybsPwjYHQqfYc8jf4SC+FyGPYohjWmvG05QzRXwJxofEl9t7I492bt269avo6RWOk9hweJEmTZow9mBRPoKksLOHsuHYXA5VQMNA7+vrGwo9fgt7dBeN8buhoaFuwDWU87N6jX6PVqtdjTydB0wEBgLtgCpA+ogQ/3W4x7kuNQ4fPjy2TZs2F5wcnf1BcnUkuiS+oheURLh585by8eMnQXwD+Nckxg0sENfUv/02t6OTk/P6ZMnsX4EAK0MKBMnkMUsWF/nHBo3k/XsOvHn98nWv+NTBAwcOpG7VuFUVyBT1aqInadOmk0SvNo8chsGNKzix7d5dZT6An04nnURauepHzMS3bYsuKJebkW+vYH+VtdiZlwTPaZPZOYDXYw2WFeGfueA34nsRHwHqmbjPxhUnt8EmWEx8hcM3OSCv+sBU6OgpNMjug+88OHLkiPvmzZvfzJ0712/kyJGh0DVd7dq1JW4QxY4w/lll+CTfxjCQ2g+IrloOIi28z2vKGBwjvGHDhm/mz59/9Pz588PZI404pUf84p8AX7hwoRYn66Awu6FS1Dg6OioRNgZe/egeEyLO+VzA2dlZQstUC1L92Nvbuyfuxbsj8YVAz4t4qWEcv+jAdz8l8WXFD8eKfxCeWexACrogDWcBHyBWxJcFTRDfJ0+ecHbwMqC8IQirOBJfFKT5yLNbiEOciC9JExfUB/HlLk7xSny5qkP+/Pm5nu47yIrrc34UHzwzC4L4orFjFvFNnz79NJxeAcwmvoyPyFcaHI5D5KYvXAsbhsYvJCQkrj2+v+DwDNACJuNgDGN5EaoeXw71eQl9izfiSzmIcy5nFl/EF/mrlD+cWwTGj98J4nv79u2LiF8ByCS1NeNpykVFfImvmfhCHtsBDcsP84Y2kjKi3eZuWtzmFpW3/ObNG/6xCwbYYbAYZawmK3SlUo/YBKc8UBIoBOQDcgLcLtsZYP5+RGR4D0h78uTJEp07d/41Q4aMJxAj2PcI4vvvuMyI5cwsIb58Dg7gXKVKle9SOqS5AGIZuXqCAMd+pk+XQW7Tpv27v/76q09MfsbFgdTlcHTMOI69vcmTp/Bj+EwjwWEXJOPVqn0vL1nyu/z0yfMgrVZ/UauN2FkUiNaOcYwv/G+CPJtrZ2fnjnKmbClOsMzRHjNfScp4jk8UeyneMQexKe/UIREeQT8YHwE+Z2OL5Y8beU2aNIm7OQZYOsZXOHyTFLrBv0e5cOTiAdTRmmig/ezv7z/j9evX+9zd3R+SXF+5ckW7f/9+edPGTfLixYuVjWb4R6N3797K0oacgFmvXj0lXlwKDnJVZMj0EOp0CBnxPtPDThjUaVKtWrV8li9ffv7du3dTEZcEWTqOO6UVQIXTJmvWrAcQkVDuZGKckSIzxbmA8XMBJoqzT3/77TdPJIbr4HJyWrwabAPx5TqKH8RfHUdTcTUGn6uI721gMuKeYGN8UamwFctfvQPxzGJnIL5nAGXcNtMTE4zlRYXkZIx+/fqFIj53EJdFQFlDEFZxS5Ysqeji4rIIecbdibj0WmR88DhaqN8l2Aol8QVBSCjiuwrhekJWcSa+NCAkvjqNzqweX/hvUY8v81MYIMaNRom/sWjEgoOD40x8QfIG4/AcMGtiG6GWlYCa+II08I/HL1HF60shvoDZMlFD5JUgvrBF5yGPnIhjvK+ggEooSuLLctauXbuvhvgiH+2zZ89eD+VnAvLjIWQikQjhUWTFzr8nY8aM4UYeem56APLwAITkrKFHt2FcypaxY28o7MUPzs5ZJoHkPgXxVdbejYL4sg6JkfgK16JFi5Q5cuQ4kjp16o+Ib0SP8jdyzuy5gzq073xs+ZLlwy9fvvyDl5cXf09bZbjLli1b0rVq1bZKtmy5hiVKZHciVao0nqkc0mhI7kUa2dvLiX0kXigTSKO/F+S8AulsDMT4qxzP7ThWG3VtJ5SxG8hP5Q83yxvzkraRYA8ne+9Z9tq3by9369bNbHTt2lXu0qWLQgrNBesArh3M79ibSxg/Hzx4sDx58mQOUZOOHz8e/vbt28ewk+wcsFo5hAzTAzU0Gs0vkOtKnB8HbgYGBnogvOewzS+uX7/+4tKlSy/OnDnjd/jwYc3evXul7du3KxMyuWMjVyHhJE5ugOXgwOXxIhoRlDEh7ArPyTP4twRcQztixIj3t27d2uvj41PZXJ2Nk0MgKbmLVokSJRYiUlySSImcgKiYeF+cCxg/V4NErnXr1j6HDh2azG2IEU68Gu2mTZtmgjCjJL54xSzwXRJQVIaBUCzuWsZWVUL2+JL4srX+yYgvGz+GyW0hkAMnV8yFDKy6ZfH8+fMrg+z8jjzjLnNfGvFdiXA9gTgT3z59+lhCfGfAf4vG+NLAiBY448ZrtLK5tbjS44u8jWuP7zAcXgNWI77IQ25YE2/ElzouzrllcXwRX6TLKsQXen0G8oj3iW105hDfx48ffy3E1zFt2rT8u+OFMqRhh44oS7inVOpc1xhEgON3AzRhmg2oM1oirzhOl9ukW3XDDeoV5O/k7OxcHST3etTE94TFxBf5mbJOnToHQex1xsRXkM9UKdNIuXLlCf+hZq1no0ePXbhp087qJ09ezIrP42xvq1atVzRdOqffcHohSRJ7b3v7FHpAGeZAMG2cfMUxqNzJNSwsTEb6OP+kO8Bl/sxaXQQyTIuDC8rXMUBHPVeTXgJ1uhLGkSNH5LNnz3K1IPnatWvKMTpwLDeBOoJllsMRzAa/uXr1qtgN8QOQ5D958oR/E2Q0NjQvX758CnK6Gelmw8pqNgF+8c+CI/zNDZQBagKNQXxbo0HXGudtBECMqeseOIYEBQVJaITIT58+VeJLEtyvXz9lu3UxVlhNfhkUQVnTxrFcwfbrDx486Obh4dHImmmK0YE4slXrR0UQERQGGI9Ngs9MgSyeiULLKXTKlCknHz58OBCJiddJbiS+EO5Zxl8NxgePzQbfNxBfkij+5udkqYQc4wt90pH4DsAzi13Lli27IQ1sAMR6qANBIgJSQOJ7hWTS19e3pCEIq7jFixdXdXFxWQUd4y5zHxBIPI4W6neJhCS+HOOLRiJ3UHsFKKsrGMeH92KCeI/LGL17947jbaMlvmPGjKkI4jsT8uLSYRYRX2F0RN5SXnPnzmXlYY0xvlx95C1gNgk1lhdh1OPLyZ2DoopXXImvCJPn3bp1i5cti3FQenxpB3G0CMLussJo3LgxbdFpyCMdnsW7I/GFvviIOOCWApFH7du317u7u38VxJd1Cg5HAKVnkBU0wfLEI/+KLVmyRAoODtZwHC/Q2Zp6FJXLnj17DhBB2HjrEV8OA5g8efI8EJUXSJuyPjnrceoge1pFry+P6dM5adKnd3TNmTPP+qpVq8+CTgyDfeo5f/78NsuXL2+ycuXKuhs3bqy1bdu2mgcOHKgNv+vivDGetZgxY0b7UUNHdW/btn3/ChWqDM2TJ8+InDlzj0qbNt3SxIntSOZ97OySaUl2ucwWV28QZYhLpXKFjAcPHmhgu7xCQkJ2IY0VY2m/dgNcezaS8ApwzeRXr15JAQEBWoQRjHz1Bt4a8C40NJTwjAHiPWN88B789wRpjISfn5+nj4/PB+B9voewCY4X3wCd6w1CWiSWaY+zg9xb6jX6zSDgVxGnZ4jTWwLxfAeu8O7WrVueK1as8IR99S1WrBh3L4zMR7VdEdecUAf9eQfbMhl+lkG6vk2QtA0cOHA8WrC+NHhqGEdSDT4zBRoFMX6jZMmSIbNmzXJFq6YPvok3Z03iy0XjUbiC0Zrhto8zkQEJRXwlVPxakDe2ZGNFfK01uY29gl27dg1+/vz5RSj0NLTqrNpwWbBgwfdZs2ZdDx1zR3hfFPGFTnM5s6dACPBRfHgvJoj32DI2h/iOGDGicoYMGeZAXhat46suywKC+CJf40x8IXfqvydgFeKLckfi+xbxijfiSwg9h45L9+7diy/iq8wax9EiMF4in/jr8NmzZzbi+wlclSpVSHxPAcpYUNpoMdQB+qfo665du8JBQtxRltYBNePT9ggXH8SX7125cqXcoEGDerq4uNxIkyaNnsSXaeYYX0KMsUV4nACnwTEopUNqP2fnzJ758xV8VL5shYuVK1U7XLNmzU0NGjRYjzp5NerHP5s1a7a1Tp06+ytVqnQKtvNa4cJFH+TKked56tRpYDcSeSdNmtwnaZJkAd98kzgcfuqZJo4pJhgudZETqzgUACSaveuvIevZQF2kMUMsZb4bOq1jr70x8eUve4ShBbnmkCtOnJsP9AP6Av2tDRA9BaaeEeI59Kw/bGN7pLsG4pYf6U5jSEuCO4SdTQ6VfwDp/Rnojjj1FWCcGVfY8v6bN29e0Lp16xewZRJ5oRj6IOwvveJ5/vz55f79+wehkX8GafsVfhSPZb5a5mbOnDkQCv8MhEcLRVNmOxobPwHeiw40DiS+7MZm4YHCh4DobH/48CGXZckOP6zuDMT3HIWoBuODx2aD7xuIb4hWo32C+PI3f4IRX4SrhXKT+PbHM4udYTmzK4A/YBHxZX6Lc1a6JL7Is4tQ4inWJr6LFy+uCX3bhDC5LJhGHR88jhbqd4mEJL7nz59PV6pUKa6ucBfgpg0fxYf3YoJ4TxBf5HeMxNfZ2XmenZ3dLVx+NsR3woQJY3B4D5gM3xSM5UWoiC83cOE61twcwWS8rEF8KQfqubWJL0hvyrx582aBkT+JS8WO4mgxWEmwh4tj+548eZJgxBcExUZ8DQ6VcWYQwDM4jSS+ouLmRKNp06bJly9f9mfPI8oSt9bPF5+2R7j4IL5qh/L1V+7cucM5RjOinNgpww0EAWaYYhhEqpRplLVfQVq5qguHSnITqWecPAZ5PYAeP8HRA/f4V4j1ZJBDitSaNGnSKgQX15GT10iqxbAKNfGl3nHXug1/btC/ePEiJCws5AjqozgRI8RpN6DjsD6SXeYtwfNffvlFfvnyZQjy9BRkOAThlE6IfP0vujt37hSfM2fOzho1avhCF8gtI+UsCDDBPwtoLGkePXr0Wheu205SHRvdtdht3LixOVpqB1C5vkXkdIwgI6Y2fgKisooK7C1kYnhOxUIlxWUxXq1atWrv69ev28EPqztObiPxZZiMtwDTgcdmg98biG+oTqMMOZiPDEho4kvCHSvii/j0QRpuAIGARev4Ul48Uik5aaNPnz7BJ06cuOzv7z8dhsaqQx2WLFlSO2vWrNuQPy8Qhy+G+D59+jRtiRIlfsUpV1fwBz6KD+/FBPGeGOqA/I5pqIOyZTHkZdGWxdR/Y1iT+ILoURYW6b+xvAhBfDneGXnoiXgNjSpe1iK+DJfE11pDHeCHXevWrfNmypSpNhr+bHwqhImPLAU7DzhTmjsS2ojvp3EkvrDLkcSXdpENEp5zZZS9e/dyzCV/P09C/hRC/idID1x8E9/169cva9q0qR/shJ51uaqnVyGlHPogeoBJfnmNZ1KSJPZ6x/QZ2IvK8dDcFyAcMiMhJrjqiw56pAfJlVKlTK2QZvpH0ivGEuMd5Zz3xFAHrhwAfeMYV+5oul+nC+PybxzXG2u7hfK5G9BxFSvWe8xXguecUIbGsJ+3t/dSPz+/0ggrtr3KX72D7NLv37+/ycCBAxegvn8Ou6L8BSNYngQBZicp+I8eDckQlCeuW94cMo9/G3P9+vWyo0ePHpctW7bzuFQW5mekWMjVBpDgtSnwXYLfqhPGZ2gha0F+PX/77bf1IFPVkDCr9vzCbxcUOGU5M5JINUT88FqM4HuC+Go1Wi6rtBhIjWcmXTwQX+6D744w++KZxQ6koC/SwLVxzSK++EQ5ivxmTz3v8dcSKrmQS5cu3QwJCZkXHBxs1VUdFixYUBcV6U6E+wrha43jFB3U7xIJTXxLlSrFCV38Barku3F8eM8csIxwctuzZ8/MJr7wn7vymUV8GRdRHtVgrxUJFWTlp9Fo4trjOx7h+OHUZBxMgfEyhiC+7PHV6XRekEe8EV+1TevQoYN0/vz5EwEBAZyAG6cZ6lwnFMSxMYekoBJ9qg7HUjCP6tatK2/atElGBWwjvgnooAffdOzYMa2Li0sZpPsSoPTcizqN+cpd2TjhSavVvkRF3ZHfGD6PdxffxPfFixej//jjjztt27YNKFu2rJQxY+bIMEhWSYLVIFEVBJZHXhs/FxDviPfoL8H3+IwgkSbKl68oDxw4WP777+2Sm5ubNigo6BJk3R7pKgwkj4ht7FyaNGl2o5xGTm5jeSN4Dh2Xz5w54w2bMBzy+8838BLCzZgxI2++fPn+gV3UiXIkQO5D3sG5VeChXMf9EeTODUniX/Zv37515ta/aMkuQ2T8RAHHo49AI2gKfJ8QRkLAQEDJ9DU5cuR4M2TIkNPnzp2LFbEz5WCEk1asWDE3wriASxGeIlSGz/hElRZjMB0kvvfv3w9DBnCs4e9AvBNftjZr1KghiC/XgIwT8YWfgYBFxJcyE2PY2AJr2bJlOEgZSfg6kF9r79xG4rsL4b5G+F8M8eWC7yVLlmRv/H7AC/goPrxnDqibJL4eHh5mDXVAOufCfzZq4kR8+YwTOFCRxJn4orE8Hoc4E1/mIbd3JfFFHrJnZ1hU8Yor8aVdEOe//PKLdOHChSt+fn4/+Pv750WYsSYwe/bscQRRWISy44G8jVybGo8sBssiGwInTpzgsnO2Mb4J6FxdXVO2adOmEhqaQ5BuZRkzUXZYZlmmVMT3OclYXPTGUqcmviSK1ia++K4CiOYvK1euvIoGgC579pxKDy8eKWGoyasgq+Iej2rSa4r4sqeYR9HDS/AZlypzds4kF8hfSK5du648c8Zs+cKFizLKph/kfBXxmo30lMCRmxzESd6Ojo67U6dOrRBf5ivrPYLnXJd2+/bt3u/evbMRXyu5tWvX5ihSpMjf4DlBKEMf7HxI7sNjpUqVSHw5x4O62z1BZd+0adP+KPCeLODC8PFoDqhEAsJIEGxJcciDYZao5OzsHFK6dOndIFblV61aVRJkotD79++zIKEpAbMXZKby00iNHz++EIhvKwcHBzfeVseDMI4n31FD/Yzvk/giTuGogPnLlevZxSvxZbjMfPb43rt3T4OMf4QwYzUZEOSBQx2uIR0ByINI4huVPPCJco/5xcqWecV7BFpgWhh39r7tCw0NrU3/reW+1B5f6lupUqW64XQrwHFrH8WH98wBZc41Gkl8kecx9fhWhLyU5cyAD1Z1UIethshXY1DXuBbm48ePuVb1HMDi9Tj5vqenZyY0YuchrADeMhem4imIr2GoQ7wSX8qA4fKcvzXPnDnzEHXrr1KoVAfhJsN9ix1nxUMWhVxcXE7CiCsVqgjDGOq0R/UOvx8wYICyRBDk8Q/iZSO+CeSeP3+eDrrYNmPGjFyv+7W67BDMGxLfq1evspJ+AuLbBrqa4MT3f//7Rllzl+QStwGxc1vciK9wx44dW/NTs5/CsmR2UXp66T9uK+GxR5Zje3kUQx4EARZxMkV81SSdz0TPr5NTRrl4sZKoA2vKw4aOkA8ePCy/fvVW7+XlHYZ0XEcDfQzqoB9wHqeeXuFIfKHnSu8j85Q9jgTPixcvzi2nvZ89e2YjvlZyu3btylyyZMnF4BcesI+hgvQSrI/wijK0i8vBoZHDVX24Q2DCyX7RokW9wLxfkahSKRgpYaBjAg2CgNpQcOAyx9LQT/oHf8n4fTJlynS7Zs2a/wwePHg7iMuoWbNmleOawoZZ0dE6FmiQp9RdunQp+cMPPywGmXZDuMpko6gg4hnVfZEGEl8SUEMFvAqId+JLwol0kPiScD9AmLEivm3btuVyZhcgY1/KWaRJDZFWAd5jPpH4Mn+ojPCKa/BJy5cvD3/16tVNyLtFRAjWcfPnz6/1JU5u4+9sFFCOU18FvAQ+ig/vRQfxDmXOHl9UtDGu4ztu3LjSWbNm5XhaDudRVpMQUIethshXY7AB2qRJE65VGYYG5z+ovAdB3ywaw404l/3777+HNG7cmGMgzR5zTJiKJycLcSxfQhBfgraNR641uWbNGt+7d+9eBPkdh3BT4b5FDvG037hxY7GqVat2gI27A7+VMaHG6YwK9EINcY+7gQUHB7NRZCO+Cei47jx0sVOGDBn+RLrfGJcf5i2IrwRbgKzRuYL4toAOfBLiK8glbgPWJb5r165djfIRljpVWoXkCuIqCGvq1GmVcbh8JgisgIgXob5P8N0MGZzlggULy+XLVVTi3K/fAHnevAXy5o1b5WvXbuiDAoPBc7X3kYa1kPFgHx+fKr6+vjmQHqvoHYkvDspyZrQFrH9Z9zF/qecDBw70dnNzsxFfK7lLly6lr1ChwlDI+wTk7Y2jRNkT5B14RdkBkesho5HDP+29E1T2IA+de/Xq9QCtH669plQsLOixgdpQmLpvAEmPD8I7CYUbCLJVH4WtUJUqVXIao1ixYjmzZcumAGQnX7p06cqjAuwFhb0PfyyuBGnM1RDxM6zjS+LrDaxBJsQr8SUE8UVhC0dBJ/HthfsWOxDfjjgch3J5AcoC+kby/gAiP1j4qYQs/ATjw8ZK7dq15dWrV78C0enP3/xQRrN75KNzS5YsqQbiu8bOzu4R4vAlLWdG4tsMp3MBbtX7UXxiAmXO7yh3Tm578eIFC3u0xHfq1KlFUDa4xN0R+BGMo0l/1RD5agz2bMAvrtOsO3jw4CtPT8890Df2WsVoaPBOUvZ6r1y5sjNI70EQ1je4reMjc2Eq3iS+nLlN4ou4xEh806dPfxrfxpr4UjY8spKrX7++dvr06f5nz57d9uTJEy4TxD9PMRIGvgPYX7582QWN97YODg5LEaeXolwR6nSaC37H367cqQl6QeLL2eUJRnwR/kcbWPAaDS/uKvVVEN+GDRt2BfHdCBv4lmlXA6+wV5DENwz25jLyxqo7tMXkSHyhJyC+EauGsEzjXNGdFi041OE4iK9/nInvT01+WuXk5BS5uRDD4pE9vCS9efPmlytVqiI3bfKT3KhRE9SbNeXSpcvKZcp89wG+K1vOgPIKWrRoJffq0UceP36ivGjhEmn/voPS7duu+qCAEL1OK+m0Gn0w8FyrlWYg/vGiZyj3u5AWhfiSeBEib9lRB5vgffHixdGo85LFRYY2F+HIHapWrdoG9f1K4AV09oNJbnhFmTBqGD6U8MQXAZabN2/e/IIFC95KkyZNqHGhjw1EwTEFBgnwVzfXEH4MBbwDXAYuCiAel0DGOMngEt5VgPPLEOAN4CHOFSJgKRi+GiK+JL4goBrIIsGILys6VDokvjSmdxFmT9y32P3yyy/NIMetUCj+Uoj8laOGUDgBcU8YAR7FmCc0LGQobMCoUaP27dixo9fTp08LGIKKk1u8eHE5GJ9ZyD8Oy4gcD0ngcbRQv0skJPHlL+1SpUo1wOkUwB34KD4xgfLmdzxyOTMS37CwsBOId5TE99ChQy6o8Orj9A/4oYypNfZX6K+Aqbwm+C3ztnDhwhLCD9+zZ89TVPZToHMxDnkYOnRosbJly3bMkyfP1tSpU79BuOG4bREBNRVvZ2dn7gpmCfH9B9/GmvgKcCw7IBUqVEhbp06dx717914Bwtl26dKlUeaFcGvXrk07fvz4yq1atfqlQIECh3DrFeQbTrkLGOcJYZx+Y7DhyS3fua20JlzDyR6HIQvuOBXv7vvvv//qiS8nsKIR1jJbtmxLoRsvRb4J4BW5WLFi+tOnT4fA3lyErv4YnzbH2KmJL+MjyjR1R0V8nyFerRCvWJM2lHHO9wlW6ybBHdSqVK4mjxo1Rt65Y7d8546b/OD+Y/2DB480rq53/W/fdnvt5nb3Lc493dzu+d29ey8ECLt7976GwPthjx66B7x48eqNp6f3XS8v79OBgSF7JL3EBvgOEN51wGyc149L/KNzKK8K8WUngKjzRHllp0+1atX8NmzYsOj58+dFEY/0hs9sLpbu6NGj6UFsh0K+So8vEEl8KX+8IqNeVXp8P8lQBwSW8siRI3k7dOgwGsREGcMoCry5EAXE+NoU+FwoHMMyBeGPqWdxgToOIh4EhzoI4qvVKHuuR0l8W7ZsaTXiyx5fV1fXUFR03Cq5O+5b7KZNm1YbxnoplOkuoKG/VCyhZDGBBkANygXkVwOS9KJhw4Y7QKyboLK3jwqoEJNCh7j1YbQGa/78+UVQsQwH8T2BMILUOoHH0UL9LkHii7ATjPiiANfC6VjgIfBRfGICdYzfUbYG4iuFhIQcR7yjJFvsZeUfD5xOgh9e9EforYDQXwGRn8Z5zG95n0OPuC89dDhs9OjRW4DvxowZ46LOS0Jco1zY582b92fk2Tr48wRhWtTTKyDkIMC4CuJ79+5dEt8YV3UA8T2Fb+NEfBk2j5QJ4wAiH4rK3gPEfhUatPlFuqNCkyZN8nGiIyrP3SCr/H0XWdZEHhjnkSmoZUGwxwllTd6yZYuESoB/gHZBFjbim0COvVN9+/atg8bQZOg69VwhmALMI+iJHg2fkNevX5+HriYo8YXdzIU4cPUlZQ4HdY5H6hvKhjIhEsTXHXGK0xAM6PECHLge/AeTpHPmyC2PGDFK3r/voPz8+Us5ICAIeqrnWNz3Op10E8ctwE5gP3AF4Lr0JDPeABu1PL8D/K3RSCOCgqRSCSk/utq1a+9wcHDQUnYEG5usK9kQZh7nzp07CLb57wsXLjRD3HIldPz+aw6N+IzQ29nsqIReBdNGCrDxQZlz3DzqcP7hegV59wASlPgm5SL9f/31V09E5BmU4oNCbw5YOOiVurBEBb4nwG9ZeMV98Y64L8iYeMf4e0uh9l+EQVStWlUZ6sBCqtFooh3jay3iy8xHYWSPL3sRbiNMTqCy2IH4lgUpGIp8O4vCHMZ1GE2Rn6gg3qUc4J0CXHPXlVAYBa7xzBUjjqmBivooKsUjRYoUOQCd+X3lypVDfH19v4cu2SuRMuGWLFnigm+akEQhD3xFXhB4HC3U7xL8TZ6QPb4goHVxytUMHgEfxScmCNlS5ziBidtjgvgeQ7yjJL4koOXLl+fv7mHww5P+8Hs1hP4KqPNTgEaeBp69GnyH/oAA652cnN5ABy8gn0+gQtiH51uAP3BvI/J9G+7tRV5xf3uuI/wa/obQNuD8o/yJCQxTDcYd4Su7lBmIL391RbmBRa1atZwcHR1P4ts49/iKOBiuOTQoBNcvIJtzkMVxAmk9grQfQDz3A4eAI8BRvMd1w+/jG0/IQkPCSvmq80ANyp9HplcNhi+OBGXRq1cv+fDhw8E6je4xyC9ns0e5lrg1nY34IrGoA4cNG5YXDdzmuLyNtH9QBzIPs2TJIqGRqDl+/Pgt5A/JUbz/DkcYdrAXzmjo/wA9uYFbJokv4sTtdrnr6E9xiRf8WwDd5w6gHxBfDnHYvHmr/OrlG70mXPsaZJdj0El0V2q18oTwcKmrpJF6SjqpL4jtOEkrzQWWAqu1Wr4jLQUmS+FSdylUqoHv+KcpQYllly5dFoOIsQNBQxtJe8iOAA7v4zVsnq5y5crvVqxYcTA8PDxOQ0ZsTvkTnQP2cRtkGwhbqvyJFqDcKXOu6gD+o0wYhU5w+++EtzGogJoNHTr0btGiRSP3KWdryJThVoMFA59HC3UhMnXPGOpvTb1r/NxcGPsj0sAMePToUTiE7xUWFhbtqg7xQHyDkfFsNXfBfYvdwoULczo7OzfE6Q6AlbhiGIWSMf/UShcVKAf1tfiORyMd4C8LDlQn9Dj3BAnlhKkRUNwoe6k4MZHjtFEIuA6sQuQE8DhaqN8l2Fs4fvx4+c6dOwlCfEuXLs0hB5OBx8BH8YkJlBu/Y2EfMmQI12mVoGdHEe8Yf6/DQPeEH29U8o/ME2MwvxgGwXM1qBOCALNs89rwLvORhikU8AfYOg8zGCvl95Q6DIbPNCFqZkMtC4J+MA+5JenTp08l5OFr6P8vUeUjie+33357AqdWIb7G6RFpUsWPxEeP54Si74RaruJ743PCINdI8BnLO8FzxoPyZwXA8Egwly5dykmPr9Hw3oKKtyvkEavVJix1NuIb4aB737Ro0SIb6ryzyJMPiC/z1DAOVI9G/kM0WhOEGHF+QfPmzYumS5euK/TmHm4p5dGY+MJG6QMDAzlcLq6EnD2+fkjzB+nnON3jx0/KoaHhoQEBgWsMk864DjbHxtsD/OtH8JxIAfCZGryn/B2MCCph3bhx44aXLVuWQyp9cSnRDnLSL4+izNImwT77XblyZRpk+kni+V9xsCv5Yd84PAc29N+JjwTuKZMdmzb5SXr8yJ0beN2D7nKJwIS3MUFBQSUuX748t3///jehACEkvTTU6gJgCiyA+Dxa8B1LENP3xs/NhbE/Ig0VK1aUYdw51vYNKp1o1/G1NvF1dXUl8b2BMGNFfLds2ZKOkwNhHJcjLUEkNYSohNUVclTgO8bviWvxTMiKMHo3HMT3vV6j32DYT5wG7iPjyx7MTJkyOYJQDYDsuZZvZD7gcbRQv0uwh4wbMqDREIT8ivfJbcWKFWuF09+BF8BH8TEH/I7Ek/vCo5JiK9cs4pslSxaziS/BPKERV+XPB1ATMqNneuSNlkcDIp+p/Wf4Ij3mQi0HAUF8nz17hmKn58ScflHl4ycgvh/IWchBLTO1H6beI0Tjgs/UxJd+i9+s7HFiw3vXrl3S+/fvb4P49oAsykMWCVIJ2Ijvv27YsGGZ06dPfwY68AHxYz4y79jrC1v31MfHp50pG2dtt2LFiqxNmzadCN2/hHgou0YKvRJ6zLWfSXxRf8eZ+MK/pTgEqdNOlCxZWt7+907Z1zcgBGFwgyeHhEi/NR3K1w+ouyeC6LoCOtaRlCUeKWkUHQLFixfXTJs27fqFCxemwk5X/9LS+and+PHj7QYNGpSucOHC30Oe13ArciUSAa4UUrZMOXnypKn6t2+9ArVaLYcPNf0kskagSRF4pgMHDnRs06bN09y5cysFi4+MCwLvC/Ca70QHdaViDmL63vi5uTD2R6SnQoUK7PENRQX8AkRqEeQQJfGFbKxJfPVxJb5UFpJKFxeXyUiLPyeniVasqKDFeVQQeWl8T/3MGOp3URlwbOKlkJAQ7tDnhDhF1Vr+Bu93hOy5bXFkPuB+tFC/S5D4cgb83bt34534cqxtTOv4xgTxDfNmypQp3DoYYpKOIN4xEt8qVar0hLw/WmIpKjA/BPFS51FcoPaf5UWkyVyoZSHA4SrdunWTnj59qkO546YpnNUbHfE9idP/BPHlUfQ2FS1aVAbh4kYekiZMcxhySAc5RDlkyNpOTXyZdtyKlMHXRnxXrVqVGWn+iPiK/MQrHB//knUkKvh4r6ShF6XKly9/BrrPBqky/IDxIEFjvKhrXAv79OnTJL5cCixOxBcNXy7ZGKZOO5E7bz556vTf5AuXr4YEhYYuQBhfnC6wA2PWrFlOyN+/Uf40oo6kTFkmWVbxGu9JefLkCZ0xY4b7jRs3xn6Jaf2UjnMhypUrlxf2rQ1kzH0WPiK+qVKmkTt26CyfOHFK8+LFK/7l2gk5/xAX3Y2zCw4OLo2CvbdRo0b+HPdiXAgIYegJXuOzaEHlsgQxfW/83FwY+yHSYyC+QTAc90CkpiMDohxfZ2XiK8b43kLYsRrjK1yhQoXGOzo6cr/1GImvOv8IYdgFonrPGOI9jrcNCwvzoOyQjvpAlA0HvN8O8o8z8SWBTAjiy4kvIL5DcMoeR2/go/jEBH5DeTHes2fP5ixW9viaRXw7dOjQDd++UstdDcpf5Ju4RyMuejTUEPlFGPsRHdTvsryINJkLY3kQ1FMS32fPnnEZwYeQBSc3mMxHTm5D5c8toz8J8TUXQl7Gcucz8QeN5xyHL8YHc37B/v379WgMBUAv1kAGCWr8SXyRZh+RdtyKlIMgvo8fP/4qiO/u3budq1evvht5rwEU8ks5CF2gXS1SpEjgoEGDDnt4ePwCO1c4PmxPnz59MqJO+jl79uwrHRwcXkFXlGE2jIuIB4+8R+J78uRJCcSX277GaXIbbMZqHD4ivhk4EbVDR3npspXa67dcr/v6+0809IbGm92NL9eqVas1GTJkCBWNT/55EbJleWQ55RyIEiVKBPfq1evapk2bZoMb1E3ocvmlOQ4J7NGjR7aCBQv+kC5duhmQ5T+Qrx9lbLzOc6aMWeRJE6fIL56/CvT29j2NunAs6vHin1SfUJhdUBkN3blz59G2bdv6soKicrC3ijCuEFkwqDT4NErw+ecE4/jxV+Ply5d9kfYLISEho5ABUS7xZE3iy+XMDKs6uCHsWK3qIFy9evXGIZ/8OG5QFGaRR8Z5JvJNgCRJgN8R6u/EN+JcfSQMxNcfFfcFYALSksUQrY8c3o8z8c2WLZs8derUBCG+nPhZsmTJSTi9CSg7lhnHJybwG8qUeT5t2jRBfM0a6jBnzpyuqACf41SRNfNL5IfIAxpsgucMjxUjIfJUPFfrhCXgN+I7c8q7MdSyEN+SVKFiYY8vN3Dhb9quUeUjiS/0+h+cWoX4qnU/NhByUF+rIeQl5M3yyAqA+c84MG9YTrNkycJNKyRPT89A2gCWHcggwYkvDpHEV8iHR9r7hg0b6h88ePBVEN+rV686jhkzZmXGjBm5NbmGeaTOZ+YlZKIvU6ZM8IgRI6799ddfbeOj5zdv3rzfoXG0BadcMzucekNdYhxw/QHxRX0knzp1ituRcyWFOC1nZmdntxppDEuUGPmvQoqUqeV8BQrJTX9qIf06YWLYshWrn23ZsmXil6gTf/zxx+9ovASgTEosl5Qp5YhHCmgneQ/ylVA+Nc2aNfNauHDhfP7CVzywOZOuSZMm6QsVKlQDZWaSvX3yu8mTO2hSpEip7DQotq3Ga5BvcrlChSryuj/+Yj34DlXhNI1GKg/d5bbUn474IvC0iMT3IDKjDx8+fKV58+bBuXLl0tEIsgDSIArDzsJHJeE9fhoVhEH9nCCMCNPAMb5nz559gQp4DYgUx29F+asxHnp847Rzm3Agn32LFSv2GPnC3ziRE3HUFbFxnhkKuFLwoyNHan+MjwSJLxoM7Ll2hzL/DvnlMkTrI4f3rUJ8SSBJfENDQ+N7jK8jiO88nD4FlB3UjOMTE/gNZfsB8dWYR3yPHDnSCMTvDMpgIGT30QYlzEOC+cAKkWEI0ivy1FTeiu+EDpgDfsv3RZrMhSl5uLi4qIkvG34xEd847dwmwPDVaTcHxvE3fm5KTmowXFayJFKismWPb926deWdO3dy3V6u5MC5BT/Fpy6bcoL4Ah+kjde0+Y0aNdLfv3//NOJWAXDhN/9Vx2FNf//9d29U4HtQVt6xDAmdF+A15CQhL/3KlSt3bMqUKeNQd/x048aNws+fP7do0xEOUeMcDfhRonr16m2hG8Nwewp0aDPC8EB44YAyoY1ll7rFOBgT35MnT5L4ch3fuE66U3p8jYnvN3ZotKdOK6dNl152yZ5DKlm6bOiPTZpcHzp05Nz5CxfOmrtgycwVK1ZP27Zt5+S9B4+Nvnjx4qCbN2+2R4PpBy8vr/yIl0OE95/enTt3rk/Xrl1Po3HxnrLFLSVPKU+1/vOc8uVf7wIFCtzt1KnT3NmzZ4/evXt3j2vXrlWAnJNE+Gi5W758eYoFCxbUHjx48JgOHTpMKVWq1GzUaXOhb9wkaW7+/Pnn9unTZ9y9e/e6QHYcPuhsiV1Ao6ks7EtvNOB+zZMnz0zwjLlt27adPXr06MkzZswYBPLfFHaHExRjbWvWr1/v1LPnwEq1atVvV6RIsZGZM2dZhDpmB+R23d7eIQjEV+np5Xhekl6Cvb2ZM2WV27XrJO/fd1jWhOs4t6OXIX1JDV5/GocIcE1WRxSkkt7e3tOvXLlyYdCgQX5cYJ2VKg02FYJQKww/jQp8/jlBGBCSAVbAIPfS9evXb4H0dkTaS1MGiLdJFw/El7Ma2Vrvj/uxdvCnMfJpt5OT0yv4rVXnD48CIu2UgyjkAnwmnquvxbfG+S7uk/gGBweTwLzRarTrkZZ8hmh95PC+VYjv9OnTE4T4woA7wTBx7Bt7gbh5w0fxEVDLUg1+Q137gPia2eMLYlhi27Ztkxs2bHgReRtM+Yt8IUQYzAdWiCRW4h2RPwLqvFPHT+1fTOD7TCuiZjaM5cR7zMPevXv/J4mvkLMAw1UTX16XLVtW2bDi8ePHUAXdQdodVgB4lqBOTXxFWkScDcRXevjwIWddj0McOQ7vP9vzi7R9A33M0a9fvyogDOchB261r8hDnd8sZ6lTp5ZQF4Znz579NRrG2yCnLiBHReGN2baIyxUWL168cNasWfs7ODgcxq0n8NsbtiKUq6qowxR6RTLOI95V7rds2VJZxzcgIO5bFsPviKEOdijnKiBJcqp06WT7VKnlpA4Osp19cillunSazNmzB+UuUDAwq0u2gFx58/kWK17yfdnvyr0s9135BzVr1D7WvHmrBR07dmwLwsU/gPFmoy1xXJFi3759P8Cm7E+XLl2YKI+UKcs2zwkhd56zPs2cOXMQyPILrgxRtWrVX1u0aJEGz2LjvkHDKmPOnDl/h58vM2TI4IM4BCEM2nZuzBWCchfSunXr13fu3DkD2zgD+VoW+Wq2/DJlyjQcenQT6XkD3Q2Ef8GsO2Bz3+fKlesB9G1L4cKFuRJUrHWlUKHS37m45JyUMmXqo3Z2ydBIswtAeFwZSJssWXKlp5eklxDbXefInkvZ9W/Rwt/l+/fc5bAwDed2/AwkN3j76R0EnTIsLKy+v7//5FOnTl2aMGFCAIyklsaQSkLQILBAqhXGFPg8Kph6nzD1rjkw51sRBtPC8b0jR47kWMMzSHMJZEKm6IyHlYmv7Orqysk9Hgh3IO7H2rGhgtboiJo1a/4Dv0PU+cOjAK9ZoCkHUbiN5SPAd9Xfi3wn+J14RuILAqpBBc6NCDYB+Q3RinTs3TCs6tAffsdpVYeEJL7u7u7OqNj+wilnVWuBj+Ij5BgV+I0R8RW7c8VIfKmPZ8+erd+zZ8+lBQoU8BR5IsC8YGUoeqeM4yPeE3lI8NrUO+aA7zMMRC1OUBNfyOKTEt+Y8pDP1TB+biwjUUaEvAXpZf4zDshH+ZdffuF2nVpUxF4o/3Oisznx6Yx7fEW8eS2I76NHj/g37C/kUQfE86uY7ANC+RdISTDyM3KFE5HfzEtes8xBZtzU5Xn69OkPQ6eXgVCMQUN5dMWKFUdXr159dJ06dRTw/LvvvhtdtGjR0SDLox0dHcfCj+n4dhlwEufvIHsNzpW/dQLUJ9xTwmV41CFxj2jevLnS4xsYGBhr4sseSK4XjPRuQhjhxsQ3cTKQbRDeREkNE8CSgywm+Xd4AInx/75JjLLJHtREWpCe0NSp07zLlCnLnRw5cu/LkSPP7Pz5CyPtpSCDiqN/+OGH0d9/X2tUw4bNhnft2n3Qr79O7j5twrTWc+fObbB48bKqmzdvLnLw4MFMnF/B+MWHW7ly5QTE46WLi4uGes/8pFx5jsdK44bjfdV5gHe446wf8uAiSOs0kMixzEvmqTGgB6Pz588/Onfu3MxrJb9BOMfCP5a3WQCXp2N9okxaZL4KEs45AOAZ2ps3b3pqNJoDyFdukR1jvuIdO+YlCP0K1De+iK+efjL+Bt3luPUQ1MEeeL4Nz8agATcaMvgATFP27Lkj4ZLJZTTq7tHQ77GpU6TmRk5A4tWJEye5gvz2xDX1VglH0dsknHwZQXoFuHzZ99/XlGfOmC2fO3NR6+8X7KvTSIcQ589r5QwKkZUuJ7vhONzDw2Pb0qVL30BZlN2fOD6NmUUFodLwE4ICFsojwGtTUL9jCqa+iQnGfjA+xtcct4wWvYwWt1IBgVhwQwFONkoLRDujumvXrqMQjjIL2lRa1RBxEu+qv6HsSHxB3lCn6F9AxoPwTawd446CUmTGjBmz0DL1Yb5QCZk3UcVDQDw3fo+KrAb9Imj4ec1gCRJfFFBNeHi4J9KxEfiI+M6ZMycdCk5pfP8bwmDvaZThGsP4PbSW5Xnz5inEF7KLd+JbpkyZLYhHEC6VXhhjucQExpn5wXGev/32G3eq0UNGBxDvGHsNqI+enp6ZYNB6ogJ9AmPLnqZI2ZNQ07jRf4allpeQn4iHyD9xbS6EHwxL+E9/qMNcjosrNPAZ31GHK+IhIOJM8JsePXpIjx8/DkdDwA26EyXxrUHi++23pxMlRsX6DRpkTIMKIl0C+EQB48P4kWRTZ0W81O8QIn7iuaUQciLot2L8VVDnD21P9+7duemA3sfH5zXszl6ku1N86nB0rly5csrkNpwqMlA3oFTE9z3K2SnaKMTz0/6STCAH8jWlSZMmD6E7wSQiBpKr6IsJHSAhCsExAGWT68RSniZBWUMPSEoIf3wTiHthuKeDrkQOa2DZ4pETYlnf8sh7tCF8h7pEnWrfvj0bUJxjEWviC4KZFUSwEnThIMqL1rh8JU6Csq2CXVL7SPCaQyESJQbBwRHgLH5CB4R/801SyMXOP1EiO99EiRIj/ZHwBryAV/b2Dm4ODqnOZMyYZUfhwkUXVahQYUCzBs1+GDx4cD7YiFgPKYjOwe78vGDBgt1o+L10dnbWibylzAXh5TXzl/ImcM6GN4ebhQHcRp55bRLw7yPgewXMd0DZSIPAM0W/aEPxrQySyc19pPv374ehruDEd7PWuMV7qadMmZIF/mwHwkS8BagzAPImsRbxCMI9xsXnI9glVQBi62sM5CeQjAiKyF87yIOEmj27EZOqxdCGlA6pYXe/lZ2dM8nlvqsgjxk9Tr508YocGqr11mjkreHhUjfE2eVT2b5oHSLFoQ8l0KJs/fr1630gV++XLFkShhaJHi0YZeYrE0uh8lyAmUnQC3FuCnweFUy9HxMYtlAodZzEM1aAHFs3fvx4+ejRo1xHVOPn50fCthhhxuhIfHGgETMZV+P7BCs+NXiPBozxuH37NnRbxx7fAbgfZ3flypXm48aNu4QGSjAqWS7ALxQ+SggZGcP4PRQKBRkyZIg0DISB+LKQvkI61gAfDXX4/fffs6AlWR+6wmEDH8nPErDRtXbtWhmNsSDoZbwT32LFim3EKSe2KT2+agi9MpaVGnyPcmNFNXnyZG7YwM1SdiDeZv8ue/XqVeVt27btg0H0YeWEW4q/NNL0l2AY5uSf8f2YINLI8GjcWIaKFi0q//TTT+y1lQcOHChXqVIlUv9F+TMOTx0vEtJ27dqR+IaA+N4E8Y2S/NWoUcPZIVUqhfgmsU/2wfhDQvgrgE8UsHGLylNZAeTnn39WCDDvM25MB+Mm3jX2wxKI9BHqtAu/CeYPZUZ5HT58WALpZaPtJMs98F186nB0jj2+iFvk5DahR0wLyVaLFi3kJ0+e+KFsXwXGIJ5fBfF9/vx5202bNv3ZsWPHJ3nz5tVSLpSJcb4SQnbUBeP7xnrC79UQuiLe4TW/peyLFCmilLE9e/bIY8aMUSaERhCLiPqWRJg7/t25c0dGHfYc+RMr4hsaGlr91q1bY9Eov5UzZ04dy5g5xJfnJLz/+4Y2jmWfYDrsED/WvxHgNQGSawr6ZMmSh6VNm843fXqnF6lSprmdIkXKo2nTfrva2TnzVKS5X+nSpXshH3qhnum8YsWK1levXq0CLpIBUY91mQkODi7j5ub2C8jvgVatWnkVLlxYmcfEvBC2gfmHVxUwb3iPcue5uK+GWg9Mgd+qdUDYCoYn9Iv+MJ/79++vEN+goCCLiC/rWYS1F/4rwx2FfomwzcO/eWca1D8i4vrbb9MrQxnIbZgWREUB8lHOn6+g/FOzFsoqDidOnJTCwsLDNRrdVZDeDohvbuDzGeZg7BC5dIwkKqgmKFyjYRROoDC+nzBhggatYuXXnegBFomnsJnZQhlMQa0UBIUuzk29by4QZeUolIuL5RcvXlwxIiNHjpT/+usv+fr16xyXirpHT+Y5AumrFpHa6B0UUunxpf8izmolFkrGZ3g9SrDnh2OL7969y40zOIauJ+7H2fn6+ua8du1a+1WrVm0FSfJDgf5AGYl/FTwCQubGMH6PaSNI2plW+ksSxBUWwsLCgpEGTtKbD+RkXNSOO8yh4m8DorYFsmNr+aN8MxUHwjgeJDQ7duyQvby8gpCH8T7GF4Z3BeLHNXw52eSj+Ai5RAWmjYaNcps+fboW+c0VRNYBqSJCidnhXWfkbbP9+/cvHTBgwCvESemRY3zotyAs0clNxMf4fkxA8Eply/ymPqESkmfNmiXv27dPPn/+vHzx4kW5T58+Sjr5jmjgiXiJyprPCMqBeYhKm0tl+UN3zoH4stI2mY8c6uCY0flMsuT2EhD5CzbyV6xRfJl2fCaDsMjQO/ncuXNKXNnbXq9ePaXhxl486jDfU8ssNlCHTfmKdNJ/3mMZ4QRaNra59BT0NhBk4w7ylMv/FUW6HZWEfgLXtGnTcWiE+AgyxSPTwLi7uLjInTp14u56JL7X0LjlON+vgviCSOZBY7POgQMHdo4aNcqvTJkyOuotHn2Q3wR1QNgwPid4Lmwkj6LsmQK/5zc855+QypUrK1ubU3d3794to5GkkF80UpR6lu/xfeYVG50vX77kUIdnKEOxWtXB399/IMI5P3ToUG+UGSkpyphdsqSRiIr4RtHjC5l8iBiIL59J9vYp9EmT2LNBH5YqVdrg5MlT+CVKZMflI9/BhrwFGXwLm/GsWrVqt1GHr925c2eVuNh9lLv0kFlRd3f3fmjg7IC86beGXIH5pc5Tdb6qyzvP1e+J66ggvhP5znAI+svv2YnB/K9ZsyaXvdQ+e/bsLeqKvYhrA3PyFe8oQx3Spk27HTLjXwjFbxGu+fg4Dz/Ev8RXrNrAc4ZFcJ1eJ6eMcoUKleSuXbvLK1euls+eOS97enoFIi23QHoXBAdLZXCeKjb6+skcItwLSnPqzZs3HjAMAYMGDQpv3bq1vlKlShJ/y5DU8XcsCz0zWCiGMYQyqJWA57zHZ6a+MQcMl6SAv8RZUbO3h5XO3r175YcPH+pBlrRIQxjghQqIMynNdmh19gXBfwol1VFRSfYF4RdQX5uq/PkdW/M9evTQoRHxHvE4DgVoYQjCKu7du3d1T5w4cWn06NFh1atX1yFPlF/kxIdK/m8BNobxe6LAwntFzpQxycWcOXNIfH2QjsOoHIfg+NEkHRDx7N99911zVLJ/Ojg4+Ao5qUG5qGH8XMiUQ1SQl+w180ZYE+NiAGNyqPTTwiCORfiXELYf48UKUA0hl6jAuLOHk0YNlVkA4nwbmARYPNsZaS3h6uq6HzIPrF+/vgYVgl7oGMMyJ/+M78cE0XDkePjhw4dz+STpxYsXOpQjDch4OI7hCxYs0GTPnl2XLVs2ScjFOB9F/rE3CzLl7nsaEF8P6MwW6E+9qPKR4w8LFy18Ks23aRXim4J+qSD8F6AsSDZBVuSNf21UtkUOCQnhsmH6DRs26OvWrStVqVJFsVUkwGqZxQbG8qIdY7qZTvYyN2rUSJnIhnzTg2QEIC63oburg4KCfoxP3TXHtW3bdjTI1HvGl7pB+8Q08JgrVy65Z8+e7PF9jzw6AX3lttJfBfEVDvXcYDTsro4dO9YTOhOG/NRTtwSo59Rp5jl1QdRBlKUol6IejAq0DdRD1lXUlSVLllDmei0cyCwnP2uuXr2qRdnj+rJSunTplDxiA27atGnc8Y9zBtyQN00As4kE3k3BVWtQJpb37t3bC35r2duY1B7k1gzimyQZ0pYcdZwDyyHkANincEA9B3kYyBARE/H9lzRxR8OUkBdlFgH6RfkZCKIEWWlKlizp3qVLl9krVqxofOfOne9Rjjg3J0NsyhK+Kwi70OX48eObwBGe16hRI5w2jHWbqLPVeSvKO/PNmK/EBL4nvhXfE8ImsjODY7bZkXT48OFA2IgLiN80pIsT7s1OGxpIm7kDnXoImmVQk1xT+Jf4CjCvaHtZJooXKyk3a9pcnjxxqrxx42bJ1fWe9t279yEBAcHsvZ4TFqbs0sYtrz+p7bPYIcJUtM4whqNQ6c1Cq+nAlStXPNAKC5k1a5bUoUMHJRNZYfJ1IVBmPpWHGc0MUSsEj3zXFIQCCoj7QhEJ3qeyMrNJjDp37izPnz9fPnToEIcTcB98LrmlgyHxgpG4hvjvACYD38Mvs92WLVtqNW7c+M969eo9YQuRYZEQCPCaKFeuXCRA+D5AnTp1lPihdRby9u3b05Qj4lHSEIRVHPzL7ufn1xOV/gYQ4AcoTMENGzbk0iyKglL+eE2Bcf6I+wKioKqfsaJkw4K9EOyVQAXxEGH2MRTSj9ZB3rp1a8phw4blbdCgwehatWq95sL9JCb8/ctjdKA8YeyUI8dFDx48WEJlFIb85G5FA+KzAMHvpKhwyv/www+9Klas6FaqVCmFBAow/gQbMlGB60Qb4q6HHO6hFU/Sy0XRLV4b8tWrV47I1zYgnovPnTt3EYTKC5VlOBubrDxZtlgWmJ94XQHzTV1WRH4b57l4j40jGjASQ+iMPGrUKBmVo3zjxg2SSB0qWl+Uey5HcA5p2RcQEHDgzz///Ad5+wj56lO2bFkt9Z5pFuWCPZ6UA4dEcJtV/rploxn6vw/6zyVtCjJ9phx3XOrWrdvRGj/8oK9crapcsEhhuUTpUnIl+IV78vc1a8ilypSW8xcqKBcoXEjRFQ4jGjduHP/skGyGAX6AF/D61q1bPgg7aMqUKTr+sWKeUnYI6oMKSeg97xPGshPgM74vyhTv0fb9+OOPymTGCxcuKEOqIKdnkBsnq0wE0W+AfIxy2b+EcsiHodDt1+y0oB6zJ56NWZAgJZ+mT5/OCYiPwMHYO82ep69icptwSHMZ5Fnvly9fLnNzczu5bNmyV5CLjg23HDlyKGWNOsI8F/rBa+oCodYj9TsspyxnLGPsVUfDUVmP9969ezJ0lISXkx5dEf4l6Mpp3Lt15MiRp6g3/FGutChT+qZNm8rr1q3ThIaGsgNgP/C9JbZw3759ufr161cD5fVw7ty5w1B/RnaOiDqC8edwBw4pwicKMjhlUMpa2fKo3ypWUOwfV30iaRZ/U1g/MJ18X5QnAeEPnzMMHoUceZ82iPfE+2w8UF4G3sDJf2Eg/56oR+4uXLjwHzQSfocMaiHtFvceQmbpUHcVRtls+vr16zEgwIfAGwJQxyvpYX4xjuQWlAvjKOJDGTGd8OYDqPVApEn9jA0d+k2ZUXawm8rujagbOF5bgk3UQufckZ7fUMdVRRwtWs4MtnrD7NmzwzmsiumgPeROvEwDw8crkRD1AuNL8FzUB1GBvbxqkAfQhtavX1+ZM4UyIkNXuWKNln+3AgNDOJRtiU4n9ZO1cnWkJw+QDH592Q6JaIjKa/ObN28ePHz4MACJ1qDVqpk4caIWBUvfrFkzCURRYsXHTBAGlpUDW8wUOLyJhKiABcR9KiDf5+8eZiSNMytXZm67du04LoaVtLR69Wo94qBDZaOFwdBAiRA9DcdV0kBwXN04oCL8tNihhZl7x44drbdt27Ye+vX6jz/+0ML46AA9zvVr167lUbtmzRqNAOKjJVatWqUj0FLVHTt2TItK2QPxm4a4lAQsWgPSXAd/80HpFt+9e/ce4u3NfEHLVjdgwAB9ixYtJE5WLFSokFIQWTCE4VKDpIqFlASGxJO/ukkqVq5cKUEGeuQ5J7bR8GY2BBul27x5c0OQpKuQS+jvv/8eDsMVKacooEU42qVLl+opN8hWhwoi+N27d8+Qp7tRKfxk8DpeHWRmh7zdjHwOYzwAxkdC40VPMH6ADmliXDUGaHmN95j34dCZAJCuLZBTfhiyOP3epr4EBQUNQ6PzOBpjL2fOnKkhkevSpYseZFWqXr26UtZIYpiHNNKinAmDLMByyAYRGyPscerbt6+Msishzvq///5bB8KrQcWvQZgsQ5zodBlEaDXk3wcVTl3kQcPz5893Q/pWQh8uIM/eqvPQoPd6AZBOLd4PB4l/AMPOYUZc6zPKGdzcRGT/oUMbN27aFLhxy+bwxUuX6JevWqlfu36dtGHjRmnj5s3K9cIli7VLli1VwkS8w9HgC0W8/WF5nyGcK5DXCdiCvSDs5318fNyuXr36nu8tWrRIA4KnQZnQtWnThnZKouxoo6j7rOhYAasrDZ6z8mOZYeOGNo32jQ0FkHSFMO7du1fPMfwIVwtZvYHMNqOctIe8Ppr8+anc4cOHu0J/b0JPg2Ab9OxtFEBZlVDWNJ6enrSZPzKfLKmA/0sOaS+OvOv24MGDPdCr95s2btLMmDFDg0a4tnv37ootJRlmY5i9/NmzZ1fAc/ac85ydQU2bNFU6PYYOHaoMveEk3T179nDrepJdli+uh+4JHT0FfZmFa/5B647zqciH9Xj3KuyJJ+oT//Xr14fAnrzB+xfxDpe9KmZu/tCegcDXg45Pc3BwuI+6NXL1CkIQUYV4OqSQsyH+FStXlpugLh88dIg0Y9ZM/RrUdRs2/qWUaeiPHmmR2PHF4YQc+oSypNiTZk2bcbMmJf20M5QJyxUJIBvYDAdRUsD6nmWL4H3W+aLnXJBf8a6TkxP/3gRBDnc9PDwmoi7Nj8ZkjCvlROdQNpvBr1u7d+8ORxnQgk/ouMMkG4Hs5GE5Z2OFZI+9tKLnXw3aWtoF8hS+x/qVaef3JLnkKhzKwt56kEQJ5Ux/9uxZdihwZSTuIMshDvulUKUhYzGZR/wXQp+8oKdh27dv16D+1EFXJXYYsZHF4V6MCzsnqK+0c8wT1v2MP/NeDU5SS58uAzgCdDlnHtQrpZXJatWr15Br16qr6POkSZNk1EO0F7pHjx6R8IZBnT2ht3e0Wmky0pFg27AnmENG5QVaQWlGI7GLtBrtOlSI66CEOyCE65cuXXqFSiAAiqSZMGGCni0RkieOuWUm0GCw0iCJZQ8flUsNZg7vs2JmAeLQBfoBv5RxUJwscu7cOR3IXeiLFy/4y90dCnQWyrMH5xsh9D8InM8FegJsRUW5u1h0Dv5wg49CQHNk6jSkdzuOF4H7gCsqOI6F4y//dQKQxXbI5ghwEudn8e0RYAviNxHHmoBTfCkGF1VHvBogDPYqz0WYf0I250AInpw8edIPREULEit17dpVMVIEe8HU4Mxh/uJGBan07qJgcTIFx6pyrKIbsB5y4BrIUW71LByMU17IZCCwCmRkDUgJx7pGhQ2I+2bE9whwDeeX8c1xkJZNCI89UCQRUa4ZbE2HtH2DOHDNwTU4ngGeAB6QwTPgAeJ2Ezit0+h2Qf836zX6rbpw3XYc9yCuHKfFOC/GsTWQLq75ze/hT0XInpXiFMiB+n3i/v37d3ft2uUJYxcK8qpDw1NiZcvexxo1aig9rjR6atCocxIYiTxIqQ4t9TAQRA7B4Zjts8wDgP6vBmYDA3DdBO9wxZecQF7EpwTi0Bjx6Qt5/KYN0/5BO8B1nZHXR4FbBN65juMJYBPkNxrfcmMEyiPKX+hMa2B4YMvAkJAlIeHhBzQ6zU2NVuuulXRvdJLECZXPwrRhN/Fsnxblnfro7e29BnqyEjJfBExAWANw7A50xHlfYATOZ8PvPxAXltH1sB3nrly58gqkIhjEVbFT/PXIxiEbEpQdG3/8a8Nz2iLKddCgQcoETxAA/mFShoEgnf6IF+3QeRxpI6bjvCX0vSjTa0jaJ3cg5cURpyEoV3sRZ+6bD7GEcxgLe518IJc7uJ6BZ7Txn028E9oh7U78pQ5ZcFLOHOo3ZLMOsjuM8vIUtjSYjWHqAf94CtB2cgIadQnlUQZJU8ac8w8kyglXdwnF4QXkexx5sBZYDrnPQj70wLPaAHe1YsdITbzT3NfXdyB0aSZAvV4O0A72A0niu5zwZZZDnWufOnXqOalSpfIAuQ1VN+pIdkne2BlC0lanXl25T7++0qq1a7UnT58KevzsyVufAP8nCI/j1O9Ar12RhpeIix8QigatDnZIunDhgsSev40bNyp1B8qUPHr0aEUerP9Ztlh+2FvIep6dWWyEi4Y640HiJUivIMCMq3hG8tu6desA8IvrqFsWQUb1UaZjPW4U6WEjfCiwHv5shQ059vDhw+dHjx4NW7x4sX7s2LEKqWf82eFGG8DGrhrkNHxGnkId4NAFNnBgVygLCQ15PTeuQkOGw57eIi/5t/QcsBlyXAoZ/gaZUs+yIw4WNzQlrVQPfsyB32sCAgI2QG/Pv379+s2dO3eCz5w5o4EO6sDFJP6N4p83DmcieWU9wEYKx5iTjwk0bNhYbtGiFdLSCY36HmiwzUR6FsjLl62U165Zzz8VevA8FIdQ2g/a94Ow+2uQrtlIxzDEhwT+69n5DhnnAkUcBIHshFLeQUZ7gXAFubu7ayEoHTKfCqC/d++ecrx9+7b+xo0b+mvXrun5i5LgNXHz5k0FfAdGQ//s2TM9/NHRL/gZCr/9kckeyHC2fmkQWuFYCAKPkYzFxSGMLAB3WJmFsLhd70Dgg95kXGcHSLZJQFtBIXn+SSoRxDEpjHVrYCXI61UYUm8YqlAUbrbU9Cgc3KL0A/A+x5xR5pQ98pRjpNnAcIM/HGMbL78/4S/JHSdWUl6c/d4LulQLx3xAvK3xGJ1DnL5B2M2B5cCfAAk6J/Sx55L38+EdNo6cAOY7G0nFeG3wIt4cZFOHm868efPmKAydB8qFL/MWeahFRaRHw1ApZ8xjliOBp0+f6kHWtO/fvw9DGfJF/r6AwfoHcWa6WI7SG4KIlUO8qsMYjiLg7yApTGLlFKse71BZpl8joYDLNGjYanQ6DllaF6LRDMexFPxNwTwyvG6Rgy7/jIpux9u3bx9Bz4Og91qOywUZVmwRZUXZGYPvsFzABunxLRsNlOFNxHMFKzDEJ5shiM/WIb71kP4DyH82JDj50hv3LqLSnINzDnH4Knt6Y3KQTQWUubUobw9RjgJQ1tgBw93uFPCcekM7Sh159+6dAsiWpDcY5IA7rv0N1EkIGbOnt1ixYk4ZMmQoDhJ5FgRTIoFU97ry9z17AdkZsmbNGuny1Ss613tuYS9evfR97+19Pygk+Agiz0bwRC3qPJTvyahv/4auXwdI4lkXh6A8hMMG8W8R62gtbJGWjUIPDw/W2zrU+zrIRkciyDqff0jY4ARh1JcvX14iCRa9qIwTya+IK3sn2atKAoy4SlOmTAmCbbuLsIdDjnGuj+BHUqSPQwyqw89NKNcvkb/BiL8eea3UhbSltAss/wSvmd+izkSDSDkircr7kIEO/oRDXlx/nksZusJWHMSRHSJtAatyAsSdK3KlgL/t9Br9XoT1APX9O9T7/qgjQhEvDeKrZfwI1vGESM+/6SI/+xfPn7+MxIsXL7XQ5yDkPzuB9iD/+YeCO9vFuvHxxTsIIDVQEULheOCxbKUiA9YAW9gbBiHtAnbjHYvB74AdEPY2XJOArISwf0M4FHwzoAiuOYA6XidjIJzUCKM0K3O0utl7WxH4YGtPvgOQBJGwFeE5vvkkXf8Il8SNRIwkjWRhKbAeshT5oeSJAk0EIFM1diH/tiEvf8f5OKS5lsFrqzvElQWX5JeyY89HWYBLoETbQxjfDuErPf4Ae29JDBsCJOdsaFHn7AEaHOY7CTB79D8a92xth3DywqDWRb70Qbn4DXm0DHn1J8634tlOYBdgXJZ4byfix3e4BvMyYCbQH2C6WI7ipKvwg73C3HqTYPlgD3Gs5EG/NPAnDGU8HA1OoDPQKiRC/qyoYt2zgO/5q7gT5DYZWG2QCeVmLDNhf9RgudkJWfMvBcvGKFSYzeAH50N8kkaaJQ5xzIM494D+zKHeALQLg2HXGvj7+7MxZyO+JhxklBX4GfKaBKyCDtCO7jToQ3TYiff/YDmlzlH+8Slj+P0NSK995cqVc4FETgXhverg4ODPnlWSSdGLyjky/MPBXsqDBw+Gggjdgk7sgG4oeg1MRNx7Q7dp/1jfEeyM6IB3RuI5e6NXAuuBTUjfFoS9lcA7rKu3q8BGq8BOEOWdaEjuAgE+vmjRoosDBw70rFSpkh4kV9nUg8MeBEiCxVwEDn/s0qWLbv/+/V4gdbNOnjwZ595FygtgIzoH4tYWaZmDtPCv1795qDHCh/lLu6oG7QjTTBvLJT/595lDLnshjCY48k+QVce9GtLA/RiKA90Bzi1hZ8ZKgDusbgaYJ4ybqB8sAvxnvrIRxKE2XYFKQFbct9kLm7M5m7M5m7M5m/s0jj29XA/bycmpFojuTUDp6RWkl2NrOSa1WbNmyhrpjx494iQrbqzUnQTK4E28O4aFMAuisfXjjRs3Dk2bNi0YZF2XKVMmiWSXPb8i3oL8EhxyMGfOnHB3d/e17969S0nCZ/DS5mzO5mzO5mzO5mzO5r4mN2LEiBxZs2adCoJ7NUmSJAEcLiBA0stJsJwczpUlXrx4EfL+/XsuPbUAKJfQvXcIk0uTFUAc+rm5uW3ctGnTvk6dOh0DaX+RLFkyHcf5qskvrzk+uG/fvhxCcTc8PHy2FKqsmvP1/m63OZuzOZuzOZuzOZv7Wl29evUqgSDexKlEoit6eQmursCVBjhxGaRX1oRrOFeGu4XFerx8XB3DBZIyDq6urim5HGbhwoV/B9kNFqRXDHvg6xwP/PPPP0u3bt3iTpDuwCR8+1UtvWdzNmdzNmdzNmdzNvdVO+48OWzYsB8zZ868IEmSJK8BhfiKpQ05PparKnCG/9OnT7mkmrder98nSVI1EMfPapxm/fr1+yC+15ImTeoPwquM+xXrz3K4A9eR5bJgYWFhXLZ0CeJvG+5gczZnczZnczZnczb3tbidO3cWbd68+fxUqVLd+eabb4I5tIFEkUc8VnpKuTzXwYMH5YCAAD8QxiMajWYYjpyA+lkR3zZt2lTKmjXrOMT9EkhvONPAnmse2QNctmxZrj3NXuuw0NDQDTbia3M2Z3M2Z3M2Z3M29xW5hQsXVqlQocLBRIkS+YHw6sTqCCSMBMf2cte4p0+fcl3h1yCLv4H0cqWGOC1hGB9uxIgR2TJlylQL8d+KdCgkXj1kgxtLrFixgmnhbnabbcTX5mzO5mzO5mzO5mzuK3JTpkxpULhwYTeQXr3o6RWbQPCcu59y45V3797JWq32IchiEyDN50gaW7RokbRatWppEe9ZgD/Tw3TgkYJixYopG4R4eHhwp0QuoWYjvjZnczZnczZnczZnc1+L69evX5McOXI8BklUxvayx5dr95I0ckUE7tK1f/9+KTg4WKvT6S5IklQehPGzXoMVcZ8Iwsse7I+I7/bt25VdRZEOrh9sI742Z3M2Z3M2Z3M2Z3Nfi+vYsWMTZ2fnxyCIEi4jx/aSBHNCWO3ateVbt25pDRPCuJFE8S+F+JL0EkwLj9xKnGOVQ0JCNEjHRhvxtTmbszmbszmbszmb+4pc48aNm6RKlSqyx5cEEbc/IL53794NAPG9qtVqp4Ew5vxciW+PHj1SFChQIBPSMh/pCBDEVwzf+P777+Vz585JSEcI0rHWRnxtzuZszuZszuZszua+IlevXr1I4otLZeczDnXgBDceOdTBzc3tVUhIyHwpTGoEwvjZTWoTrm3btlmzZMlSA2nZBMIbJIgvrpVl2ZBW+ebNmzq9Xu+DdNiWM7M5m7M5m7M5m7M5m/uaXLNmzZo4OTlFEl+CRJGkl0uAFSpUiL2k7jqdbmBwcPB3IIyplA8/Q1ehQoWaILhzEiVKdAsIZ681gUfKzm0dOnSQbty4EQLi+wTpmAzia9vAwuZszuZszuZszuZs7mtxPXr0aJIrVy6TxJdDBLJlyybv3bvXIygo6FcQxepAGuXDz9AhrkNxeACyGwooQzcE8eXqFMOHD5fu3r3rBeJ7DMS3t4342pzN2ZzN2ZzN2ZzNfUVu7NixTcqUKfOIRJGEl0SRR46JxWPZyclJ/vXXX9/dvn37D5BFblOcEfisxvguWLAgQ9WqVYumTZt2Iy5DBOEV4EoV1atXl5ctW6Z7+fLlXRDfmUhLXaTjk2y3bHM2Z3M2Z3M2Z3M2Z3OfwE2fPr0hSOE9EEQ9CSJJLyFWd8icOTO3+g3aunWra0hIyFwQxs9ux7Yff/yxdpYsWWaD+N5JmTKl1pj4ksQ3atRI3r17t8bHx+cg0vA90pDtc0uHzdmczdmczdmczdmczcWjO3ToUN169epdS5EihRaXkpgMRogVEXLmzKkdN26cn6ur6x5fX9+SnwthBBlP2b1790y5cuUaa2dndw1x9QWUNOCx0tPLSW0ZM2aU+/bty2XZQsPCwlYg/rZJbTZnczZnczZnczZnc1+bu3HjRqVff/11Z548ebxAdkl+I3t8Bezt7aUSJUroBg0adPGff/6p+LkQ31q1apUDKe8H0nsM8fTDUcf4kvDisRJ3R0dH+aeffpLXrVsneXl5+UuStMBGfG3O5mzO5mzO5mzO5r5CFxgYWPjPP/+cUb9+/etp0qQJEmRXgCSSPaiGFR7cBwwY0HH37t157t69mwkEMm1CkUiE883JkyfTLlmyxKVVq1a5S5cuXcDJyWlwhgwZdoHwvkJc9eo485P06dPL5cqVk+fOnSvdvn07XK/XP4c/EwDbpDabszmbszmbszmbs7mvzb1588bpzJkz9aZPnz4nX758rxInTiwJAknCy/V8xXmqVKlCQX4ftmzZ8sDUqVMX7Nu3r5OHh0cuEMl47wFeu3Zt2oEDB3asWLHi6pQpUx5MlCjRVRDep2nTpvVG/MJFnAnRY124cGG5S5cu8uHDh7WvXr26Gx4eviAoKMg2qc3mbM7mbM7mbM7mbO5rdvv3769Us2bN246OjhI3sSDRJYFkT68xnJycwrgEGt5f36dPn7ogzd+SmLJH9uHDh6lBLFMCKQywB5IaYAd8RDp5j8/wvf3y5ctTcOzuggULUnfs2DEtUa1atbTFixcvjHDXpU6d+jXiF84Ja4Loil5pxpfLsPEa8ZO7du3Kpdjkt2/fBoWEhCyRJIm91CkMwdqczdmczdmczdmczdnc1+iePHlSfMKECfvLli0bBHKrI3kkiSTBNCa+IJj6ZMmSBeP56yxZstwoUqTISZDTE61btz7Sr1+/HbNmzVo3b968RQsXLpyyaNGiEUuWLPl/e3cbUlcdgAF8rBE1v2g4bL4NcW/i2rD1IWGxaK0P7VV6odpCiBU4WvgSibgFazASkZZzgRXbh/bBfRk2haK16Qc35xpzS+Wq6MTN6/Iu9eq89857zzn/nufgGdeioFUQ7PnBw7n33PPmt4c/f/9nLz6/eeTIkc3Yn1NSUvK4V4BZcA8dOpRVWVn5Aorq+9u3b6/Oz8//Ji8vr3n16tVnUWBbUHZbcL92HD6K8MUU7rQGPhtLOlduwP770xvWrl3rjvSeOnXK9vv90yi9naFQ6APck4Vc83tFREREHmbBYHB5a2trbVlZWS8KZygpKcksXrzYHT2NL72c+sCRVa9s8jsL6FwcZDYhISGIsupPTk7uSUlJubhs2bKmjIyML9PT0z/OzMzciiThXLeAoqimLl269DkcX7Fo0aLvsGtw4cKF07iHhbjTLuLvz+fh/eOLL1du4D4+LwqzKS0tNadPnzZDQ0OzkUjkOl+3HIvFuISZpjiIiIiIPOz8fn9yIBB4HeX3KMrvz+vWrQuhwFqcQhBfelk8WTq98snwmLhRVxvh6hAR/HYXx0/g3DGcO4z0YV8H9n2Pc5qRM8hZnHsR6UUCSJilF8e5L9Tgteeuez8suyy98fdm+eVLKioqKsy5c+fskZGR6ampqe6ZmZkvpqenX3UcZzmKr9btFREREXnYcTSUUwFQEFe1tbV9XlNT4ysoKJhZuXKlW3Z5CEdUWTa9Asxi6hVgr6SyhHLLeL/PhaO388J98fHOY3hNlm3ek/fj/RlvHz/zGdLS0syGDRtMUVER38xmLly4YILBYDgWi3WEQqGqycnJ5/E3JWiKg4iIiIjMw/KL4vhab29vbUNDQ+u+ffuGc3Nzw0uWLDGJiYnuurgsnyymLKhe0UVxnVeAvX3x4e/x+f3v3jkstF6x5j6O8PI7CzCfgfN4mTVr1rhr9NbX1zvt7e0xFN0gSu6gFbXO2rb9yczMzNaJiQm9oU1ERERE/ogjvyiPT0xNTa0YHR19xefz7W9qauopLS21OX+WI6zeygksvTyFiS/A/6T48jretXgM78MRXpbfjIwMdw4vy251dbVpaWkxXV1d5ubNm9HJyck7lmX9iGffg8Kbh20G/hauM/yo+4eJiIiIiPwZlMbMcDicf+/evbqOjo6euro6/4EDB8Z3794d2bRpk52Tk+MuG8ZRWI4C8xSvtD5o8WV4PRZsXn/9+vVm48aNZufOne4/rdXW1jqNjY3R/v7+u7ZtB1Bwh7D9CdtGpBzJ1giviIiIiPwtKJBcgzcRZfIpJ+a8bFlWWSwa+6qzs/N6Q0ND6ODBg05xcbHZtWuX2bJli/uWNJbV7Oxsk5WVZdLT001qaqpbYrnldAmuFsGR2/jwdxZoTl1g0d22bZspLCw05eXlpqqqypw4cYIvoTDDw8NOdDaKx7B+QVrxXEeRN5DNyLPIcuTxuccXEREREXkwKJUrkB3hcPizsbGxS4ODgzf6+/v9fX19d7q7u4PXrl0LX7lyxTp//rzT3NxsUI7N8ePHzbFjxzhSa2pqatwpCocPH3a/nzx50jQ2Nhocb9ra2szly5edq1ev2rjGbFdX192BgYHxW7du3fb7/beDwaAf9x5G+lB6v0Uq8fklFHO9kEJERERE/l0omVz1IQ15BtmBvI3siUajFcjX+NyGcPpBbHZ21pmYmDAjIyNcT9egxBqfz2d6enoMiq1BWTaBQMBEIhFj2zaD05wYMo34kDO436fIe/j8LrIHKUTewr4Xsc1FUvD5kbnHExERERH5b6F8PulE3OkG+5EfkAHLsm6j/I6j2I7juxuU23ErZo1zP7cM9v2K3+4go8gNnHcJ23rkHSQX19Z8XRERERH5f0A5fQwllSPBTyMFSBEKbAlSzuD7vHj7mWg0+hH2fYgUI3sRjuhy7d1V2PINbyIiIiIiIiIiIiIiIiIiIiIiIiIiIiIiIiIiIiIiIiIiIiIiIiIiIiIiIiIiIiIiIiIiIiIiIiLyFxYs+A2kAiOKFNucRQAAAABJRU5ErkJggg==;labelBackgroundColor=#FFFFFF;imageBackground=none;fontColor=#000000;" parent="CibuX7JwkrPW4KWWgDuO-42" vertex="1">
          <mxGeometry x="28.88499999999999" y="217.55" width="162.23" height="110" as="geometry" />
        </mxCell>
        <mxCell id="CibuX7JwkrPW4KWWgDuO-4" value="Arquivo JSON" style="dashed=0;outlineConnect=0;html=1;align=center;labelPosition=center;verticalLabelPosition=top;verticalAlign=bottom;shape=mxgraph.weblogos.json;labelBackgroundColor=#FFFFFF;fontColor=#000000;" parent="CibuX7JwkrPW4KWWgDuO-42" vertex="1">
          <mxGeometry x="75.00000000000006" y="93.85000000000002" width="70" height="75.8" as="geometry" />
        </mxCell>
        <mxCell id="CibuX7JwkrPW4KWWgDuO-24" style="rounded=0;orthogonalLoop=1;jettySize=auto;html=1;fillColor=#f5f5f5;strokeColor=#666666;gradientColor=#b3b3b3;startArrow=classicThin;startFill=1;labelBackgroundColor=#FFFFFF;fontColor=#000000;" parent="CibuX7JwkrPW4KWWgDuO-42" source="cZuDhUX1Navy96NufW1f-11" target="CibuX7JwkrPW4KWWgDuO-4" edge="1">
          <mxGeometry relative="1" as="geometry" />
        </mxCell>
        <mxCell id="CibuX7JwkrPW4KWWgDuO-32" value="Front-end" style="text;html=1;align=center;verticalAlign=middle;whiteSpace=wrap;rounded=0;fillColor=#ffff88;strokeColor=#36393d;fontColor=#000000;labelBackgroundColor=none;" parent="CibuX7JwkrPW4KWWgDuO-42" vertex="1">
          <mxGeometry x="70.00000000000006" y="15.200000000000045" width="80" height="30" as="geometry" />
        </mxCell>
        <mxCell id="CibuX7JwkrPW4KWWgDuO-40" style="rounded=0;orthogonalLoop=1;jettySize=auto;html=1;strokeColor=#7EA6E0;strokeWidth=6;labelBackgroundColor=#FFFFFF;fontColor=#000000;" parent="1" source="cZuDhUX1Navy96NufW1f-11" target="UEzPUAAOIrF-is8g5C7q-114" edge="1">
          <mxGeometry relative="1" as="geometry" />
        </mxCell>
        <mxCell id="CibuX7JwkrPW4KWWgDuO-47" value="Dados na nuvem" style="text;html=1;align=center;verticalAlign=middle;whiteSpace=wrap;rounded=0;fillColor=#ffff88;strokeColor=#36393d;fontColor=#000000;labelBackgroundColor=none;" parent="1" vertex="1">
          <mxGeometry x="394.99999999999994" y="-1050" width="100" height="30" as="geometry" />
        </mxCell>
        <mxCell id="CibuX7JwkrPW4KWWgDuO-50" style="rounded=0;orthogonalLoop=1;jettySize=auto;html=1;strokeColor=#7EA6E0;strokeWidth=6;labelBackgroundColor=#FFFFFF;fontColor=#000000;" parent="1" source="UEzPUAAOIrF-is8g5C7q-113" target="UEzPUAAOIrF-is8g5C7q-115" edge="1">
          <mxGeometry relative="1" as="geometry">
            <mxPoint x="553" y="-670" as="sourcePoint" />
            <mxPoint x="605" y="-670" as="targetPoint" />
          </mxGeometry>
        </mxCell>
        <mxCell id="CibuX7JwkrPW4KWWgDuO-52" style="rounded=0;orthogonalLoop=1;jettySize=auto;html=1;strokeColor=#7EA6E0;strokeWidth=6;labelBackgroundColor=#FFFFFF;fontColor=#000000;" parent="1" source="UEzPUAAOIrF-is8g5C7q-115" target="cZuDhUX1Navy96NufW1f-6" edge="1">
          <mxGeometry relative="1" as="geometry">
            <mxPoint x="620" y="-621" as="sourcePoint" />
            <mxPoint x="636" y="-642" as="targetPoint" />
          </mxGeometry>
        </mxCell>
        <mxCell id="CibuX7JwkrPW4KWWgDuO-57" style="rounded=0;orthogonalLoop=1;jettySize=auto;html=1;strokeWidth=6;strokeColor=#7EA6E0;labelBackgroundColor=#FFFFFF;fontColor=#000000;" parent="1" source="CibuX7JwkrPW4KWWgDuO-34" target="UEzPUAAOIrF-is8g5C7q-114" edge="1">
          <mxGeometry relative="1" as="geometry">
            <mxPoint x="610" y="-450" as="sourcePoint" />
            <mxPoint x="820" y="-460" as="targetPoint" />
          </mxGeometry>
        </mxCell>
        <mxCell id="CibuX7JwkrPW4KWWgDuO-58" style="rounded=0;orthogonalLoop=1;jettySize=auto;html=1;strokeWidth=6;strokeColor=#7EA6E0;labelBackgroundColor=#FFFFFF;fontColor=#000000;" parent="1" source="UEzPUAAOIrF-is8g5C7q-109" target="UEzPUAAOIrF-is8g5C7q-121" edge="1">
          <mxGeometry relative="1" as="geometry">
            <mxPoint x="468.178136635609" y="-429.3400446782266" as="sourcePoint" />
            <mxPoint x="640" y="-460" as="targetPoint" />
          </mxGeometry>
        </mxCell>
        <mxCell id="CibuX7JwkrPW4KWWgDuO-59" style="rounded=0;orthogonalLoop=1;jettySize=auto;html=1;strokeWidth=6;strokeColor=#7EA6E0;labelBackgroundColor=#FFFFFF;fontColor=#000000;" parent="1" source="UEzPUAAOIrF-is8g5C7q-109" target="CibuX7JwkrPW4KWWgDuO-62" edge="1">
          <mxGeometry relative="1" as="geometry">
            <mxPoint x="630" y="-430" as="sourcePoint" />
            <mxPoint x="840" y="-440" as="targetPoint" />
          </mxGeometry>
        </mxCell>
        <mxCell id="CibuX7JwkrPW4KWWgDuO-62" value="Identity and Acess&lt;br style=&quot;padding: 0px; margin: 0px;&quot;&gt;Management (IAM)" style="sketch=0;points=[[0,0,0],[0.25,0,0],[0.5,0,0],[0.75,0,0],[1,0,0],[0,1,0],[0.25,1,0],[0.5,1,0],[0.75,1,0],[1,1,0],[0,0.25,0],[0,0.5,0],[0,0.75,0],[1,0.25,0],[1,0.5,0],[1,0.75,0]];outlineConnect=0;fontColor=#000000;fillColor=#DD344C;strokeColor=#ffffff;dashed=0;verticalLabelPosition=middle;verticalAlign=middle;align=left;html=1;fontSize=12;fontStyle=0;aspect=fixed;shape=mxgraph.aws4.resourceIcon;resIcon=mxgraph.aws4.identity_and_access_management;labelPosition=right;labelBackgroundColor=#FFFFFF;" parent="1" vertex="1">
          <mxGeometry x="755" y="-631" width="78" height="78" as="geometry" />
        </mxCell>
      </root>
    </mxGraphModel>
  </diagram>
  <diagram id="3oNBTu8MJMjCAoKxl93r" name="Completo">
    <mxGraphModel dx="1050" dy="621" grid="1" gridSize="10" guides="1" tooltips="1" connect="1" arrows="1" fold="1" page="1" pageScale="1" pageWidth="800" pageHeight="400" math="0" shadow="0">
      <root>
        <mxCell id="0" />
        <mxCell id="1" parent="0" />
      </root>
    </mxGraphModel>
  </diagram>
</mxfile>
